<?xml version="1.0" encoding="UTF-8"?><svg xmlns="http://www.w3.org/2000/svg" version="1.1" viewBox="0 0 1600 1200" width="1600" height="1200" x="0px" y="0px" xmlns:xlink="http://www.w3.org/1999/xlink">
<defs/><!--ITEM: Illustration component 1--><g transform="translate(873.0 278.0) rotate(0.0 -332.5 309.0)  scale(-0.5256729997747115 0.5259574468085106)"><svg width="1265.045" height="1175.0" viewBox="0.0 0.0 1265.045 1175.0"><g>
	<path style="fill:#00AEE0;" d="M1186.592,771.907c0,0-49.822,22.149-50.826,23.153c-0.451,0.451-2.817,7.589-5.286,15.312   C863.34,749.473,607.379,701.947,395.919,693.243c-14.308-0.582-28.175,4.796-38.55,14.649   C281.272,780.076,169.193,855.17,39.133,930.183L0.101,908.128c0,0-1.003,27.132,3.311,51.936   c2.99,17.198,8.549,33.272,18.783,38.409c2.208,1.124,4.616,1.727,7.265,1.727c261.303,31.908,520.961,97.208,755.353,170.877   c29.841,9.391,62.431,1.626,84.887-20.148l314.483-304.891c2.709-2.631,4.111-5.892,4.406-9.188   C1193.282,817.206,1186.592,778.446,1186.592,771.907z"/>
	<path style="fill:#10294C;" d="M1175.262,758.929C891.297,692.927,617.693,640.245,393.91,631.04   c-14.305-0.588-28.165,4.782-38.553,14.635c-80.235,76.103-200.434,155.428-339.54,234.49   c-26.064,14.814-18.12,54.198,11.638,57.832c261.304,31.906,520.955,97.211,755.35,170.876c29.849,9.381,62.426,1.63,84.89-20.149   l314.49-304.902C1190.551,775.711,1186.611,761.567,1175.262,758.929z"/>
	<g>
		<path style="fill:#00AEE0;" d="M361.277,51.348L361.277,51.348c3.211-8.83,11.84-14.449,21.272-14.047    c89.503,4.616,412.795,26.69,787.06,120.206c9.031,2.207,15.452,10.034,16.255,19.064c5.218,65.421,23.078,328.711,1.003,575.345    c-0.803,9.833-8.429,17.86-18.262,19.265c-1.806,0-3.411,0.201-5.218,0.201c-1.003,0-2.007-0.201-3.01-0.401    c-330.116-77.863-691.136-117.999-781.04-127.431c-11.639-1.204-20.269-11.639-19.064-23.279c21.473-236.6,5.82-483.233,0-559.893    C359.872,57.368,360.273,54.358,361.277,51.348z M1150.143,697.331c13.245-196.865,3.411-394.132-2.81-485.441    c-0.803-10.837-8.428-19.867-18.864-22.476C823.037,115.766,555.734,89.878,430.711,81.048    c-13.646-1.003-25.486,9.432-26.49,23.078c0,1.003,0,2.207,0,3.211c6.02,98.332,13.646,286.167,0,473.601    c-1.003,13.245,8.83,25.085,22.075,26.49c129.438,14.449,416.006,50.37,693.745,112.179c13.446,3.01,26.69-5.418,29.7-18.864    C1149.942,699.74,1150.143,698.535,1150.143,697.331z"/>
		<path style="fill:#FFFFFF;" d="M731.729,665.624c5.017-0.602,10.235-0.602,15.252-0.201c5.017,0.401,10.034,0.803,15.051,1.605    c5.017,0.803,9.833,1.806,14.85,3.01s9.833,2.81,14.449,4.816c2.609,1.204,3.612,4.014,2.609,6.622    c-0.803,1.605-2.207,2.81-4.014,3.01l0,0c-5.017,0.401-10.235,0.602-15.252,0.201c-5.017-0.401-10.034-1.003-15.051-1.605    c-5.017-0.602-9.833-1.806-14.85-3.01c-5.017-1.204-9.833-2.81-14.449-5.017l0,0c-2.408-1.003-3.411-3.813-2.408-6.422    C728.719,666.828,730.123,665.825,731.729,665.624L731.729,665.624z"/>
		<path style="fill:#10294C;" d="M1253.693,139.446c5.017,65.421,22.476,331.521,0.602,578.154    c-2.81,31.707-41.139,51.574-85.69,53.782c9.833-1.405,17.258-9.432,18.262-19.265c21.874-246.634,4.014-509.924-1.003-575.345    c-0.803-9.231-7.224-16.857-16.255-19.064C795.344,64.191,472.051,42.117,382.548,37.501c-9.432-0.401-17.86,5.218-21.272,13.847    c12.241-41.139,57.595-52.979,89.302-51.173c89.503,4.616,412.795,26.69,786.86,120.206    C1246.469,122.589,1253.091,130.214,1253.693,139.446z"/>
		<path style="fill:#10294C;" d="M1147.334,211.89c6.221,91.108,16.054,288.375,2.81,485.441    c-1.003,13.646-12.844,24.081-26.49,23.078c-1.204,0-2.408-0.201-3.612-0.602c-277.739-61.809-564.107-97.73-693.745-112.179    c-13.245-1.405-23.078-13.044-22.075-26.49c13.646-187.434,6.02-375.268,0-473.601c-0.803-13.646,9.633-25.486,23.279-26.289    c1.003,0,2.207,0,3.211,0c124.822,8.83,392.125,34.717,697.759,108.366C1138.905,192.224,1146.531,201.255,1147.334,211.89z"/>
		<path style="fill:#00AEE0;" d="M1197.102,151.486c2.007-3.01,4.415-5.619,7.224-7.626c2.81-2.007,5.619-3.813,8.83-5.218    c3.211-1.405,6.422-2.408,9.833-3.01c3.412-0.602,7.024-0.602,10.435,0c2.81,0.602,4.616,3.211,4.214,6.02    c-0.201,1.204-1.003,2.408-2.007,3.211l-0.401,0.201c-2.408,1.806-5.017,3.211-7.827,4.616c-2.609,1.405-5.218,2.609-7.826,3.612    c-2.609,1.003-5.418,2.207-8.228,3.211c-2.81,1.003-5.82,1.806-8.83,2.408l-0.602,0.201c-2.609,0.401-5.218-1.405-5.619-4.014    C1196.299,153.694,1196.5,152.49,1197.102,151.486L1197.102,151.486z"/>
	</g>
	<g>
		<g>
			<path style="fill:#00AEE0;" d="M401.054,683.34c-4.255-0.75-8.699-1.222-12.285-0.57c-5.328,0.967-7.834,4.222-10.22,6.116     c-4.784,3.827-9.75,7.631-14.629,11.442c-2.871,2.25-5.838,4.749-4.507,7.023c1.434,2.486,7.442,3.796,13.194,4.81     c0.34,0.06,0.679,0.119,1.016,0.177c10.08,1.736,20.175,3.474,30.279,5.206c4.164,0.718,8.76,1.445,13.446,0.864     c6.496-0.811,10.194-3.706,12.958-6.258c5.323-4.873,10.631-9.749,15.938-14.624c1.539-1.411,3.114-2.981,2.08-4.346     c-1.071-1.401-4.567-2.13-7.89-2.716c-0.147-0.026-0.292-0.051-0.438-0.077c-9.38-1.621-18.76-3.241-28.115-4.866     c-0.082-0.014-0.165-0.028-0.249-0.043c-1.388-0.245-3.031-0.598-4.792-0.979C405.027,684.11,403.062,683.694,401.054,683.34"/>
			<path style="fill:#00AEE0;" d="M500.397,700.857c-4.25-0.749-8.693-1.221-12.28-0.569c-5.328,0.967-7.85,4.219-10.22,6.116     c-4.8,3.825-9.75,7.631-14.629,11.442c-2.871,2.25-5.853,4.746-4.523,7.021c1.449,2.488,7.444,3.796,13.194,4.81     c0.34,0.06,0.678,0.119,1.015,0.177c10.095,1.738,20.191,3.477,30.295,5.209c4.164,0.718,8.76,1.445,13.43,0.861     c6.512-0.808,10.194-3.706,12.974-6.255c5.308-4.876,10.615-9.751,15.923-14.627c1.539-1.411,3.114-2.981,2.08-4.346     c-1.071-1.401-4.567-2.13-7.889-2.716c-0.147-0.026-0.292-0.051-0.438-0.077c-9.38-1.621-18.744-3.238-28.115-4.866     c-0.082-0.014-0.165-0.028-0.248-0.043c-1.386-0.244-3.016-0.595-4.792-0.979C504.365,701.626,502.402,701.211,500.397,700.857"/>
			<path style="fill:#00AEE0;" d="M599.729,718.372c-4.25-0.749-8.693-1.221-12.28-0.569c-5.328,0.967-7.834,4.222-10.22,6.116     c-4.784,3.827-9.75,7.631-14.629,11.442c-2.871,2.25-5.838,4.749-4.507,7.023c1.434,2.486,7.442,3.796,13.194,4.81     c0.34,0.06,0.679,0.119,1.016,0.177c10.08,1.736,20.175,3.474,30.279,5.206c4.164,0.718,8.76,1.445,13.446,0.864     c6.496-0.811,10.194-3.706,12.958-6.258c5.323-4.873,10.631-9.749,15.938-14.624c1.524-1.413,3.115-2.981,2.08-4.346     c-1.086-1.404-4.568-2.13-7.89-2.716c-0.147-0.026-0.292-0.051-0.438-0.077c-9.38-1.621-18.759-3.241-28.13-4.869     c-0.082-0.014-0.165-0.028-0.249-0.043c-1.386-0.244-3.016-0.595-4.792-0.979C603.697,719.141,601.734,718.726,599.729,718.372"/>
			<path style="fill:#00AEE0;" d="M699.077,735.89c-4.25-0.749-8.693-1.221-12.28-0.569c-5.328,0.967-7.85,4.219-10.22,6.116     c-4.8,3.825-9.75,7.631-14.629,11.442c-2.871,2.25-5.853,4.746-4.523,7.021c1.449,2.488,7.444,3.796,13.194,4.81     c0.34,0.06,0.678,0.119,1.016,0.177c10.095,1.738,20.191,3.477,30.279,5.206c4.164,0.718,8.775,1.447,13.446,0.864     c6.512-0.808,10.194-3.706,12.974-6.255c5.308-4.876,10.615-9.751,15.923-14.627c1.539-1.411,3.114-2.981,2.08-4.346     c-1.071-1.401-4.567-2.13-7.889-2.716c-0.147-0.026-0.292-0.051-0.438-0.077c-9.38-1.621-18.744-3.238-28.115-4.866     c-0.082-0.014-0.165-0.028-0.248-0.043c-1.386-0.244-3.016-0.595-4.792-0.979C703.045,736.659,701.082,736.243,699.077,735.89"/>
			<path style="fill:#00AEE0;" d="M798.409,753.405c-4.25-0.749-8.693-1.221-12.28-0.569c-5.328,0.967-7.834,4.222-10.22,6.116     c-4.784,3.827-9.75,7.631-14.629,11.442c-2.871,2.25-5.837,4.749-4.507,7.023c1.434,2.486,7.442,3.796,13.194,4.81     c0.34,0.06,0.679,0.119,1.016,0.177c10.08,1.736,20.175,3.474,30.279,5.206c4.164,0.718,8.76,1.445,13.446,0.864     c6.496-0.811,10.194-3.706,12.958-6.258c5.308-4.876,10.631-9.749,15.939-14.624c1.524-1.413,3.114-2.981,2.08-4.346     c-1.086-1.404-4.568-2.13-7.903-2.718c-0.147-0.026-0.294-0.052-0.44-0.077c-9.364-1.618-18.744-3.238-28.115-4.866     c-0.082-0.014-0.165-0.028-0.249-0.043c-1.386-0.244-3.016-0.595-4.792-0.979C802.377,754.174,800.414,753.758,798.409,753.405"/>
			<path style="fill:#00AEE0;" d="M897.757,770.922c-4.25-0.749-8.693-1.221-12.28-0.569c-5.328,0.967-7.85,4.219-10.22,6.116     c-4.8,3.825-9.766,7.628-14.629,11.442c-2.871,2.25-5.853,4.746-4.523,7.021c1.449,2.488,7.444,3.796,13.194,4.81     c0.34,0.06,0.678,0.119,1.016,0.177c10.095,1.738,20.191,3.477,30.279,5.206c4.164,0.718,8.775,1.447,13.446,0.864     c6.496-0.811,10.194-3.706,12.974-6.255c5.308-4.876,10.615-9.751,15.923-14.627c1.539-1.411,3.114-2.981,2.08-4.346     c-1.071-1.401-4.567-2.13-7.89-2.716c-0.147-0.026-0.292-0.051-0.438-0.077c-9.38-1.621-18.744-3.238-28.115-4.866     c-0.082-0.014-0.165-0.028-0.249-0.043c-1.386-0.244-3.016-0.595-4.792-0.979C901.725,771.691,899.762,771.276,897.757,770.922"/>
			<path style="fill:#00AEE0;" d="M997.089,788.437c-4.25-0.749-8.694-1.221-12.28-0.569c-5.328,0.967-7.834,4.222-10.22,6.116     c-4.784,3.827-9.75,7.631-14.629,11.442c-2.871,2.25-5.838,4.749-4.507,7.023c1.434,2.486,7.428,3.793,13.192,4.809     c0.341,0.06,0.68,0.119,1.018,0.177c10.08,1.736,20.175,3.474,30.279,5.206c4.164,0.718,8.76,1.445,13.446,0.864     c6.496-0.811,10.193-3.706,12.958-6.258c5.308-4.876,10.631-9.749,15.939-14.624c1.524-1.413,3.115-2.981,2.08-4.346     c-1.086-1.404-4.568-2.13-7.903-2.718c-0.147-0.026-0.293-0.052-0.44-0.077c-9.364-1.618-18.744-3.238-28.115-4.866     c-0.082-0.014-0.165-0.028-0.249-0.043c-1.386-0.244-3.016-0.595-4.792-0.979C1001.057,789.206,999.094,788.791,997.089,788.437"/>
			<path style="fill:#00AEE0;" d="M295.639,765.889c-4.25-0.749-8.693-1.221-12.28-0.57c-5.328,0.967-7.85,4.219-10.22,6.116     c-4.8,3.825-9.75,7.631-14.629,11.442c-2.871,2.25-5.846,4.756-4.531,7.027c1.457,2.482,7.452,3.789,13.202,4.803     c0.34,0.06,0.679,0.119,1.017,0.177c10.095,1.738,20.191,3.477,30.286,5.215c4.164,0.718,8.769,1.438,13.455,0.857     c6.496-0.811,10.178-3.709,12.958-6.258c5.308-4.876,10.615-9.751,15.93-14.618c1.533-1.42,3.123-2.988,2.08-4.346     c-1.078-1.41-4.56-2.137-7.895-2.725c-0.147-0.026-0.293-0.051-0.439-0.077c-9.364-1.618-18.744-3.238-28.115-4.866     c-0.082-0.014-0.165-0.028-0.249-0.043c-1.386-0.244-3.016-0.595-4.792-0.979C299.607,766.658,297.644,766.243,295.639,765.889"/>
			<path style="fill:#00AEE0;" d="M394.977,783.405c-4.254-0.75-8.694-1.221-12.27-0.568c-5.328,0.967-7.85,4.219-10.22,6.116     c-4.8,3.825-9.766,7.628-14.629,11.442c-2.887,2.247-5.862,4.753-4.532,7.027c1.457,2.482,7.452,3.789,13.202,4.803     c0.34,0.06,0.679,0.119,1.017,0.177c10.095,1.738,20.191,3.477,30.27,5.213c4.164,0.718,8.768,1.438,13.455,0.857     c6.496-0.811,10.194-3.706,12.974-6.255c5.308-4.876,10.615-9.751,15.914-14.62c1.548-1.417,3.123-2.988,2.08-4.346     c-1.063-1.407-4.558-2.136-7.881-2.722c-0.146-0.026-0.292-0.051-0.438-0.077c-9.38-1.621-18.759-3.241-28.115-4.866     c-0.082-0.014-0.165-0.028-0.249-0.043c-1.388-0.245-3.031-0.598-4.792-0.979C398.95,784.175,396.984,783.759,394.977,783.405"/>
			<path style="fill:#00AEE0;" d="M494.319,800.922c-4.25-0.749-8.693-1.221-12.28-0.57c-5.328,0.967-7.85,4.219-10.22,6.116     c-4.8,3.825-9.75,7.631-14.629,11.442c-2.871,2.25-5.846,4.756-4.532,7.027c1.457,2.482,7.452,3.789,13.202,4.803     c0.34,0.06,0.679,0.119,1.017,0.177c9.043,1.553,236.953,41.706,291.901,51.354c1.683,0.39,3.484,0.733,5.26,1.046     c0.29,0.051,0.579,0.101,0.867,0.151c10.095,1.738,20.175,3.474,30.27,5.213c4.164,0.718,8.768,1.438,13.455,0.857     c6.496-0.811,10.194-3.706,12.974-6.255c5.308-4.876,10.615-9.751,15.914-14.62c1.548-1.417,3.123-2.988,2.08-4.346     c-1.063-1.407-4.558-2.136-7.881-2.722c-0.146-0.026-0.292-0.051-0.437-0.077c-7.062-1.22-14.109-2.438-21.156-3.655     c-1.185-0.276-2.449-0.507-3.689-0.725c-0.731-0.121-3.118-0.542-6.887-1.206c-2.174-0.462-4.632-1.004-7.159-1.45     c-1.727-0.305-3.486-0.564-5.209-0.722c-65.484-11.522-274.006-48.265-282.042-49.657c-0.082-0.014-0.165-0.028-0.249-0.043     c-1.386-0.244-3.016-0.595-4.792-0.979C498.287,801.691,496.324,801.275,494.319,800.922"/>
			<path style="fill:#FFFFFF;" d="M389.844,862.061c-3.287-0.58-7.389-0.433-12.911,2.169c-8.173,3.846-18.021,12.392-24.819,17.638     c-13.678,10.569-27.499,21.128-41.248,31.693c-8.108,6.23-16.872,13.094-20.207,18.176c-3.634,5.536,0.426,6.968,4.86,7.75     c0.275,0.049,0.552,0.095,0.828,0.139c7.072,1.139,183.228,32.1,225.762,39.492c1.086,0.445,2.402,0.746,3.749,0.984     c0.245,0.043,0.49,0.084,0.735,0.124c7.882,1.273,15.78,2.549,23.671,3.816c3.257,0.524,6.991,0.95,13.607-1.797     c9.212-3.813,19.637-11.841,28.289-18.766c16.521-13.239,33.017-26.475,49.538-39.714c4.802-3.841,9.964-8.059,11.682-11.037     c1.741-3.029-0.626-3.793-3.161-4.24c-0.148-0.026-0.296-0.051-0.444-0.075c-5.496-0.911-10.985-1.812-16.49-2.716     c-0.618-0.266-1.382-0.44-2.174-0.58c-0.175-0.031-0.351-0.06-0.527-0.088c-0.566-0.1-2.412-0.417-5.342-0.925     c-1.502-0.492-3.166-1.09-5.118-1.434c-1.335-0.235-2.804-0.352-4.448-0.237c-50.649-8.856-211.812-37.198-218.079-38.228     c-0.044-0.007-0.088-0.015-0.132-0.022c-1.077-0.19-2.205-0.581-3.434-0.989C392.777,862.774,391.402,862.336,389.844,862.061"/>
			<path style="fill:#00AEE0;" d="M891.679,870.987c-4.25-0.749-8.693-1.221-12.28-0.57c-5.328,0.967-7.85,4.219-10.22,6.116     c-4.8,3.825-9.75,7.631-14.629,11.442c-2.871,2.25-5.846,4.756-4.532,7.027c1.457,2.482,7.452,3.789,13.202,4.803     c0.34,0.06,0.679,0.119,1.016,0.177c10.095,1.738,20.191,3.477,30.286,5.215c4.164,0.718,8.769,1.438,13.439,0.854     c6.512-0.808,10.194-3.706,12.974-6.255c5.308-4.876,10.615-9.751,15.914-14.62c1.548-1.417,3.123-2.988,2.08-4.346     c-1.063-1.408-4.558-2.136-7.881-2.722c-0.146-0.026-0.292-0.051-0.437-0.077c-9.38-1.621-18.744-3.238-28.115-4.866     c-0.082-0.014-0.165-0.028-0.249-0.043c-1.386-0.244-3.016-0.595-4.792-0.979C895.647,871.756,893.684,871.341,891.679,870.987"/>
			<path style="fill:#00AEE0;" d="M403.712,732.885c-4.246-0.749-8.681-1.216-12.253-0.567c-5.312,0.97-7.834,4.222-10.204,6.119     c-4.809,3.831-9.766,7.628-14.629,11.442c-2.887,2.247-5.862,4.753-4.523,7.021c1.449,2.488,7.444,3.796,13.194,4.81     c0.34,0.06,0.679,0.119,1.015,0.177c10.095,1.738,20.175,3.474,30.27,5.213c4.164,0.718,8.768,1.438,13.455,0.857     c6.496-0.811,10.194-3.706,12.974-6.255c5.308-4.876,10.615-9.751,15.923-14.627c1.539-1.41,3.114-2.981,2.071-4.339     c-1.063-1.408-4.558-2.136-7.881-2.722c-0.146-0.026-0.292-0.051-0.437-0.077c-9.38-1.621-18.759-3.241-28.124-4.859     c-0.074-0.013-0.148-0.026-0.224-0.039c-1.389-0.245-3.006-0.601-4.785-0.978C407.727,733.665,405.741,733.243,403.712,732.885"/>
			<path style="fill:#00AEE0;" d="M503.048,750.401c-4.241-0.748-8.669-1.214-12.241-0.565c-5.328,0.967-7.85,4.219-10.22,6.116     c-4.809,3.831-9.75,7.631-14.629,11.442c-2.871,2.25-5.846,4.756-4.523,7.021c1.449,2.488,7.444,3.796,13.194,4.81     c0.34,0.06,0.679,0.119,1.016,0.177c10.095,1.738,20.191,3.477,30.286,5.215c4.164,0.718,8.769,1.438,13.454,0.857     c6.496-0.811,10.178-3.709,12.958-6.258c5.308-4.876,10.615-9.751,15.923-14.627c1.539-1.41,3.114-2.981,2.087-4.336     c-1.078-1.41-4.56-2.137-7.895-2.725c-0.147-0.026-0.293-0.052-0.439-0.077c-9.364-1.618-18.744-3.238-28.124-4.859     c-0.074-0.013-0.149-0.026-0.224-0.039c-1.389-0.245-3.006-0.601-4.785-0.978C507.06,751.18,505.075,750.758,503.048,750.401"/>
			<path style="fill:#00AEE0;" d="M602.393,767.918c-4.246-0.749-8.681-1.216-12.253-0.567c-5.312,0.97-7.834,4.222-10.22,6.116     c-4.793,3.834-9.75,7.631-14.613,11.444c-2.887,2.247-5.862,4.753-4.523,7.021c1.449,2.488,7.444,3.796,13.194,4.81     c0.34,0.06,0.679,0.119,1.016,0.177c10.095,1.738,20.175,3.474,30.27,5.213c4.164,0.718,8.768,1.438,13.455,0.857     c6.496-0.811,10.194-3.706,12.974-6.255c5.308-4.876,10.615-9.751,15.923-14.627c1.539-1.41,3.114-2.981,2.071-4.339     c-1.063-1.408-4.558-2.136-7.881-2.722c-0.146-0.026-0.292-0.051-0.438-0.077c-9.38-1.621-18.759-3.241-28.124-4.859     c-0.074-0.013-0.148-0.026-0.224-0.039c-1.389-0.245-3.005-0.601-4.785-0.978C606.407,768.698,604.421,768.276,602.393,767.918"/>
			<path style="fill:#00AEE0;" d="M701.728,785.434c-4.241-0.748-8.669-1.214-12.241-0.565c-5.328,0.967-7.85,4.219-10.22,6.116     c-4.809,3.831-9.75,7.631-14.629,11.442c-2.871,2.25-5.846,4.756-4.523,7.021c1.449,2.488,7.444,3.796,13.194,4.81     c0.34,0.06,0.679,0.119,1.016,0.177c10.095,1.738,20.19,3.477,30.286,5.215c4.164,0.718,8.769,1.438,13.439,0.854     c6.512-0.808,10.194-3.706,12.973-6.255c5.308-4.876,10.615-9.751,15.923-14.627c1.539-1.41,3.114-2.981,2.071-4.339     c-1.063-1.408-4.544-2.134-7.879-2.722c-0.147-0.026-0.293-0.052-0.439-0.077c-9.38-1.621-18.744-3.238-28.124-4.859     c-0.074-0.013-0.149-0.026-0.224-0.039c-1.389-0.245-3.006-0.601-4.785-0.978C705.74,786.213,703.755,785.791,701.728,785.434"/>
			<path style="fill:#00AEE0;" d="M801.072,802.951c-4.246-0.749-8.681-1.216-12.253-0.567c-5.312,0.97-7.834,4.222-10.22,6.116     c-4.793,3.834-9.75,7.631-14.613,11.444c-2.887,2.247-5.862,4.753-4.523,7.021c1.434,2.486,7.442,3.796,13.194,4.81     c0.34,0.06,0.679,0.119,1.016,0.177c10.095,1.738,20.175,3.474,30.27,5.213c4.164,0.718,8.768,1.438,13.455,0.857     c6.496-0.811,10.194-3.706,12.973-6.255c5.308-4.876,10.615-9.751,15.923-14.627c1.539-1.41,3.114-2.981,2.071-4.339     c-1.063-1.408-4.558-2.136-7.881-2.722c-0.146-0.026-0.292-0.051-0.437-0.077c-9.38-1.621-18.76-3.241-28.124-4.859     c-0.074-0.013-0.149-0.026-0.224-0.039c-1.389-0.245-3.005-0.601-4.785-0.978C805.087,803.73,803.102,803.308,801.072,802.951"/>
			<path style="fill:#00AEE0;" d="M900.408,820.466c-4.241-0.748-8.669-1.214-12.241-0.565c-5.328,0.967-7.85,4.219-10.22,6.116     c-4.809,3.831-9.75,7.631-14.629,11.442c-2.871,2.25-5.862,4.753-4.523,7.021c1.449,2.488,7.444,3.796,13.194,4.81     c0.34,0.06,0.679,0.119,1.016,0.177c10.095,1.738,20.191,3.477,30.286,5.215c4.164,0.718,8.768,1.438,13.439,0.854     c6.512-0.808,10.194-3.706,12.974-6.255c5.308-4.876,10.615-9.751,15.923-14.627c1.539-1.41,3.114-2.981,2.071-4.339     c-1.063-1.408-4.558-2.136-7.881-2.722c-0.146-0.026-0.292-0.051-0.437-0.077c-9.38-1.621-18.744-3.238-28.123-4.859     c-0.074-0.013-0.149-0.026-0.224-0.039c-1.389-0.245-3.005-0.601-4.785-0.978C904.42,821.245,902.435,820.824,900.408,820.466"/>
			<path style="fill:#00AEE0;" d="M999.753,837.983c-4.246-0.749-8.681-1.216-12.253-0.567c-5.312,0.97-7.834,4.222-10.22,6.116     c-4.793,3.834-9.75,7.631-14.629,11.442c-2.871,2.25-5.846,4.756-4.507,7.023c1.434,2.486,7.442,3.796,13.194,4.81     c0.34,0.06,0.679,0.119,1.016,0.177c10.08,1.736,20.175,3.474,30.27,5.213c4.164,0.718,8.768,1.438,13.455,0.857     c6.496-0.811,10.194-3.706,12.958-6.258c5.323-4.873,10.631-9.749,15.939-14.624c1.539-1.41,3.114-2.981,2.071-4.339     c-1.063-1.408-4.558-2.136-7.881-2.722c-0.146-0.026-0.292-0.051-0.437-0.077c-9.38-1.621-18.76-3.241-28.124-4.859     c-0.074-0.013-0.149-0.026-0.224-0.039c-1.389-0.245-3.006-0.601-4.785-0.978C1003.767,838.763,1001.781,838.341,999.753,837.983     "/>
		</g>
	</g>
</g>
</svg></g><!--ITEM: Illustration component 2--><g transform="translate(723.0 246.0) rotate(0.0 363.5 655.0) translate(0.0 0.0) scale(1.0315559052787058 1.031292386805938)"><svg width="704.76064" height="810.6333477251908" viewBox="0.0 0.0 704.76064 810.6333477251908"><g>
    <path d="M214.81117,580.05062c-34.92261,0-65.27978-11.91455-87.78931-34.45655C78.86513,497.36946,78.98109,415.29573,79.037,375.85286l.00317-3.34424h76l-.00317,3.45166c-.03833,26.93311-.12744,90.00489,25.76294,115.93213,5.21191,5.21924,14.4082,12.15821,34.01123,12.15821,27.99365,0,41.87671-21.34375,64.28027-72.40186,8.02393-18.28613,15.60279-35.5581,25.86524-50.07373,20.26269-28.65967,44.10986-34.67578,60.54712-34.67578v76a9.27947,9.27947,0,0,0,4.84546-1.40088c-5.72364,4.36279-15.70118,27.102-21.66285,40.688-10.41821,23.74316-22.22656,50.6543-40.83593,73.05859C283.15468,564.97591,251.8517,580.05062,214.81117,580.05062Z" style="         fill: #00aee0;       "/>
    <ellipse cx="117.03658" cy="372.50862" rx="38.0036" ry="10.55032" style="         fill: #04294f;       "/>
    <path d="M144.95818,374.65891a1.9962,1.9962,0,0,1-1.44589,1.98284c-5.00507,1.4281-12.53035,2.43915-21.19477,2.72893H111.75746c-13.16016-.45-23.7002-2.54-26.76025-5.24l.87988-3.88012,13.98047-61.65991,30.11963-2.02c4.57031,9.85009,12.82031,35.26,14.68017,62.1499Q144.86031,371.68262,144.95818,374.65891Z" style="         fill: #ffb400;       "/>
    <g>
      <path d="M130.77124,300.954a28.39285,28.39285,0,0,0-1.79386-6.3859c-2.51-6.04459-6.84215-11.02444-10.24576-16.56935s-5.941-12.31153-4.23587-18.65589c1.76507-6.56906,7.81179-11.669,7.90573-18.49209.10338-7.53845-7.86843-13.14331-15.0349-12.37809-7.166.76546-13.15323,6.144-17.46226,12.18573A59.01372,59.01372,0,0,0,79.3651,272.276a1.91993,1.91993,0,0,1-2.1661,1.80335c-19.08562-2.31309-39.71023-1.72218-55.81394,5.47273-6.9309,3.09677-13.06448,8.307-15.33749,15.03938-2.273,6.73216.1369,14.96526,6.71422,18.64975C4.86882,316.09843-.52409,323.893.04051,331.62735.6051,339.362,7.08329,346.434,15.32182,348.30952c-5.916,4.57883-7.90525,12.89784-4.61777,19.31112,3.287,6.41328,11.55811,10.34868,19.19948,9.13523-2.44437,3.93044-2.38206,8.33837-1.10606,10.95717,2.93627,6.02783,9.0486,6.77724,16.28352,7.24955,14.27628.9321,25.08522-6.08118,37.92264-12.50013s41.186-26.76319,45.43135-39.00509C131.63135,334.2393,133.89539,314.29466,130.77124,300.954Z" style="         fill: #ffb400;       "/>
      <path d="M56.14821,283.387c-.08008-.22266.13769-.52881.68994-.92065a6.64717,6.64717,0,0,1,2.749-.92261,10.62823,10.62823,0,0,1,4.64209.49145,13.89839,13.89839,0,0,1,5.33887,3.2815,13.62344,13.62344,0,0,1,2.30273,2.998,13.96255,13.96255,0,0,1,1.48487,3.87085,17.47467,17.47467,0,0,1-.36524,8.84619,21.1671,21.1671,0,0,1-4.76611,8.36279,26.879,26.879,0,0,1-8.11572,5.8689,39.05852,39.05852,0,0,1-9.13623,3.00488,54.0547,54.0547,0,0,1-8.63623,1.04126,73.99587,73.99587,0,0,1-14.36524-.87549,68.83576,68.83576,0,0,1-9.33056-2.05249c-2.1626-.6731-3.32276-1.27686-3.26563-1.74609.05762-.47242,1.33447-.7649,3.5835-.90943,2.248-.14844,5.46826-.13427,9.38672-.13574a127.26664,127.26664,0,0,0,13.51464-.59351,48.08735,48.08735,0,0,0,15.26319-3.92114,22.2705,22.2705,0,0,0,6.23047-4.32593,16.078,16.078,0,0,0,3.61425-5.66894,12.66424,12.66424,0,0,0,.78467-5.8667,9.48419,9.48419,0,0,0-.62158-2.52466,9.66275,9.66275,0,0,0-1.19043-2.1416,11.78321,11.78321,0,0,0-3.25342-2.99463,11.1279,11.1279,0,0,0-3.19433-1.33691,23.15194,23.15194,0,0,0-2.3208-.406C56.60084,283.74441,56.22877,283.60965,56.14821,283.387Z" style="         fill: #f04e23;       "/>
      <path d="M68.57692,313.05789c-.05518-.23.24023-.51856.92529-.86255a8.00942,8.00942,0,0,1,1.3335-.41235,9.34547,9.34547,0,0,1,1.91357-.12329,11.77861,11.77861,0,0,1,5.09717,1.43408,14.66937,14.66937,0,0,1,5.27588,4.78052,14.88473,14.88473,0,0,1,1.84961,3.90429,17.19,17.19,0,0,1,.66992,4.56763,20.28627,20.28627,0,0,1-2.4209,9.61865,25.00281,25.00281,0,0,1-6.96826,8.19727,37.74405,37.74405,0,0,1-9.73975,5.31738,67.6707,67.6707,0,0,1-10.248,2.94067,79.33522,79.33522,0,0,1-9.74658,1.4021,73.0868,73.0868,0,0,1-16.56495-.56518c-1.16552-.16382-2.26513-.397-3.30517-.58789-1.03613-.22217-2.00684-.46094-2.91113-.68164a43.10667,43.10667,0,0,1-4.55274-1.46778,15.49582,15.49582,0,0,1-2.748-1.31689c-.60156-.38233-.88379-.69238-.82177-.92114.062-.229.46484-.36621,1.167-.41968a29.16572,29.16572,0,0,1,2.97558.04541c1.25977.07886,2.80079.17529,4.58936.28735.8877.043,1.8374.08911,2.84375.13794,1.00781.01587,2.06445.08032,3.17725.08374a103.16245,103.16245,0,0,0,15.48193-.8894c2.87939-.40308,5.87842-.94678,8.9458-1.67554a74.803,74.803,0,0,0,9.26172-2.78882,34.559,34.559,0,0,0,8.13476-4.2688,19.97315,19.97315,0,0,0,5.4917-5.89673,15.57707,15.57707,0,0,0,2.26368-6.71,12.92837,12.92837,0,0,0-.12305-3.14038,10.90548,10.90548,0,0,0-.88233-2.69824,12.17175,12.17175,0,0,0-3.1875-4.0332,11.93827,11.93827,0,0,0-3.47314-2.02271c-.52783-.229-1.02148-.31616-1.46-.46655-.437-.07593-.82617-.1897-1.148-.25684C69.03249,313.45559,68.63209,313.28787,68.57692,313.05789Z" style="         fill: #f04e23;       "/>
      <path d="M31.63844,376.90652c.02344-.47583,1.10156-.86841,3.01807-1.19678,1.91553-.33129,4.66943-.58911,8.01269-.9104,3.33985-.33227,7.27539-.72045,11.48487-1.53418a50.58385,50.58385,0,0,0,12.93847-4.19653,33.95115,33.95115,0,0,0,5.79444-3.60571,25.70966,25.70966,0,0,0,4.38086-4.35327,20.43354,20.43354,0,0,0,4.05371-9.45874,18.76182,18.76182,0,0,0,.1914-4.07032c-.0039-.61621-.12255-1.16723-.15429-1.707-.08741-.53149-.16748-1.01709-.23975-1.45385-.19433-.87012-.31933-1.59717-.40478-2.11109-.06348-.52612-.01075-.88135.18408-1.01587.19531-.13476.52588-.0415.99267.28638a7.37237,7.37237,0,0,1,1.67334,1.75708c.28907.43579.58985.94067.90381,1.50879a16.62318,16.62318,0,0,1,.8042,1.94556,17.2122,17.2122,0,0,1,.90235,5.08471,22.23486,22.23486,0,0,1-3.73,12.87866,28.14138,28.14138,0,0,1-5.29834,5.92115,34.92969,34.92969,0,0,1-6.999,4.5476,45.39676,45.39676,0,0,1-15.043,4.30127,63.19267,63.19267,0,0,1-12.41406.13355,51.44839,51.44839,0,0,1-8.14844-1.27588C32.6443,377.888,31.615,377.3782,31.63844,376.90652Z" style="         fill: #f04e23;       "/>
      <path d="M82.09059,365.76c-.05029-.16138.14844-.41577.666-.66675a4.40732,4.40732,0,0,1,2.48828-.262,7.27213,7.27213,0,0,1,3.60254,1.75,8.94,8.94,0,0,1,2.79736,4.6145,12.24365,12.24365,0,0,1-.21,6.41748,15.19538,15.19538,0,0,1-1.3916,3.26831,17.12728,17.12728,0,0,1-2.231,2.99756,26.0679,26.0679,0,0,1-6.02637,4.64136,63.456,63.456,0,0,1-6.94091,3.44213,64.47981,64.47981,0,0,1-7.29444,2.56666,62.39114,62.39114,0,0,1-7.03027,1.53125,59.83563,59.83563,0,0,1-6.46143.67089c-1.01611.03955-1.998.0459-2.939.06079q-1.41138-.04687-2.70655-.0896c-1.7207-.123-3.26855-.27734-4.61669-.50952a32.42286,32.42286,0,0,1-3.42432-.72656c-1.85108-.54687-2.82422-1.03662-2.76807-1.38379.05664-.355,1.13184-.53662,2.99317-.60937.936-.083,2.06347-.06641,3.37207-.15625,1.30566-.04493,2.78515-.14893,4.41162-.25782q1.21581-.11425,2.54541-.23877,1.31909-.16552,2.7417-.344c1.88623-.28711,3.89355-.60889,5.977-1.08252,2.09228-.42847,4.24707-1.04639,6.46875-1.70434,2.20068-.72608,4.47412-1.49683,6.72851-2.47486,2.25684-.95337,4.437-2.002,6.45508-3.08667a24.03918,24.03918,0,0,0,5.11817-3.56665,12.05551,12.05551,0,0,0,2.96777-4.30591,9.25011,9.25011,0,0,0,.68262-4.374,6.62653,6.62653,0,0,0-3.39942-5.12988,6.89861,6.89861,0,0,0-1.772-.62915C82.44069,366.02371,82.14381,365.937,82.09059,365.76Z" style="         fill: #f04e23;       "/>
      <path d="M13.156,303.75345a1.21239,1.21239,0,0,1-1.14258-.21289,2.69242,2.69242,0,0,1-.64258-.5857,4.615,4.615,0,0,1-.60888-.90893,7.75652,7.75652,0,0,1-.8125-2.67676,9.37236,9.37236,0,0,1-.04932-1.65479,9.63619,9.63619,0,0,1,.80908-3.44946,9.43561,9.43561,0,0,1,.78028-1.46,7.7537,7.7537,0,0,1,1.91845-2.03613,4.62274,4.62274,0,0,1,.94922-.54322,2.70455,2.70455,0,0,1,.83643-.23877,1.213,1.213,0,0,1,1.11816.31763,1.52239,1.52239,0,0,1,.28467,1.116c-.0166.22412-.05615.46728-.10156.73681-.04785.26709-.13233.53-.19873.83277-.15674.54785-.34278,1.19726-.54932,1.91772-.0835.353-.21.7002-.2915,1.07764-.09473.36963-.19336.7522-.29395,1.1438-.084.39575-.166.782-.2456,1.15527-.09473.37427-.13575.74146-.21827,1.095-.13525.73706-.25781,1.40113-.36084,1.96167-.07519.30078-.11621.574-.19238.83423-.07959.26172-.15185.49707-.23681.70508A1.52273,1.52273,0,0,1,13.156,303.75345Z" style="         fill: #f04e23;       "/>
      <path d="M8.79811,338.74563a1.18734,1.18734,0,0,1-1.21387.14014,4.52593,4.52593,0,0,1-1.8457-1.26123,8.00536,8.00536,0,0,1-1.688-2.834,9.42449,9.42449,0,0,1,.83936-8.02442,8.00674,8.00674,0,0,1,2.23828-2.42334,4.52777,4.52777,0,0,1,2.06689-.85181,1.18683,1.18683,0,0,1,1.15821.38843c.3999.60645-.00977,1.59961-.47022,2.84815a15.08281,15.08281,0,0,0-.95557,9.13427C9.11989,337.17874,9.31471,338.23489,8.79811,338.74563Z" style="         fill: #f04e23;       "/>
      <path d="M22.50465,369.45535a1.20179,1.20179,0,0,1-1.02.49731,2.3201,2.3201,0,0,1-.81933-.10253,3.867,3.867,0,0,1-.95752-.39893,6.41243,6.41243,0,0,1-1.97022-1.772,7.80685,7.80685,0,0,1-.79736-1.3479,7.97179,7.97179,0,0,1-.78418-3.25049,7.77763,7.77763,0,0,1,.09522-1.56323,6.41182,6.41182,0,0,1,.9458-2.47535,3.88119,3.88119,0,0,1,.66992-.79174,2.32566,2.32566,0,0,1,.6831-.4646,1.20051,1.20051,0,0,1,1.13428-.02246,1.67286,1.67286,0,0,1,.66846.90161c.06933.19482.127.40869.19385.64428.063.2334.09033.46778.15527.72925.084.471.18408,1.02857.29443,1.64722.07276.29346.10059.59473.1836.90356.0664.30689.13476.62452.20507.95.08594.32154.16993.6355.251.939.06641.31274.1792.59351.248.88794.18359.60083.34912,1.14282.48877,1.60034.06152.26221.144.48316.19433.71973.04834.24.09424.45678.12159.66186A1.67279,1.67279,0,0,1,22.50465,369.45535Z" style="         fill: #f04e23;       "/>
      <path d="M40.06764,390.752a1.82218,1.82218,0,0,1-2.00488.947,4.68326,4.68326,0,0,1-3.71533-5.53491,1.82225,1.82225,0,0,1,1.63574-1.49707,3.31012,3.31012,0,0,1,1.92724.73535,5.38691,5.38691,0,0,1,2.207,3.2876A3.30841,3.30841,0,0,1,40.06764,390.752Z" style="         fill: #f04e23;       "/>
      <path d="M50.80267,292.71738a5.30906,5.30906,0,0,1,7.01739-.23249,5.61156,5.61156,0,0,1,.959,7.03278C54.625,306.00077,45.79324,297.83649,50.80267,292.71738Z" style="         fill: #f04e23;       "/>
      <path d="M61.34205,327.4887a4.53138,4.53138,0,0,1,5.06971-3.95336,5.43451,5.43451,0,0,1,3.96794,3.69981,4.98073,4.98073,0,0,1-.49925,4.8893C66.65373,336.05224,61.14629,330.76879,61.34205,327.4887Z" style="         fill: #f04e23;       "/>
      <path d="M68.13741,356.925a6.21519,6.21519,0,0,1,1.27956-3.57335,4.97942,4.97942,0,0,1,3.0178-2.21343,3.78213,3.78213,0,0,1,4.07563,2.82623,4.99936,4.99936,0,0,1-1.72753,4.87791C72.31848,360.93788,68.182,361.10011,68.13741,356.925Z" style="         fill: #f04e23;       "/>
      <path d="M78.40823,375.29662a3.47629,3.47629,0,0,1,2.80721-2.4221,2.95509,2.95509,0,0,1,3.08718,1.89582,3.26564,3.26564,0,0,1-.35562,2.61246c-.73006,1.2552-2.68717,2.42343-4.189,1.96325C78.27282,378.89095,78.00087,376.61675,78.40823,375.29662Z" style="         fill: #f04e23;       "/>
      <path d="M104.05592,310.94974c-.02148.17651-.1958.32617-.51611.44848a4.86726,4.86726,0,0,1-1.38574.26441,16.19514,16.19514,0,0,1-5.00977-.54761,24.48413,24.48413,0,0,1-6.93359-2.97632,26.34766,26.34766,0,0,1-3.61524-2.69336,25.97985,25.97985,0,0,1-5.95312-7.64844,26.38466,26.38466,0,0,1-1.72315-4.166,24.4709,24.4709,0,0,1-1.1831-7.45191,16.197,16.197,0,0,1,.69922-4.991,4.85338,4.85338,0,0,1,.59668-1.27832c.19677-.28052.38476-.4126.561-.39014s.3335.198.47119.50391a7.62273,7.62273,0,0,1,.373,1.2893c.23,1.09473.49512,2.63745.92139,4.47461a36.48773,36.48773,0,0,0,2.0166,6.20386,31.41517,31.41517,0,0,0,1.70019,3.39062,28.65043,28.65043,0,0,0,4.94971,6.35913,31.40333,31.40333,0,0,0,2.86914,2.48072,36.51649,36.51649,0,0,0,5.51856,3.47778c1.67675.86426,3.10693,1.5,4.11181,1.9917a7.67454,7.67454,0,0,1,1.15821.67822C103.94557,310.57815,104.07741,310.77322,104.05592,310.94974Z" style="         fill: #f04e23;       "/>
      <path d="M113.34264,242.41078c.9923-1.34407,2.648-2.43568,4.29815-2.0704,1.82539.40406,2.85154,2.50584,2.57285,4.32122a8.18227,8.18227,0,0,1-2.9124,4.5822,6.77673,6.77673,0,0,1-2.16288,1.428C109.87592,252.57809,111.85738,244.42256,113.34264,242.41078Z" style="         fill: #f04e23;       "/>
      <path d="M111.99928,260.95022c.1626.68335-.25928,1.46656-1.23291,2.04712a6.69179,6.69179,0,0,1-7.78467-1.24194,2.00994,2.00994,0,0,1-.53515-2.3291,2.64,2.64,0,0,1,2.0376-.99048,12.72,12.72,0,0,1,5.88671.93921A2.63924,2.63924,0,0,1,111.99928,260.95022Z" style="         fill: #f04e23;       "/>
      <path d="M100.49,369.45022c-.36376-.63232,1.89112-2.5542,5.55518-5.30932,3.61182-2.78784,8.6709-6.45557,12.396-11.77051a23.75725,23.75725,0,0,0,3.73486-8.041,19.79245,19.79245,0,0,0,.332-7.2,22.06749,22.06749,0,0,0-.59619-2.77783c-.23779-.8125-.48975-1.511-.70068-2.09814-.4336-1.16553-.70362-1.88794-.42676-2.14454.24023-.22778,1.0293.04078,2.08008,1.009a11.23489,11.23489,0,0,1,1.65039,1.999,15.37447,15.37447,0,0,1,1.52246,3.10669,18.909,18.909,0,0,1,.80713,8.97119,23.96662,23.96662,0,0,1-4.1792,10.12671,33.28825,33.28825,0,0,1-7.48487,7.57642,45.71181,45.71181,0,0,1-7.23339,4.35083C103.66139,369.28885,100.83522,370.05057,100.49,369.45022Z" style="         fill: #f04e23;       "/>
      <path d="M130.51588,320.56228c.354-.03418.72022.3125,1.08057.99024a6.69564,6.69564,0,0,1,.5083,1.25659,12.97155,12.97155,0,0,1,.41943,1.70581,22.78613,22.78613,0,0,1,.34864,4.52661c-.03125.85327-.062,1.75488-.18555,2.67774-.09668.92749-.27148,1.87719-.46436,2.84643-.22509.96265-.459,1.89942-.75439,2.78394-.269.89135-.61377,1.7251-.93848,2.51465a22.75082,22.75082,0,0,1-2.189,3.97754,12.968,12.968,0,0,1-1.0874,1.37939,6.67957,6.67957,0,0,1-.98291.93408c-.60791.46778-1.085.63208-1.39307.45459s-.4209-.67724-.37012-1.4104c.02832-.36523.09278-.79126.17432-1.2771.08447-.48389.22021-1.01025.34668-1.59814.28808-1.1416.63135-2.49878,1.01221-4.00562.17285-.75024.39257-1.52295.56836-2.33691.18652-.80957.37988-1.64771.57763-2.50611.17481-.86328.34571-1.70629.51074-2.5205.17627-.814.2959-1.60816.44825-2.3628.27636-1.52929.52539-2.907.73486-4.06567.12842-.5874.22217-1.1228.3457-1.59839.12647-.47607.24366-.89062.36914-1.23486C129.85231,321.00491,130.16188,320.59622,130.51588,320.56228Z" style="         fill: #f04e23;       "/>
    </g>
    <path d="M148.03541,402.76321c.18213.43823-.49462,1.18433-1.90673,2.17017a19.50564,19.50564,0,0,1-2.67285,1.58178,37.08681,37.08681,0,0,1-3.72315,1.707q-1.06275.41052-2.22461.85888c-.77881.28809-1.606.52539-2.45849.79566-1.70167.56054-3.56348.98755-5.52637,1.44287-.98194.22436-2.002.37646-3.04.5647q-.78.13219-1.57666.2666-.80127.09558-1.61817.19262c-2.17578.29224-4.4458.41089-6.77.52124-2.32764.01734-4.60059.0232-6.78907-.14941q-.82031-.05236-1.626-.10352-.80274-.09081-1.58887-.17993c-1.04688-.1311-2.07373-.22705-3.0669-.39721-1.98486-.34717-3.86669-.67139-5.59668-1.13794-.86621-.22315-1.70507-.41455-2.49853-.65992q-1.18286-.38341-2.26856-.73559a37.05812,37.05812,0,0,1-3.811-1.50049,19.48153,19.48153,0,0,1-2.75537-1.43286c-1.46387-.907-2.18018-1.615-2.02295-2.06226s1.16992-.594,2.833-.48632c.8291.06274,1.82617.1748,2.98193.28271,1.15283.11621,2.43555.333,3.87207.46655q1.06715.13112,2.2334.27417c.77393.09839,1.5874.15039,2.41992.24243,1.66358.20411,3.45215.29932,5.32031.4585.93457.07617,1.89844.08838,2.87647.147q.73461.03956,1.4834.07959.75.01026,1.51465.02075c2.03564.07422,4.14209.01832,6.30029.00562,2.15527-.10547,4.26172-.16528,6.29053-.35083q.76245-.05237,1.51123-.10376.74561-.0813,1.47656-.16064c.97363-.11231,1.93506-.17725,2.86426-.30445,1.85644-.26123,3.6372-.45459,5.28711-.74951.82617-.13745,1.63574-.23389,2.40332-.37451q1.155-.20655,2.21484-.396c1.42676-.21216,2.6958-.499,3.84033-.67846,1.14844-.1709,2.1377-.33741,2.96192-.44556C146.83473,402.23416,147.85377,402.32522,148.03541,402.76321Z" style="         fill: #04294f;       "/>
    <path d="M146.64967,399.37356c-1.88525.21143-3.73242-2.46118-4.126-5.96948s.81591-6.52368,2.70166-6.73511c1.88525-.21142,3.73242,2.46119,4.126,5.96949S148.53541,399.16214,146.64967,399.37356Z" style="         fill: #04294f;       "/>
    <path d="M500.31386,1174.698c-15.58856,12.86048-17.95178,19.80684-34.03845,32.02979-14.97725,11.38-25.42942,16.5002-28.90216,36.58284-1.1249,6.50523.22944,13.80339,5.04057,18.32406,3.5795,3.3634,8.52756,4.77684,13.30512,5.91711,13.33381,3.1824,26.50016,4.39975,39.33053-1.15446,5.20372-2.25267,10.33971-4.67788,15.50581-7.01512,17.126-7.74814,13.252-4.49627,30.37807-12.2444l15.94389-7.21332a25.14845,25.14845,0,0,0,14.7512-24.16384l-2.04557-41.06312Z" style="         fill: #00aee0;                fill-rule: evenodd;       "/>
    <path d="M349.54915,1121.345c-15.58856,12.86048-17.95178,19.80684-34.03845,32.02979-14.97724,11.38-25.42941,16.5002-28.90216,36.58284-1.1249,6.50523.22944,13.80339,5.04057,18.32406,3.5795,3.36339,8.52756,4.77684,13.30513,5.91711,13.3338,3.1824,26.50015,4.39975,39.33053-1.15446,5.20372-2.25267,10.3397-4.67788,15.50581-7.01512,17.126-7.74814,13.252-4.49627,30.37806-12.2444l15.94389-7.21332a25.14845,25.14845,0,0,0,14.7512-24.16384l-2.04556-41.06312Z" style="         fill: #00aee0;                fill-rule: evenodd;       "/>
    <ellipse cx="374.50685" cy="1132.87399" rx="49.50531" ry="14.82353" style="         fill: #04294f;       "/>
    <ellipse cx="527.06643" cy="1182.28576" rx="49.50531" ry="14.82353" style="         fill: #04294f;       "/>
    <path d="M325.00141,707.22708c-4.07519,149.7229-4.58642,292.58813,0,425.647h99.01074V816.16043a74.94589,74.94589,0,0,1,37.4834,7.96191A93.0382,93.0382,0,0,1,477.561,834.38553v347.90014h99.01075c6.042-147.23657,5.35253-306.85815,0-475.05859Z" style="         fill: #04294f;       "/>
    <path d="M637.7509,742.60765c4.34878-1.77765,9.31667-3.55421,13.58575-1.59287,3.91167,1.79713,5.96532,6.44381,5.65367,10.73727s-2.59427,8.223-5.39883,11.48875c-9.837,11.45472-25.83071,15.83708-40.92955,15.88324-4.54731.01391-9.23351-.34442-13.3092-2.36109s-7.43649-6.01862-7.52479-10.56531c-.17913-9.23824,12.2824-9.02075,18.52257-11.572Q623.05034,748.61572,637.7509,742.60765Z" style="         fill: #ffb400;                fill-rule: evenodd;       "/>
    <path d="M612.99444,725.60752c3.70257-2.11286,7.98866-4.11946,12.08214-2.92923,4.45644,1.29576,7.13884,6.21845,7.05983,10.85878s-2.37415,8.96607-5.12751,12.70209A50.95919,50.95919,0,0,1,606.77,762.49556c-4.29329,1.90557-8.99241,3.22331-13.66072,2.70321-4.66812-.52007-9.28785-3.15272-11.24553-7.42226-3.56142-7.76713,2.96418-11.63628,7.97159-15.71588A170.94868,170.94868,0,0,1,612.99444,725.60752Z" style="         fill: #ffb400;                fill-rule: evenodd;       "/>
    <path d="M318.82258,672.93282c.87921,31-1.47373,54.64244,26.291,86.17185s66.82353-6.52322,66.82353-6.52322,38.32386,37.32108,75.54356,38.4494c39.10205,0,111.28-21.68627,100.15217-120.03145C504.45738,701.66154,318.82258,672.93282,318.82258,672.93282Z" style="         fill: #00aee0;                fill-rule: evenodd;       "/>
    <path d="M577.11232,731.22879c-67.75976,53.6499-193.40966,16.23-225.18017,0-31.75977-16.24-33.16992-38.83008-33.50977-75.53-.33008-36.71-4.6001-165.13013-4.6001-208.93994,0-67.40015,6.8003-97.88013,65.34034-101.74024,1.05957-.06982,2.12988-.12988,3.21972-.18994,15.37012-.74,34.16016.24,57.08008,2.75,37.99024,4.16992,65.54981,10.52,85.54981,19.84009a109.24946,109.24946,0,0,1,10.36035,5.5c42.43994,25.6499,42.43994,70,42.43994,144.42993C577.81252,602.05862,603.93215,710.04861,577.11232,731.22879Z" style="         fill: #00aee0;                fill-rule: evenodd;       "/>
    <path d="M525.01223,367.41873c-.04981.09985-.09961.2-.15967.3-4.11035,7.41992-10.6001,12.97-16.81006,18.52978a469.74575,469.74575,0,0,0-71.3501,80.65015q-3.79467,5.41517-7.43017,10.92993-1.69483,2.5503-3.33985,5.13013c-2.56982,4.01-6.12988,8.58984-10.68017,7.85986-3.61963-.58984-5.87989-4.33984-7.65967-7.73-3.81006-7.28-7.62012-14.59985-11.23-22.02-7.62012-15.65991-14.33008-31.76-18.2002-48.82983-5.06982-22.3-4.81982-46.77,4.23-67.41016,15.37012-.74,34.16016.24,57.08008,2.75C477.45266,351.74856,505.01223,358.09866,525.01223,367.41873Z" style="         fill-rule: evenodd;                fill: #fff;       "/>
    <path d="M531.80163,741.663c4.77062,25.642,24.7095,48.86384,50.05067,55.93983,18.24507,5.09447,37.98472,3.36044,56.0938-1.44249,9.06161-2.40335,47.06777-12.27992,40.83334-27.49289-1.85317-4.522-7.69946-5.51587-12.57516-5.84825-19.35212-1.31922-39.98191-2.36689-56.86569,7.18206-3.86753-27.48971-18.03439-52.72122-42.5279-66.77626-7.72533-4.433-18.19135-8.56443-25.94649-2.15753-5.09971,4.21313-7.64119,10.7894-8.96457,17.27061A60.79682,60.79682,0,0,0,531.80163,741.663Z" style="         fill: #ffb400;                fill-rule: evenodd;       "/>
    <path d="M598.78666,741.23824c-23.81015-5.30563-42.913-17.60939-57.78313-36.20707a5.93542,5.93542,0,0,1-.27124-7.0552c8.16507-11.89418,19.53818-23.70184,32.51907-37.17858,23.42615-24.3208,55.50928-57.62939,55.50928-84.15869,0-3.78076-2.24658-24.80078-46.59888-67.46729-29.20691-28.09668-63.886-53.09326-81.95813-65.49267l42.757-65.637c24.43494,16.76465,60.40992,46.075,91.89039,76.35865,47.042,45.2539,69.90967,85.23828,69.90967,122.23828,0,57.17822-44.37232,103.2456-76.77173,136.88232-8.93523,9.27665-18.13118,18.82414-23.15085,25.45813A5.974,5.974,0,0,1,598.78666,741.23824Z" style="         fill: #00aee0;       "/>
    <path d="M399.11356,360.874V330.75635c-28.474-3.64706-79.52941-13.88236-79.52941-80,0-47.52942-5.64706-157.2028-5.64706-157.2028l175.99994.02631c.03275-1.624,36.70594,72-3.42853,198.0015-5.2833,16.58684-2.37638,42.52631-2.10451,76.34427.11654,14.49686-23.17278,26.00144-48.58455,22.73108C412.2734,387.62646,399.11356,374.05046,399.11356,360.874Z" style="         fill: #ffb400;                fill-rule: evenodd;       "/>
    <path d="M327.75276,9.81517C233.87041,58.874,280.95069,133.74292,301.152,142.52105c28.42808,12.35294,71.382-4.12827,85.65606-8.53027s30.58551-5.47293,43.4679,2.08814c13.81373,8.10771,20.781,24.43355,23.14189,40.2759,2.47109,16.58163.89836,21.56693,3.12532,38.16658a5.8362,5.8362,0,0,0,2.5233,4.18891c4.11257,2.62,8.2112-2.74375,8.99054-7.27168,1.49747-8.70027-.79548-17.74328.87283-26.41242,1.89849-9.86523,12.8613-19.69733,21.7542-11.66313a15.18579,15.18579,0,0,1,4.748,9.91314,226.94563,226.94563,0,0,1-9.13478,88.0872c-3.00491,9.70814-8.39416,24.29444-5.07009,32.48225a2.31821,2.31821,0,0,0,4.22747.17154c8.24733-17.0784,48.73729-36.64295,41.16135-92.84538a18.3503,18.3503,0,0,1,4.54927-14.91327c28.77822-31.21943,30.67928-86.28409,20.24287-109.85515-14.52958-32.81564-53.30786-72.1242-88.1259-80.82353-20.37294-5.09021-76.108-17.42267-118.461,25.98909C332.21841,44.48684,350.35381-1.99515,327.75276,9.81517Z" style="         fill: #04294f;                fill-rule: evenodd;       "/>
    <path d="M478.93328,191.03143a10.33827,10.33827,0,0,1,1.11284-3.6189,2.66721,2.66721,0,0,1,2.52475-1.57621c1.14552.202,1.98759,1.5492,2.59121,2.89427a25.12433,25.12433,0,0,1,2.00314,7.53913,14.41055,14.41055,0,0,1-.4359,6.05489c-1.31447,3.88044-4.88678,4.399-6.81546,1.01142C478.183,200.29585,478.39173,194.51877,478.93328,191.03143Z" style="         fill: #04294f;       "/>
    <path d="M440.49049,321.25393c.23633.41138.00879,1.05127-.63037,1.86939a9.15065,9.15065,0,0,1-1.27246,1.32275,17.7689,17.7689,0,0,1-1.875,1.46534,31.23419,31.23419,0,0,1-5.39746,2.95507c-1.0708.439-2.20068.90552-3.40869,1.27051-1.19922.40015-2.46875.71753-3.773,1.02393-1.31348.26294-2.6001.50146-3.85693.63525-1.25049.16992-2.47217.21484-3.62891.26025a31.21944,31.21944,0,0,1-6.13672-.447,17.72508,17.72508,0,0,1-2.31445-.5542,9.15157,9.15157,0,0,1-1.707-.6748c-.9209-.47876-1.39356-.96631-1.34961-1.43848.04394-.47241.59668-.8855,1.52978-1.22973.4668-.16773,1.0293-.32569,1.6753-.49536.6455-.16578,1.37207-.29224,2.16992-.46558,1.57275-.28369,3.44482-.62134,5.523-.99609,1.02539-.20752,2.10449-.37085,3.21093-.61084,1.10645-.22535,2.25147-.4585,3.42481-.69727,1.1665-.27,2.30517-.53369,3.40527-.78833,1.106-.241,2.15576-.54028,3.17481-.77759,2.0459-.52222,3.88867-.99243,5.438-1.38769.79737-.17359,1.51075-.36036,2.167-.47779.6582-.11377,1.23535-.20385,1.72949-.24487C439.58034,320.69632,440.25465,320.8428,440.49049,321.25393Z" style="         fill: #f04e23;       "/>
    <path d="M655.24635,763.98782c-.03955.47437-1.12451.85108-3.01074,1.14795-.94482.18945-2.08984.31323-3.41016.50855q-.9873.13036-2.10742.27856-1.11181.16077-2.34717.33936c-1.63964.25146-3.42529.5371-5.32812.89135-.95215.16992-1.92871.39307-2.937.5857q-1.50147.34386-3.0874.70727c-2.09815.53613-4.2959,1.10059-6.53028,1.82617-2.24463.69068-4.53174,1.51245-6.84472,2.42432-1.15479.46094-2.292.9248-3.39454,1.42456l-.68066.3c-.29785.12622-.57861.26782-.86279.40478q-.843.4032-1.68018.803-1.65966.78736-3.29248,1.56128l-.40527.19141a2.06787,2.06787,0,0,1-.15625-.40723l-.2876-.86328q-.28564-.85876-.56885-1.70947-.55737-1.68788-1.104-3.34253-.20874-.64527-.41553-1.28369l-.25684-.83057q-.25267-.8269-.499-1.63452c-1.30322-4.3103-2.38672-8.22266-3.20312-11.541-1.63184-6.63647-2.19336-10.896-1.29639-11.20556.897-.30933,3.08154,3.38989,5.88916,9.62109,1.40381,3.11548,2.96289,6.864,4.59473,11.06079q.30394.78735.61523,1.59448l.31006.81226.13916.36279.01855.01441c.04834.03174.07618.04663.10254.02343a.29388.29388,0,0,0,.03467-.05029l.00733-.01684s.0039-.00562-.00538-.00342l-.01025.00171.19287-.08911c1.19141-.56568,2.42432-1.08326,3.68115-1.585A69.41059,69.41059,0,0,1,624.596,763.813a70.38178,70.38178,0,0,1,7.16944-1.57178c1.15478-.18042,2.28466-.33228,3.38134-.4668,1.103-.10058,2.16846-.22,3.2041-.27588,2.07081-.126,4.00147-.14087,5.75879-.0874q1.31617.07508,2.50342.14258c.78906.075,1.53125.1626,2.22266.24927a32.807,32.807,0,0,1,3.52246.66113C654.27125,762.99173,655.2859,763.51712,655.24635,763.98782Z" style="         fill: #f04e23;       "/>
    <path d="M620.45973,748.20852c.74463.56763.874,1.85767.21875,3.46387a12.07554,12.07554,0,0,1-10.39062,6.84839c-1.73438-.03076-2.86866-.6582-3.09717-1.56641-.23486-.92895.40234-1.95874,1.41894-2.99267a31.81376,31.81376,0,0,1,8.54053-5.6294C618.50124,747.80594,619.6985,747.626,620.45973,748.20852Z" style="         fill: #f04e23;       "/>
    <path d="M634.67213,783.01028c1.41162.17945,2.23487,2.8523,1.83887,5.97046-.396,3.11792-1.86182,5.50025-3.27344,5.3208-1.41113-.17944-2.23437-2.85229-1.83838-5.97021C631.79518,785.21316,633.26051,782.83108,634.67213,783.01028Z" style="         fill: #f04e23;       "/>
    <path d="M643.93727,780.6387c1.42285,0,2.57617,2.10693,2.57617,4.70581,0,2.59912-1.15332,4.70606-2.57617,4.70606-1.42334,0-2.57666-2.10694-2.57666-4.70606C641.36061,782.74563,642.51393,780.6387,643.93727,780.6387Z" style="         fill: #f04e23;       "/>
    <path d="M430.13234,415.94876a20.44948,20.44948,0,0,1-2.66015,1.22c.02.17993.04.36987.05029.56006.15967,2.25,2.0498,13.16992,2.46,15.38989,4.93994,26.62988,5.66016,25.6499,6.71,33.78q-3.79467,5.41517-7.43017,10.92993-1.69483,2.5503-3.33985,5.13013c-2.56982,4.01-6.12988,8.58984-10.68017,7.85986-3.61963-.58984-5.87989-4.33984-7.65967-7.73-3.81006-7.28-7.62012-14.59985-11.23-22.02q4.82958-23.50488,11.61963-46.57007c.03027-.10986.06006-.21972.10009-.32983.09034-.3.18018-.6001.27-.90991a24.80091,24.80091,0,0,1-3.87011-5.87012,13.72059,13.72059,0,0,1-.5-10.72,11.122,11.122,0,0,1,8.64013-6.38013c3.48-.50976,6.93018.36011,10.3003,1.25,3.5.92017,7.08984,1.90015,10.00976,4.25a11.95292,11.95292,0,0,1,4.50977,10.57007C436.8423,410.68875,433.58254,414.04861,430.13234,415.94876Z" style="         fill: #04294f;                fill-rule: evenodd;       "/>
    <g>
      <path d="M401.11159,846.127c-1.97071.105-3.646-1.8208-3.74219-4.30151-.09668-2.48072,1.36279-4.57837,3.24951-4.68457,1.88623-.106,3.5669,1.81933,3.7417,4.30151C404.53688,843.92434,403.0818,846.02176,401.11159,846.127Z" style="         fill: #00aee0;       "/>
      <path d="M402.44166,872.79251c-2.12939.09717-4.01708-3.95337-4.20507-9.04785-.188-5.09473,1.29834-9.30982,3.30517-9.41382s3.896,3.94629,4.20459,9.04785C406.05543,868.48025,404.57106,872.69534,402.44166,872.79251Z" style="         fill: #00aee0;       "/>
      <path d="M403.56959,899.46512c-2.23828.08471-4.19482-3.97559-4.36084-9.06958-.16748-5.094,1.44922-9.30152,3.60157-9.39673,2.15283-.09522,4.10937,3.96484,4.36084,9.06958C407.42458,895.17288,405.80739,899.38016,403.56959,899.46512Z" style="         fill: #00aee0;       "/>
      <path d="M404.48854,926.14871c-2.30957.06909-4.30713-4.00488-4.44531-9.10034-.13916-5.09546,1.57617-9.293,3.83154-9.37525s4.24561,3.99195,4.44531,9.10035C408.52077,921.88186,406.7986,926.07962,404.48854,926.14871Z" style="         fill: #00aee0;       "/>
      <path d="M405.19313,952.83841c-2.35547.05127-4.35889-4.03784-4.46973-9.13355-.11132-5.0957,1.68164-9.28027,4.00489-9.34643s4.3247,4.023,4.46972,9.1333C409.344,948.60232,407.5486,952.78689,405.19313,952.83841Z" style="         fill: #00aee0;       "/>
      <path d="M405.67946,979.5325c-2.37061.03223-4.35938-4.07276-4.44238-9.16895-.08448-5.09594,1.772-9.26635,4.1289-9.31421,2.35742-.04785,4.354,4.05713,4.44238,9.16895C409.8987,975.33035,408.04958,979.50027,405.67946,979.5325Z" style="         fill: #00aee0;       "/>
      <path d="M405.94508,1006.23c-2.35937.01245-4.3208-4.10889-4.36718-9.20532-.04737-5.09644,1.83593-9.25122,4.20654-9.27979,2.37109-.02856,4.32617,4.09277,4.36719,9.20532C410.19362,1002.06277,408.304,1006.21756,405.94508,1006.23Z" style="         fill: #00aee0;       "/>
      <path d="M405.98952,1032.92483c-2.3252-.00683-4.2251-4.14331-4.24414-9.239-.02-5.0957,1.88086-9.23364,4.23681-9.24243,2.356-.009,4.25977,4.12768,4.24414,9.239C410.21168,1028.79373,408.31471,1032.93167,405.98952,1032.92483Z" style="         fill: #00aee0;       "/>
      <path d="M405.81422,1059.62161c-2.2583-.02515-4.08056-4.17725-4.0708-9.27368.00928-5.09644,1.90332-9.21924,4.21533-9.209,2.312.0105,4.14161,4.1626,4.07081,9.27393C409.95973,1055.524,408.07252,1059.647,405.81422,1059.62161Z" style="         fill: #00aee0;       "/>
      <path d="M405.42165,1086.31863c-2.15577-.0415-3.87842-4.20752-3.83887-9.30493.03711-5.09717,1.89306-9.20605,4.13379-9.17749,2.24023.02832,3.96435,4.19434,3.83886,9.30469C409.4319,1082.25125,407.57741,1086.36014,405.42165,1086.31863Z" style="         fill: #00aee0;       "/>
      <path d="M404.81569,1113.01321c-2.00977-.05444-3.60059-4.23218-3.53906-9.33008.06152-5.09814,1.84863-9.19458,3.981-9.15039,2.13282.04395,3.72168,4.22144,3.53907,9.33008C408.614,1108.97122,406.825,1113.06766,404.81569,1113.01321Z" style="         fill: #00aee0;       "/>
      <path d="M404.31276,1130.2615c-1.88818-.06006-3.39893-2.12182-3.36279-4.60449.03466-2.48267,1.66259-4.449,3.63574-4.39209s3.479,2.11841,3.36328,4.60449C407.83424,1128.3555,406.20143,1130.32181,404.31276,1130.2615Z" style="         fill: #00aee0;       "/>
    </g>
    <path d="M422.61891,816.34549c-.0498.35229-.51123.64184-1.27344.86645-.38086.10742-.83838.20655-1.3623.32422-.51709.093-1.105.19873-1.75391.31567-1.28613.20606-2.78955.47681-4.43408.79908-.81787.19116-1.68115.33984-2.55762.58008-.88525.20068-1.7832.47021-2.71142.71679-.91406.29395-1.81592.55249-2.66895.86182-.86719.27124-1.67431.61279-2.46582.8938-1.55762.61718-2.96924,1.20166-4.1626,1.72339-.60937.25244-1.16113.481-1.64648.68188-.50439.18433-.94287.34766-1.32129.46314-.76269.2229-1.3081.22876-1.54-.04078-.23242-.26953-.12695-.792.28613-1.52465a6.97131,6.97131,0,0,1,.86719-1.21778,13.1824,13.1824,0,0,1,1.353-1.40674,22.47623,22.47623,0,0,1,4.11328-2.96069,26.20724,26.20724,0,0,1,2.69775-1.3208,26.36261,26.36261,0,0,1,6.18506-1.8147,26.18246,26.18246,0,0,1,2.98389-.34619,22.46339,22.46339,0,0,1,5.061.269,13.18425,13.18425,0,0,1,1.89843.4524,6.96535,6.96535,0,0,1,1.3877.55615C422.29811,815.61062,422.66872,815.99344,422.61891,816.34549Z" style="         fill: #00aee0;       "/>
    <g>
      <path d="M406.93288,774.20364a3.39662,3.39662,0,0,1-2.83155-1.30127,4.58732,4.58732,0,0,1-.86035-3.49194,5.45123,5.45123,0,0,1,1.68408-3.27319,3.12594,3.12594,0,0,1,2.72071-.88086,3.66,3.66,0,0,1,2.24072,1.7102,5.59877,5.59877,0,0,1,.9082,3.03955,4.26166,4.26166,0,0,1-1.08886,2.86426A3.98345,3.98345,0,0,1,406.93288,774.20364Z" style="         fill: #00aee0;       "/>
      <path d="M412.87672,793.6951a3.484,3.484,0,0,1-3.688-.376,9.8222,9.8222,0,0,1-3.9419-10.04907,3.48375,3.48375,0,0,1,2.44727-2.78321,4.02665,4.02665,0,0,1,3.38525,1.28614,11.41447,11.41447,0,0,1,3.40576,8.67651A4.02822,4.02822,0,0,1,412.87672,793.6951Z" style="         fill: #00aee0;       "/>
      <path d="M423.21071,804.90335a3.12631,3.12631,0,0,1-2.59326,1.20581,5.45265,5.45265,0,0,1-3.46241-1.25244,4.58252,4.58252,0,0,1-1.74511-3.14478,3.39989,3.39989,0,0,1,1.1914-2.8811,3.98542,3.98542,0,0,1,2.94043-.9104,4.25574,4.25574,0,0,1,2.74658,1.3584,5.597,5.597,0,0,1,1.40137,2.84643A3.66106,3.66106,0,0,1,423.21071,804.90335Z" style="         fill: #00aee0;       "/>
    </g>
    <path d="M358.35084,1160.28055c.04786.70971-.55712,1.41845-1.73144,2.094a11.09726,11.09726,0,0,1-2.17285.94531,21.39305,21.39305,0,0,1-2.94239.769,38.09071,38.09071,0,0,1-7.79248.65258c-1.46826-.0437-3.01806-.09521-4.606-.29809-1.59473-.16162-3.22852-.45191-4.89551-.77906-1.65674-.377-3.26807-.77417-4.791-1.27294-1.53369-.4585-2.97119-1.04-4.33105-1.59546a38.09487,38.09487,0,0,1-6.8584-3.75635,21.43611,21.43611,0,0,1-2.37793-1.89624,11.10362,11.10362,0,0,1-1.603-1.74536c-.79931-1.09351-1.06494-1.98682-.73291-2.616.33155-.62939,1.22559-.938,2.523-.97412a20.34694,20.34694,0,0,1,2.25.114c.84912.084,1.77295.25318,2.79639.41309,2.02539.37036,4.37793.85474,6.94482,1.43213,2.55616.55786,5.36621,1.17114,8.31592,1.81494l8.33789,1.71313c2.58057.51343,4.92725,1.02442,6.92871,1.50708,1.00049.26905,1.91358.489,2.72364.7566a20.28323,20.28323,0,0,1,2.103.8081C357.61061,1158.9263,358.3025,1159.57083,358.35084,1160.28055Z" style="         fill: #04294f;       "/>
    <path d="M510.83668,1210.90286c.04834.70972-.55664,1.4187-1.731,2.094a11.1103,11.1103,0,0,1-2.17285.94532,21.41973,21.41973,0,0,1-2.94288.769,38.08319,38.08319,0,0,1-7.792.65259c-1.46826-.0437-3.01806-.09522-4.606-.2981-1.59473-.16162-3.22852-.4519-4.89551-.77905-1.65674-.377-3.26807-.77417-4.79151-1.273-1.53369-.4585-2.97119-1.04-4.33056-1.59546a38.06046,38.06046,0,0,1-6.8584-3.75635,21.38728,21.38728,0,0,1-2.37793-1.89624,11.10225,11.10225,0,0,1-1.603-1.74536c-.79931-1.0935-1.06494-1.98681-.7334-2.616.332-.6294,1.22559-.938,2.52344-.97413a20.35842,20.35842,0,0,1,2.25.114c.84912.084,1.77295.25317,2.79639.41308,2.02539.37036,4.37744.85474,6.94482,1.43213,2.55615.55786,5.36621,1.17115,8.31592,1.81494,2.95752.60767,5.7749,1.18653,8.3374,1.71314,2.58057.51343,4.92774,1.02441,6.9292,1.50708,1.00049.269,1.91309.489,2.72363.75659a20.28334,20.28334,0,0,1,2.103.80811C510.09694,1209.54861,510.78883,1210.19314,510.83668,1210.90286Z" style="         fill: #04294f;       "/>
    <path d="M346.19606,130.54764c.08545.22119-.04785.51538-.38916.8767a7.80943,7.80943,0,0,1-1.64209,1.25293,20.60192,20.60192,0,0,1-2.8584,1.43042,31.37312,31.37312,0,0,1-4.01269,1.35572,39.84013,39.84013,0,0,1-5.06006,1.00317,43.574,43.574,0,0,1-12.51807-.23608,43.21709,43.21709,0,0,1-13.44824-4.52442,43.587,43.587,0,0,1-10.11572-7.37866,39.85568,39.85568,0,0,1-3.42432-3.85742,31.388,31.388,0,0,1-2.37744-3.50586,20.639,20.639,0,0,1-1.4126-2.86719,7.79556,7.79556,0,0,1-.55029-1.99048c-.05371-.49389.01806-.80908.21972-.93359s.52442-.05273.94825.1897a12.083,12.083,0,0,1,1.57617,1.20532c.63183.54687,1.36572,1.229,2.22119,2.00024.85107.77344,1.814,1.6438,2.90283,2.56153,1.07861.928,2.29834,1.88672,3.61719,2.883,1.34424.96607,2.77832,1.98462,4.35986,2.93531a54.03794,54.03794,0,0,0,5.06494,2.74755,49.94966,49.94966,0,0,0,11.6377,3.91529,54.09956,54.09956,0,0,0,5.6958.8728c1.83447.19849,3.59277.25391,5.24756.29663,1.65234.00342,3.2041-.023,4.624-.11011,1.42188-.07324,2.71533-.18457,3.86084-.28613,1.14746-.09717,2.14453-.19726,2.97852-.251a12.03368,12.03368,0,0,1,1.98437-.00732C345.80983,130.18875,346.11012,130.32644,346.19606,130.54764Z" style="         fill: #00aee0;       "/>
    <path d="M406.46608,14.15237c.03271.4729-.44922.97461-1.311,1.47193-.43164.24267-.958.49414-1.56054.782-.603.28247-1.29248.53222-2.03662.86255-1.5.5957-3.24756,1.31494-5.15479,2.12085-.94141.43676-1.94824.83325-2.95068,1.33838-1.022.46044-2.04541,1.00268-3.11084,1.52319-1.03809.57275-2.07032,1.09839-3.03418,1.66968-.98975.53-1.89307,1.126-2.79151,1.64526-1.75586,1.09741-3.34912,2.11377-4.69873,2.999-.69775.41895-1.29834.83936-1.87646,1.17066-.582.32763-1.09033.61352-1.53711.82739-.90234.41919-1.58984.52539-1.95752.22632-.36816-.29907-.3794-.97949-.05859-1.9834a8.48841,8.48841,0,0,1,.75781-1.70483,16.11076,16.11076,0,0,1,1.31055-2.04395,27.70142,27.70142,0,0,1,4.30761-4.58984,32.6036,32.6036,0,0,1,2.97217-2.252,32.96737,32.96737,0,0,1,7.10107-3.68969,32.60116,32.60116,0,0,1,3.55127-1.1377,27.7006,27.7006,0,0,1,6.23194-.88623,16.17684,16.17684,0,0,1,2.42578.1023,8.5252,8.5252,0,0,1,1.83105.3601C405.88209,13.27884,406.43288,13.67923,406.46608,14.15237Z" style="         fill: #00aee0;       "/>
    <path d="M470.7068,21.78128c-.16748.4436-.83935.68774-1.87842.75976-.51806.03052-1.13086.02662-1.834.0188-.70117-.01269-1.47266-.09082-2.33154-.127-1.70264-.13135-3.70069-.272-5.895-.41357-1.10108-.03711-2.24659-.13746-3.43848-.14624-1.18945-.0542-2.42041-.042-3.68018-.06739-1.26025.03028-2.49072.02271-3.68017.08155-1.1919.01367-2.33692.11816-3.438.15966-2.19385.15015-4.19092.29834-5.89307.43653-.85888.0393-1.63037.1206-2.33105.136-.70313.0105-1.31592.01685-1.834-.012-1.03955-.06787-1.7124-.30933-1.88134-.7522-.16895-.44311.18506-1.04834,1.00342-1.77392a9.464,9.464,0,0,1,1.57617-1.13159,18.18133,18.18133,0,0,1,2.24072-1.16749,31.40171,31.40171,0,0,1,6.23437-2.0039,37.11667,37.11667,0,0,1,3.82959-.604c1.3379-.16162,2.73194-.20874,4.16016-.23925,1.42774.0249,2.82227.06689,4.16065.22314a37.02525,37.02525,0,0,1,3.83154.58936,31.36582,31.36582,0,0,1,6.24219,1.97949,18.12041,18.12041,0,0,1,2.24511,1.15869,9.44929,9.44929,0,0,1,1.58057,1.12549C470.51735,20.73391,470.87428,21.33767,470.7068,21.78128Z" style="         fill: #00aee0;       "/>
    <path d="M432.5569,38.49392c.14014,1.89209-3.38379,3.69581-7.87109,4.02881-4.4878.33277-8.23926-.93115-8.3794-2.82324-.14062-1.89184,3.3833-3.69556,7.87109-4.02856C428.66481,35.33792,432.41627,36.60183,432.5569,38.49392Z" style="         fill: #00aee0;       "/>
    <path d="M500.846,48.12674c-.3418.32885-.96777.34936-1.77588.13354-.40088-.11206-.85351-.27734-1.36718-.46875-.50977-.19482-1.03907-.46167-1.647-.71606-1.15283-.53565-2.52392-1.17261-4.04638-1.87989-.76368-.31787-1.53223-.70239-2.36475-1.0227-.814-.35864-1.67773-.67261-2.54785-1.02979-.88867-.30883-1.74365-.64575-2.59131-.9165-.83594-.31128-1.6665-.53223-2.44922-.8-1.60889-.47851-3.0581-.90942-4.27637-1.27173-.624-.21191-1.19726-.36255-1.708-.55444-.51172-.19678-.96045-.3728-1.335-.5542-.74854-.37378-1.20362-.80371-1.2417-1.27637-.03858-.47265.35009-.94506,1.12695-1.3955a6.3528,6.3528,0,0,1,1.44726-.61524,11.84329,11.84329,0,0,1,1.97559-.45532,20.34915,20.34915,0,0,1,5.23682-.08814,24.26309,24.26309,0,0,1,3.05615.53443,24.68562,24.68562,0,0,1,6.22363,2.35669,24.27754,24.27754,0,0,1,2.64356,1.624,20.35533,20.35533,0,0,1,3.86523,3.53467,11.88748,11.88748,0,0,1,1.17871,1.6499,6.37272,6.37272,0,0,1,.67627,1.41919C501.20924,47.1868,501.18727,47.79788,500.846,48.12674Z" style="         fill: #00aee0;       "/>
    <path d="M477.23512,63.65017c-.64844,1.783-6.05859,1.45166-12.084-.74s-10.38428-5.41357-9.73584-7.19653c.64892-1.783,6.05908-1.45166,12.08447.74S477.88356,61.86722,477.23512,63.65017Z" style="         fill: #00aee0;       "/>
    <path d="M529.14625,93.14065c-.46191.1062-1.01269-.21191-1.60156-.83764-.28906-.3147-.59619-.70435-.94385-1.14966-.34277-.44678-.665-.96777-1.064-1.51953-.73193-1.09375-1.60254-2.39478-2.56885-3.83936-.50635-.69165-.98242-1.44458-1.55029-2.17456-.53125-.75415-1.13086-1.49463-1.71436-2.27661-.625-.74878-1.20605-1.50415-1.81689-2.1958-.57813-.72168-1.2002-1.35962-1.75488-2.0127-1.18116-1.27539-2.24463-2.42407-3.13868-3.38989-.44384-.51611-.876-.95044-1.231-1.38745-.35254-.44165-.66016-.83081-.89942-1.18506-.47168-.71777-.65332-1.32739-.44287-1.7522s.79883-.62353,1.71973-.5979a6.643,6.643,0,0,1,1.59766.24024,12.42744,12.42744,0,0,1,1.98.65942,21.24209,21.24209,0,0,1,4.66113,2.71826,25.16139,25.16139,0,0,1,2.4126,2.09693,25.69583,25.69583,0,0,1,4.24951,5.38232,25.26664,25.26664,0,0,1,1.48,2.8335,21.27245,21.27245,0,0,1,1.562,5.165,12.34194,12.34194,0,0,1,.18164,2.0791,6.6532,6.6532,0,0,1-.13672,1.60962C529.93825,92.50808,529.60866,93.03445,529.14625,93.14065Z" style="         fill: #00aee0;       "/>
    <path d="M510.85133,122.0596c-.4707.05469-.97168-.27759-1.4707-.8999a14.93385,14.93385,0,0,1-1.55713-2.64771c-.5332-1.11645-1.11426-2.43091-1.71338-3.88306-.5957-1.44238-1.25-3.02734-1.9375-4.6914-.68847-1.66333-1.34424-3.2478-1.94092-4.6897-.60156-1.45117-1.11865-2.79224-1.52929-3.95923a14.93252,14.93252,0,0,1-.76709-2.97436,1.82366,1.82366,0,0,1,.40576-1.67578c.37256-.29395.96435-.26246,1.73047.06689a6.44958,6.44958,0,0,1,1.25488.72437,12.24343,12.24343,0,0,1,1.42481,1.17334,21.77335,21.77335,0,0,1,3.0415,3.62011,27.08387,27.08387,0,0,1,1.44043,2.38721c.46728.84766.88281,1.75977,1.28906,2.70215.37793.95386.728,1.89306.99561,2.82348a27.16962,27.16962,0,0,1,.666,2.70728,21.77436,21.77436,0,0,1,.40235,4.71118,12.22994,12.22994,0,0,1-.17969,1.83692,6.441,6.441,0,0,1-.377,1.39868C511.7195,121.56448,511.32252,122.00467,510.85133,122.0596Z" style="         fill: #00aee0;       "/>
    <path d="M505.28786,256.17166c-.4043-.248-.50537-.98-.36084-2.05615.07812-.53492.208-1.16187.35156-1.88355.14941-.71826.3833-1.49414.57519-2.374.21729-.86841.47266-1.801.69873-2.81445.26954-.99634.47657-2.08082.74219-3.19874.13037-.56005.21973-1.1455.34473-1.73217q.19408-.87927.33154-1.80591c.23291-1.22412.38672-2.50318.58447-3.80737.13038-1.3125.29834-2.58985.37452-3.83374q.09667-.93127.12548-1.83179c.02393-.59937.082-1.18872.09424-1.76343.019-1.14917.08594-2.251.07129-3.2832.03174-1.0376.01465-2.00464.019-2.89966.03125-.90015-.00341-1.71.0293-2.44263.03955-.73486.06836-1.37427.125-1.91211.126-1.07837.40528-1.76269.85791-1.90307.45313-.14014,1.04.28174,1.72315,1.2041a9.63594,9.63594,0,0,1,1.03955,1.75806,18.28708,18.28708,0,0,1,1.01269,2.46948,24.57249,24.57249,0,0,1,.85742,3.11377,33.07468,33.07468,0,0,1,.59131,3.6665c.07764.65088.09766,1.3208.14063,2.0061a20.90995,20.90995,0,0,1,.03808,2.09913,36.34175,36.34175,0,0,1-1.09814,8.74975q-.23219,1.04443-.55615,2.02466c-.21094.65332-.396,1.29736-.63233,1.90894a33.07266,33.07266,0,0,1-1.479,3.40649,24.59185,24.59185,0,0,1-1.60108,2.80518,18.22776,18.22776,0,0,1-1.5913,2.14257,9.60555,9.60555,0,0,1-1.4419,1.44654C506.365,256.15579,505.69215,256.41946,505.28786,256.17166Z" style="         fill: #00aee0;       "/>
    <path d="M306.44508,99.89993c-.15088.18262-.45166.22778-.894.13892a6.321,6.321,0,0,1-1.72461-.68042,16.24832,16.24832,0,0,1-2.37549-1.5813,24.72123,24.72123,0,0,1-2.7832-2.56177,31.4255,31.4255,0,0,1-2.89649-3.58838,34.4166,34.4166,0,0,1-4.73242-10.15967,33.89334,33.89334,0,0,1-1.1123-12.67993,34.41425,34.41425,0,0,1,2.89209-10.82861,31.37229,31.37229,0,0,1,2.22754-4.03784,24.69735,24.69735,0,0,1,2.29443-3.00708,16.28163,16.28163,0,0,1,2.064-1.97071,6.33661,6.33661,0,0,1,1.57959-.97021c.42041-.16431.72412-.17236.90478-.0188.18066.15381.23.46143.165.89819a9.84394,9.84394,0,0,1-.50439,1.68848c-.25684.68921-.59522,1.498-.96631,2.43237-.374.93067-.792,1.97949-1.20411,3.14478-.4248,1.15918-.82275,2.44385-1.21728,3.81714-.35742,1.38672-.728,2.85986-.981,4.43164a41.08851,41.08851,0,0,0-.543,4.93164,37.34975,37.34975,0,0,0,.9209,10.49731,41.04029,41.04029,0,0,0,1.39307,4.762c.523,1.50366,1.144,2.88964,1.7373,4.19311.62744,1.28369,1.24317,2.47949,1.86328,3.54688.6084,1.07592,1.20264,2.03588,1.7334,2.8872.52784.85547,1.00147,1.593,1.37451,2.22705a9.89116,9.89116,0,0,1,.791,1.575C306.59108,99.40555,306.59645,99.71707,306.44508,99.89993Z" style="         fill: #00aee0;       "/>
    <path d="M352.09059,84.60672a.88324.88324,0,0,1-.11426.80859,4.19017,4.19017,0,0,1-.95361,1.1084,13.86589,13.86589,0,0,1-4.46094,2.4458,21.56517,21.56517,0,0,1-3.43164.89526,24.20678,24.20678,0,0,1-8.63476-.11474,24.071,24.071,0,0,1-9.08643-3.77637,24.19512,24.19512,0,0,1-6.17285-6.03906A21.56988,21.56988,0,0,1,317.45,76.87112a13.8693,13.8693,0,0,1-1.41358-4.88745,4.19635,4.19635,0,0,1,.11279-1.458.88183.88183,0,0,1,.49268-.65112.97789.97789,0,0,1,.80566.17041,6.15641,6.15641,0,0,1,1.04639.88379c.77588.79468,1.76563,1.94287,3.00147,3.25195.61425.65772,1.31494,1.33838,2.06689,2.04639.7749.68774,1.59326,1.41333,2.5127,2.09448a28.28851,28.28851,0,0,0,13.374,5.55835c1.13135.1709,2.22266.239,3.25732.30347,1.03174.0332,2.00879.04956,2.90821.02124,1.79931-.04785,3.31152-.15625,4.42236-.16675a6.13945,6.13945,0,0,1,1.36426.11792A.97892.97892,0,0,1,352.09059,84.60672Z" style="         fill: #00aee0;       "/>
    <g>
      <path d="M412.52907,568.87405c-1.89746,0-3.43555-12.00928-3.43555-26.82348s1.53809-26.82374,3.43555-26.82374c1.897,0,3.43506,12.00953,3.43506,26.82374S414.426,568.87405,412.52907,568.87405Z" style="         fill: #04294f;       "/>
      <path d="M420.05983,577.48416c.17041-.16431.4624-.18067.897-.01465a3.96146,3.96146,0,0,1,1.50733,1.21314,7.357,7.357,0,0,1,1.33154,2.79272,9.57131,9.57131,0,0,1,.06152,4.16211,9.99664,9.99664,0,0,1-2.36181,4.73852,11.78316,11.78316,0,0,1-5.11377,3.26294,14.064,14.064,0,0,1-6.49463.47486,14.50543,14.50543,0,0,1-6.43555-2.73877,15.73015,15.73015,0,0,1-4.43945-5.23267,14.68145,14.68145,0,0,1-1.686-6.19775,12.943,12.943,0,0,1,1.06006-5.74878,13.29053,13.29053,0,0,1,2.75-4.05835,10.56912,10.56912,0,0,1,5.9834-3.18115,4.47114,4.47114,0,0,1,1.85059.0874c.42822.13257.65478.31934.6958.55273a1.01627,1.01627,0,0,1-.38038.79541c-.27929.281-.68164.63379-1.16064,1.04273a14.2441,14.2441,0,0,0-3.2041,3.74927,10.868,10.868,0,0,0-1.16406,2.91406,8.41392,8.41392,0,0,0-.12159,3.32495,9.79241,9.79241,0,0,0,1.27442,3.4751,10.5596,10.5596,0,0,0,2.66748,2.98266,9.02112,9.02112,0,0,0,7.1001,1.66138,7.03782,7.03782,0,0,0,2.82861-1.23291,5.889,5.889,0,0,0,1.70605-2.09326,7.87063,7.87063,0,0,0,.75879-2.38721,9.42607,9.42607,0,0,0,.06592-2.02417C419.93874,578.64212,419.70485,577.82986,420.05983,577.48416Z" style="         fill: #04294f;       "/>
      <path d="M412.05836,659.898c-1.89746,0-3.43554-9.49951-3.43554-21.21778,0-11.7185,1.53808-21.218,3.43554-21.218s3.43506,9.49951,3.43506,21.218C415.49342,650.39847,413.95583,659.898,412.05836,659.898Z" style="         fill: #04294f;       "/>
      <path d="M412.05836,715.99173c-1.89746,0-3.43554-7.27124-3.43554-16.241,0-8.96948,1.53808-16.24072,3.43554-16.24072s3.43506,7.27124,3.43506,16.24072C415.49342,708.72049,413.95583,715.99173,412.05836,715.99173Z" style="         fill: #04294f;       "/>
      <path d="M415.1194,658.93289c.08691-.2207.395-.33521.939-.33374a5.92048,5.92048,0,0,1,2.23145.53906,11.58842,11.58842,0,0,1,3.08447,1.97388,14.668,14.668,0,0,1,3.04541,3.8772,15.38333,15.38333,0,0,1,1.80371,5.87915,14.57989,14.57989,0,0,1-1.21972,7.25805,12.67367,12.67367,0,0,1-2.356,3.523,11.58781,11.58781,0,0,1-3.7959,2.63843,15.139,15.139,0,0,1-8.87353.81714,16.73948,16.73948,0,0,1-7.811-3.793,14.5455,14.5455,0,0,1-4.47217-6.95752,14.02122,14.02122,0,0,1-.10644-7.41089,11.7995,11.7995,0,0,1,3.27051-5.61645,11.20745,11.20745,0,0,1,4.46728-2.60669,9.39978,9.39978,0,0,1,3.77393-.36328,5.421,5.421,0,0,1,2.24365.71826c.46094.3186.646.59277.58838.82251-.05713.22973-.35156.40869-.8042.54541-.45752.16626-1.08057.30322-1.81641.57983a11.324,11.324,0,0,0-2.4414,1.21485,8.99808,8.99808,0,0,0-2.4043,2.34326,7.64253,7.64253,0,0,0-1.29981,3.52319,9.12294,9.12294,0,0,0,.55567,4.313,8.84512,8.84512,0,0,0,2.79443,3.75708,11.03634,11.03634,0,0,0,4.77393,2.18628,9.28194,9.28194,0,0,0,4.9707-.2854,5.33875,5.33875,0,0,0,1.73731-1.05615,6.82924,6.82924,0,0,0,1.33105-1.7,9.74764,9.74764,0,0,0,1.20068-4.2417,12.41561,12.41561,0,0,0-.55517-4.12719,14.92308,14.92308,0,0,0-1.49365-3.31128,18.93129,18.93129,0,0,0-1.71338-2.302c-.53418-.61084-.98487-1.11255-1.29444-1.48316C415.16969,659.47024,415.033,659.15335,415.1194,658.93289Z" style="         fill: #04294f;       "/>
      <path d="M556.64088,394.99588c.21338.10351.13428.75439-.22509,1.92334a26.25692,26.25692,0,0,1-2.22266,4.82519,48.32111,48.32111,0,0,1-4.87549,6.85767,77.83147,77.83147,0,0,1-7.7959,7.8833c-3.05127,2.72632-6.53955,5.49561-10.2832,8.37769-3.74951,2.8562-7.75537,5.9082-11.97119,9.11987-8.46,6.38232-17.8169,13.32275-27.69824,20.52661-39.52588,28.81494-72.47412,50.93115-73.5918,49.398-1.11768-1.533,30.01855-26.135,69.54394-54.94995,9.88184-7.20362,19.35206-13.98877,28.01661-20.09033,4.34619-3.03052,8.47656-5.91065,12.34179-8.606,3.87012-2.66846,7.42871-5.14185,10.55225-7.52515a99.70241,99.70241,0,0,0,8.09277-6.77124,73.67754,73.67754,0,0,0,5.47657-5.75293c1.40722-1.67383,2.456-3.033,3.19677-3.95093C555.93239,395.33938,556.428,394.89236,556.64088,394.99588Z" style="         fill: #04294f;       "/>
      <path d="M334.69313,355.20486c.23389.03906.38818.65454.47021,1.771.041.55835.06348,1.24194.06836,2.042.01368.80078.10352,1.728.13721,2.75952q.03076.77233.06494,1.62988.0813.85511.16992,1.793.07984.93311.166,1.9458.13989,1.00746.29,2.0918a86.9353,86.9353,0,0,0,1.9126,9.6897c.95312,3.54248,2.15478,7.3789,3.66455,11.43921,1.53808,4.05371,3.36133,8.33056,5.4209,12.79468,2.05664,4.46508,4.35156,9.11694,6.75488,13.96411,2.40869,4.8479,4.87695,9.87109,7.46533,14.96289,2.58984,5.092,5.15381,10.03222,7.75537,14.71728,2.55908,4.71509,5.209,9.136,7.78223,13.31494,1.29687,2.08179,2.62939,4.06177,3.88574,6.01685,1.33691,1.89062,2.5918,3.76489,3.87109,5.52368,1.31788,1.72559,2.53418,3.4458,3.79395,5.021,1.27978,1.55639,2.46924,3.09155,3.66357,4.50293q1.82813,2.0885,3.47754,3.9729,1.72192,1.81713,3.24219,3.42163c.99072,1.09839,1.98975,2.0354,2.89746,2.91675q1.35059,1.344,2.4624,2.45117c1.52491,1.42212,2.71436,2.54,3.46582,3.38232.75538.83667,1.09229,1.37329.957,1.56836-.13477.19507-.73536.03906-1.76416-.44287a45.57855,45.57855,0,0,1-4.31885-2.41113q-1.32349-.9049-2.918-2.0481c-1.06348-.7583-2.22266-1.58423-3.37305-2.58105-1.16748-.97779-2.4331-2.01221-3.73144-3.15747q-1.88013-1.79042-3.96924-3.77979c-1.35742-1.35889-2.70557-2.8501-4.145-4.3789-1.418-1.5459-2.78467-3.24146-4.25293-4.96-1.42676-1.7478-2.81983-3.61621-4.29346-5.51684-1.38623-1.95508-2.84668-3.95191-4.2583-6.05054-2.80029-4.209-5.645-8.6936-8.34033-13.46435-2.74268-4.749-5.394-9.75318-8.01611-14.90967-2.62256-5.158-5.06153-10.23242-7.395-15.13452-2.33057-4.9065-4.542-9.69507-6.49317-14.35181-1.95361-4.65454-3.647-9.175-5.01465-13.49341a105.232,105.232,0,0,1-3.02685-12.271,68.56744,68.56744,0,0,1-.99268-10.42164c-.00879-.77124-.02881-1.51342-.019-2.229q.06225-1.07409.11865-2.06445.06666-.98511.127-1.88477.12744-.89428.24218-1.70044c.17383-1.07031.29737-2.01831.50049-2.82788.21191-.80884.41016-1.48657.59277-2.02856C334.15651,355.70608,334.45924,355.1658,334.69313,355.20486Z" style="         fill: #04294f;       "/>
      <path d="M583.55983,652.99075c.24072.40869-.25147,1.23438-1.333,2.3689-.543.56372-1.23,1.21069-2.03174,1.94751-.8042.7334-1.74951,1.51489-2.77392,2.40332-2.0708,1.7185-4.53662,3.76465-7.27442,6.03637-1.35058,1.14844-2.79834,2.311-4.2539,3.57129-1.46289,1.249-2.97754,2.54224-4.52881,3.8667-1.5293,1.34986-3.022,2.668-4.46387,3.94092-1.45215,1.26392-2.80664,2.53467-4.1333,3.71021-2.63379,2.39184-5.00586,4.54565-6.998,6.355-1.02343.8894-1.92968,1.71582-2.769,2.40893-.84228.69043-1.5791,1.27954-2.21338,1.73828-1.27539.91138-2.16211,1.28272-2.53271.98706-.3711-.29565-.18994-1.23193.46631-2.68481a22.2408,22.2408,0,0,1,1.35351-2.5293c.57715-.949,1.24756-2.02344,2.06543-3.14941a80.96811,80.96811,0,0,1,6.1499-7.60083c1.25244-1.34741,2.56739-2.76782,4.01563-4.15283,1.42334-1.41163,2.96484-2.80127,4.55517-4.21143,1.61963-1.37671,3.21192-2.708,4.80957-3.91919,1.57471-1.239,3.16553-2.34131,4.6753-3.39233a80.998,80.998,0,0,1,8.38916-5.02173c1.22949-.65161,2.38769-1.1648,3.4082-1.60278a22.18717,22.18717,0,0,1,2.69434-.98511C582.367,652.62991,583.31911,652.58182,583.55983,652.99075Z" style="         fill: #04294f;       "/>
      <path d="M617.16774,715.27469c-.13281.45532-1.105.62378-2.77734.52929a20.17756,20.17756,0,0,1-2.99268-.38867,39.05472,39.05472,0,0,1-3.87158-.90137c-1.41846-.394-2.96436-.864-4.5835-1.47851-1.64062-.5669-3.33545-1.31055-5.12305-2.09522-.89257-.39453-1.77783-.85815-2.69482-1.30883q-1.37988-.66908-2.76074-1.46778c-1.86865-1.01465-3.72412-2.19922-5.6167-3.42358-1.8501-1.2876-3.64942-2.55591-5.29639-3.90064q-1.26123-.97338-2.40478-1.99853c-.76416-.678-1.52881-1.32178-2.23242-1.99805-1.40333-1.35669-2.73389-2.64355-3.87989-3.947-1.18213-1.26538-2.20312-2.51782-3.105-3.6814a39.0398,39.0398,0,0,1-2.30127-3.24121,20.16551,20.16551,0,0,1-1.49365-2.62256c-.72119-1.51147-.93359-2.47534-.563-2.77075.3711-.29541,1.28858.102,2.61182,1.05225.65576.48,1.42285,1.09033,2.31543,1.78857.86474.71558,1.84863,1.53,2.936,2.43018,1.08008.89966,2.2417,1.89526,3.52686,2.918,1.249,1.0603,2.64453,2.11841,4.07373,3.26806.71631.573,1.48389,1.11866,2.24219,1.70557q1.13306.887,2.35791,1.74634c1.59716,1.19165,3.31006,2.33838,5.041,3.54638,1.77393,1.14429,3.48438,2.29493,5.19239,3.32154q1.25829.8075,2.50927,1.52026c.83057.47925,1.62647.98291,2.42823,1.42871,1.60546.88672,3.11328,1.7771,4.56787,2.53125,1.43359.802,2.79492,1.5,4.03662,2.15821,1.24511.66552,2.37207,1.26733,3.36133,1.79638.98486.56153,1.84033,1.04,2.5332,1.46509C616.58522,714.12088,617.30055,714.81961,617.16774,715.27469Z" style="         fill: #04294f;       "/>
    </g>
    <g>
      <path d="M351.40549,206.34993c0-.04077-.00364-.08008-.00364-.1206,0-.04077.00364-.08008.00364-.12061,0-.20483-.024-.3999-.02838-.60327-.0131-.49023-.03057-.97827-.06768-1.4585a27.0487,27.0487,0,0,0-1.85647-8.34814h-.11789c-2.31057-5.44336-6.32915-9.05884-10.911-9.05884s-8.60043,3.61548-10.911,9.05884h-.11789a27.049,27.049,0,0,0-1.85646,8.34814c-.03712.48023-.05458.96827-.06768,1.4585-.00437.20337-.02839.39844-.02839.60327,0,.04053.00364.07984.00364.12061,0,.04052-.00364.07983-.00364.1206,0,.20459.024.39991.02839.603.0131.49023.03056.97827.06768,1.45874a27.05219,27.05219,0,0,0,1.85646,8.34815h.11789c2.31057,5.44311,6.32915,9.05883,10.911,9.05883s8.60042-3.61572,10.911-9.05883h.11789a27.0519,27.0519,0,0,0,1.85647-8.34815c.03711-.48047.05458-.96851.06768-1.45874C351.38147,206.74984,351.40549,206.55452,351.40549,206.34993Z" style="         fill: #04294f;       "/>
      <path d="M409.468,206.34993c0-.04077-.00364-.08008-.00364-.1206,0-.04077.00364-.08008.00364-.12061,0-.20483-.024-.3999-.02839-.60327-.0131-.49023-.03056-.97827-.06768-1.4585a27.049,27.049,0,0,0-1.85646-8.34814h-.11789c-2.31057-5.44336-6.32915-9.05884-10.911-9.05884s-8.60042,3.61548-10.911,9.05884h-.11789a27.0487,27.0487,0,0,0-1.85647,8.34814c-.03711.48023-.05458.96827-.06768,1.4585-.00436.20337-.02838.39844-.02838.60327,0,.04053.00364.07984.00364.12061,0,.04052-.00364.07983-.00364.1206,0,.20459.024.39991.02838.603.0131.49023.03057.97827.06768,1.45874a27.0519,27.0519,0,0,0,1.85647,8.34815h.11789c2.31057,5.44311,6.32915,9.05883,10.911,9.05883s8.60043-3.61572,10.911-9.05883h.11789a27.05219,27.05219,0,0,0,1.85646-8.34815c.03712-.48047.05458-.96851.06768-1.45874C409.444,206.74984,409.468,206.55452,409.468,206.34993Z" style="         fill: #04294f;       "/>
      <g>
        <path d="M430.905,247.63675c.394.26391.31153,1.14892-.20459,2.56176a13.92309,13.92309,0,0,1-1.146,2.45533,31.69232,31.69232,0,0,1-1.9292,3.01342q-.616.7848-1.28809,1.64185-.345.42444-.70263.86548c-.252.28149-.52246.55542-.793.83984q-.82617.84339-1.707,1.74219c-.60205.585-1.28028,1.1228-1.95362,1.70312a22.0166,22.0166,0,0,1-2.15674,1.67676c-.76806.5293-1.53759,1.09644-2.36328,1.60962q-1.27.72291-2.582,1.47022c-.87988.489-1.83447.87085-2.77295,1.30835a25.83335,25.83335,0,0,1-2.86621,1.10034q-.71776.24353-1.4248.48364c-.47315.15357-.96094.25073-1.43506.37427-.95654.21606-1.87891.49072-2.81494.62329q-1.4004.19408-2.73975.37915c-.89355.09888-1.77832.09619-2.627.13477q-.63721.0172-1.25537.03369-.61963-.03736-1.21875-.07325-1.19019-.09447-2.29737-.18212c-.73193-.10987-1.42968-.25269-2.09179-.38086a19.45949,19.45949,0,0,1-3.49659-.981c-.50244-.18018-.96435-.35571-1.38427-.52979q-.61671-.316-1.1084-.60839c-1.30908-.77832-1.92676-1.41407-1.78125-1.86524.145-.45117,1.03125-.68115,2.44189-.72607.353-.01123.73877-.0105,1.15479.00195.42431-.02441.87939-.04321,1.36279-.052.96582-.01343,2.042.0227,3.23389-.07935q.88331-.03735,1.84863-.07788.95655-.10363,1.98779-.21484.51123-.0487,1.03907-.09912.52513-.09156,1.06543-.18628c.71826-.13428,1.46045-.21265,2.21-.37818q1.11914-.26073,2.29248-.53344c.78125-.16822,1.55322-.46411,2.354-.68409.39649-.12548.80518-.22,1.20264-.36767q.59472-.22523,1.19873-.45386a25.94169,25.94169,0,0,0,2.43115-.96777c.80078-.37818,1.623-.68408,2.38721-1.08789l2.26855-1.17969c.73438-.406,1.42774-.85791,2.13037-1.26294a22.6879,22.6879,0,0,0,2.00635-1.28711c.6377-.44482,1.29248-.84058,1.88721-1.28174q.89063-.67162,1.727-1.303.42406-.31311.8335-.61523.38964-.32666.76416-.64111.76685-.62073,1.46972-1.19068c.94678-.7561,1.73242-1.52221,2.50879-2.13086.78516-.60351,1.397-1.18847,1.97266-1.61694C429.68,247.7493,430.511,247.37308,430.905,247.63675Z" style="         fill: #04294f;       "/>
        <path d="M439.49049,252.30252a1.55034,1.55034,0,0,1-.5747,1.48852,5.2968,5.2968,0,0,1-2.5835,1.24366,9.20388,9.20388,0,0,1-4.24609-.14454,10.68581,10.68581,0,0,1-7.5044-7.20849,9.20918,9.20918,0,0,1-.31543-4.23682,5.30489,5.30489,0,0,1,1.13867-2.63159,1.55146,1.55146,0,0,1,1.46436-.634c.94092.22754,1.48,1.45556,2.23584,2.83154a14.11234,14.11234,0,0,0,7.46631,7.17163C437.97633,250.88211,439.22536,251.37185,439.49049,252.30252Z" style="         fill: #04294f;       "/>
      </g>
      <circle cx="333.77883" cy="204.57595" r="5.55882" style="         fill: #fff;       "/>
      <circle cx="340.71129" cy="193.44269" r="3.34604" style="         fill: #fff;       "/>
      <circle cx="391.77883" cy="204.57595" r="5.55882" style="         fill: #fff;       "/>
      <circle cx="398.71129" cy="193.44269" r="3.34604" style="         fill: #fff;       "/>
      <path d="M351.40553,181.53543a1.039,1.039,0,0,1-.78808-.10376,5.55119,5.55119,0,0,1-.99219-.68457c-.3711-.30542-.77881-.679-1.24854-1.08911-.46484-.41138-.98095-.865-1.564-1.32642-.57324-.46973-1.22754-.93359-1.92334-1.40478a21.88347,21.88347,0,0,0-2.31055-1.29883,17.36707,17.36707,0,0,0-2.64892-1.02442,14.7243,14.7243,0,0,0-5.85938-.5603,17.371,17.371,0,0,0-2.79541.5044,21.79359,21.79359,0,0,0-2.51416.83764c-.77246.33057-1.50342.66211-2.15478,1.01465-.66016.34277-1.25293.69043-1.78711,1.00635-.53907.31372-1.01026.60327-1.43213.83276a5.54213,5.54213,0,0,1-1.104.48438,1.03963,1.03963,0,0,1-.79345-.04737.88822.88822,0,0,1-.38037-.6875,3.38235,3.38235,0,0,1,.11669-1.325,7.85993,7.85993,0,0,1,.752-1.84253,11.996,11.996,0,0,1,1.51758-2.15283,15.49174,15.49174,0,0,1,2.3667-2.1875,17.27172,17.27172,0,0,1,7.24511-3.09912,16.69969,16.69969,0,0,1,9.03028.863,17.27124,17.27124,0,0,1,6.52734,4.41577,15.49075,15.49075,0,0,1,1.90918,2.596,12.01637,12.01637,0,0,1,1.08252,2.40161,7.87015,7.87015,0,0,1,.38916,1.95141,3.3884,3.3884,0,0,1-.13623,1.32325A.889.889,0,0,1,351.40553,181.53543Z" style="         fill: #04294f;       "/>
      <path d="M415.78639,180.096a.99281.99281,0,0,1-.82373-.11475,7.07889,7.07889,0,0,1-1.12842-.79883c-.43359-.35766-.92041-.79687-1.48974-1.27759-.56348-.48291-1.19727-1.01513-1.91748-1.55346-.71-.54859-1.523-1.0857-2.39356-1.62769a25.01861,25.01861,0,0,0-2.89111-1.4685,20.474,20.474,0,0,0-3.3208-1.09742,17.62229,17.62229,0,0,0-7.28809-.24853,20.51094,20.51094,0,0,0-3.38818.86841,25.005,25.005,0,0,0-2.98438,1.26831c-.90527.48144-1.75293.96191-2.49853,1.46093-.75537.4878-1.42383.97559-2.019,1.419-.60108.44092-1.1167.84595-1.57325,1.1731a7.08318,7.08318,0,0,1-1.18017.72021.99383.99383,0,0,1-.83008.05835.86552.86552,0,0,1-.38281-.727,4.14089,4.14089,0,0,1,.14746-1.50391,9.798,9.798,0,0,1,.83593-2.14184,14.702,14.702,0,0,1,1.6836-2.54615,18.699,18.699,0,0,1,2.63916-2.64111,20.6609,20.6609,0,0,1,3.63818-2.34546,20.37082,20.37082,0,0,1,4.55274-1.655,19.62137,19.62137,0,0,1,10.45312.35669,20.35732,20.35732,0,0,1,4.4292,1.96118,20.67279,20.67279,0,0,1,3.46973,2.58789,18.69788,18.69788,0,0,1,2.45312,2.815,14.6529,14.6529,0,0,1,1.50586,2.655,9.79837,9.79837,0,0,1,.68848,2.1936,4.13917,4.13917,0,0,1,.04443,1.5105A.86411.86411,0,0,1,415.78639,180.096Z" style="         fill: #04294f;       "/>
    </g>
    <path d="M315.29019,525.59455c-2.56006,3.74-5.30017,6.98478-8.18,10.53483-2.54-26.06006,4.18-18.02482,3.30993-33.82487-1.04-18.93994,3.92969-18.11011,4-14.82007C314.48989,490.77448,315.11978,518.61457,315.29019,525.59455Z" style="         fill: #04294f;                fill-rule: evenodd;       "/>
  </g>
</svg></g><!--ITEM: Illustration component 3--><g transform="translate(389.0 340.0) rotate(0.0 82.5 135.0)  scale(1.2654732870093415 1.2663927506050543)"><svg width="130.386" height="213.204" viewBox="0.0 0.0 130.386 213.204"><g>
	<path fill="#10294c" d="M117.497,1.102c-8,4.5-103.2,49.4-111.6,52.5c-3.2,1.2-5.4,4.2-5.5,7.6c-0.4,15.4-0.6,122.7-0.1,143.8   c0.1,4.6,3.9,8.3,8.6,8.2c1,0,1.9-0.2,2.9-0.6c11.8-4.6,106.5-50.8,113.8-55.1c2.5-1.4,4.1-4.1,4.1-6.9   c0.5-16.1,1.1-120.8,0.3-142.5c-0.2-4.6-4-8.2-8.6-8.1C119.997,0.002,118.597,0.402,117.497,1.102z"/>
	<polygon fill="#ffb400" points="53.597,117.802 37.897,99.902 17.397,117.802 60.497,167.102 111.597,58.602 86.997,47.002  "/>
</g>
</svg></g></svg>