<svg xmlns="http://www.w3.org/2000/svg" version="1.1" viewBox="0 0 800 800" width="800" height="800">
<!--ITEM 1--><g><defs><clipPath id="clip-path-id-viewbox-item-1"><rect x="0.0" y="0.0" width="132.975" height="35.507"/></clipPath></defs><g transform="translate(511.0 141.0) rotate(0.0 68.5 -18.0) scale(1.0302688475277308 -1.0138845861379446)"><g clip-path="url(#clip-path-id-viewbox-item-1)" transform="translate(-0.0 -0.0)"><path d="M35.936,17.515c.231,9.921-8.05,17.634-17.968,17.968C4.465,35.938,0,27.438,0,17.515S5.323,0,15.247,0,35.611,3.594,35.936,17.515Z" style="         fill: #11a191;       "/>
  <path d="M83.853,19.911c.232,9.92-8.05,15.238-17.968,15.572-13.5.455-17.968-8.045-17.968-17.968S58.032,0,67.956,0,83.529,5.99,83.853,19.911Z" style="         fill: #11a191;       "/>
  <path d="M132.968,19.911c.232,9.92-5.654,15.238-15.572,15.572-13.5.455-20.818-5.659-20.364-15.572C97.628,6.92,104.751,0,114.675,0S132.644,5.99,132.968,19.911Z" style="         fill: #11a191;       "/>
</g></g></g><!--ITEM 2--><g><defs><clipPath id="clip-path-id-viewbox-item-2"><rect x="0.0" y="0.0" width="414.641" height="335.625"/></clipPath></defs><g transform="translate(354.0 411.0) rotate(0.0 207.5 167.5) scale(1.0008658092180946 0.9981378026070763)"><g clip-path="url(#clip-path-id-viewbox-item-2)" transform="translate(-0.0 -0.0)"><path d="M159.716,324.516c-3.1,16.259,69.987-.524,65.451,5.349,10.169-9.849,66.673,8.158,76.312-6.395-1.092-5.24,61.485-7.311,65.239-2.977,24.217,7.161,19.329-6.847,23,15.132.612-26.333,13.364-11.895,20.786-24.633-3.206-84.965,1.592-164.273,4.056-223.718,1.253-30.211-13.19-56.248-26-75.989-8.054-12.414-66.068-5.78-66.9-9.52-1.8-4.424-163.278.861-163.278.861S6.019,3.453,0,15.861c.046,1.582,32.81,222.108,38.412,281.267,3.784,5.093-4.748,26.907,1.235,32.89C38.829,326.8,156.535,327.448,159.716,324.516Z" style="         fill: #ffbe0b;       "/>
</g></g></g><!--ITEM 3--><g><defs><clipPath id="clip-path-id-viewbox-item-3"><rect x="0.0" y="0.0" width="348.09" height="237.603"/></clipPath></defs><g transform="translate(358.0 240.0) rotate(0.0 176.0 120.0) scale(1.011232727168261 1.0100882564614082)"><g clip-path="url(#clip-path-id-viewbox-item-3)" transform="translate(-0.0 -0.0)"><path d="M264.429,9.254a29.67,29.67,0,0,1-10.564,0c-23.458-5.325-94.384,1.431-109.129,1.216C125.3,10.186,104.417-4.046,62.615,1.134c7.415-.919-22,23.638-31.723,32.791C41.769,23.689,21.981,79.381,13.73,85.984c-2.821,88.118,2.238,43.065,1.144,92.677C14.691,180.419.088,219.655,0,220.423-.017,219.7,12.972,231,26.558,228.529c44.885-4.976,92.613,11.043,125.477-3.31,26.432-5.928,117.529,20.278,140.578,9.944,1.171,1.794,53.813-25.817,54.354-32.031,3.25-37.373-.133-148.419-15.708-166.284-9.132-10.474-13.7-29.788-43.116-25.223C277.649,13.891,264.867,10.329,264.429,9.254Z" style="         fill: #11a191;       "/>
</g></g></g><!--ITEM 4--><g><defs><clipPath id="clip-path-id-viewbox-item-4"><rect x="0.0" y="0.0" width="431.063" height="326.048"/></clipPath></defs><g transform="translate(41.0 376.0) rotate(0.0 214.5 162.0) scale(0.9952141566313973 0.9937187162626362)"><g clip-path="url(#clip-path-id-viewbox-item-4)" transform="translate(-0.0 -0.0)"><path d="M428.931,65.525l2.132-.5A8.644,8.644,0,0,0,428.931,65.525ZM3.665,170.143c-.151-.1-.287-.195-.464-.318.052.049.12.112.177.161C3.486,170.046,3.542,170.077,3.665,170.143ZM14.4,326.048c12.37-7.222,49.193-12.534,56.849-1.779,7.2-2.986,41.878-1.85,50.812-3.62,100.117-8.025,132.959,12.041,225.74-.406-1.557-1.655,51.653,5.865,52.55,3.958,9.1-.231-8.024-37.673,2.2-44.635-13.168-9.785,6.775-26.076,16.535-30.982,6.406-32.084-3.487-82.777,4.651-113.444-8.938,2,3.82-33.379-5.138-31.216,3.419-17.325,6.18-79.873-1.466-92.961-39.393,9.548-119.6-.818-119.6-.818,6.588-4.1-40.319-10.865-36.554-8.021C255.144,6.349,233.349.773,223.338,0c-8.7,1.948-4.6-1.226-13.582,1.023,0,0-74.116,2.16-95.825,6.243C81.58,1.305,9.357,27.056,4.585,35.164c-8.89,5.18-2.407,112.113-.75,119.641-1.463,7.828,10.684,7.93,11.129,23.81.21,7.5,2.473,12.813,2.965,21.245.374,6.412-13.679,18.925-13.188,25.589C7.7,265.647,12.407,308.181,14.4,326.048Z" style="         fill: #ff7033;       "/>
</g></g></g><!--ITEM 5--><g><defs><clipPath id="clip-path-id-viewbox-item-5"><rect x="0.0" y="0.0" width="159.151" height="100.195"/></clipPath></defs><g transform="translate(447.0 330.0) rotate(0.0 83.0 52.0) scale(1.0430346023587662 1.0379759469035381)"><g clip-path="url(#clip-path-id-viewbox-item-5)" transform="translate(-0.0 -0.0)"><path d="M6.574,39.177C-1.56,38.352,1.818,41.137,0,47.53c28.862,57.246,138.507,82.009,158.062.232C173.208-15.581,25.742-13.312,6.574,39.177ZM96.407,68.052c-58.2,17.183-47-89.215,11.357-62.068l-6.948,10.429C118.553,26.635,136.329,56.27,96.407,68.052Z" style="         fill: #fff;       "/>
</g></g></g><!--ITEM 6--><g><defs><clipPath id="clip-path-id-viewbox-item-6"><rect x="0.0" y="0.0" width="441.011" height="360.646"/></clipPath></defs><g transform="translate(35.0 128.0) rotate(0.0 220.5 180.0) scale(0.9999750573114956 0.9982087698186033)"><g clip-path="url(#clip-path-id-viewbox-item-6)" transform="translate(-0.0 -0.0)"><path d="M5.216,19.276c25.425,6.3,133.75,23.128,152.5-.68C265.774,1.568,296.51-3.219,367.544,2.009c4.97.366-7.879,60.464.925,50,3.207-3.813,54.834-9.168,64.875-7.949,13.767,1.67,5.452,24.621,2.133,31.889-4.426,9.694-7.325,41.992-7.325,41.992v62.386c-4.04,44.167-2.755,74.016,7.325,77.014-12.359,55.172-8.14,78.723-13.128,79.594-22.718,3.966-53.965,18.673-78.314,21.9-38.748,5.136-66.38-2.213-62.412-2.714-4.39,1.287-22.293-7.622-30.333-8.584C184.864,358.517,68.714,338.8,0,312.36c3.972-5.112,2.3-37.644,9.074-56.495,3.439-22.785,4.532-23.375,2.3-23.913C-3.913,219.235,2.877,36.443,5.216,19.276Z" style="         fill: #f20089;       "/>
</g></g></g><!--ITEM 8--><g><defs><clipPath id="clip-path-id-viewbox-item-8"><rect x="0.0" y="0.0" width="135.681" height="35.321"/></clipPath></defs><g transform="translate(199.0 575.0) rotate(0.0 70.0 18.0) scale(1.0318320177475107 1.0192236912884687)"><g clip-path="url(#clip-path-id-viewbox-item-8)" transform="translate(-0.0 -0.0)"><path d="M1.206,11.012a2.709,2.709,0,0,1,2.09.882c.851.734,1.9-.478,2.662.178.817.706-.178,1.961.654,2.57.886.655,1.124.333,1.945.938a19.684,19.684,0,0,0,1.733,1.186c.911.584,1.341-.09,2.179.445.893.576-.332,2.632.561,3.13.957.535,1.933-1.211,2.8-.73.924.515-.006,2.3.9,2.737.971.476,1.5-.6,2.392-.165.963.456,1.624-.959,2.513-.586.954.41,1.115.044,2,.423.95.4.643,1.153,1.542,1.522.966.363-.045,2.974.889,3.325,1,.376,1.962-2.254,2.864-1.916.972.35.587,1.464,1.512,1.774.989.324.5,1.847,1.436,2.154,1,.333,1.122-.054,2.063.212,1.01.288,1.231-.481,2.165-.216,1,.279.688,1.453,1.637,1.7,1.02.25,1.51-1.69,2.443-1.461,1,.244.632,1.8,1.581,2.032,1.017.245,1.279-.951,2.22-.748,1.009.209.686,1.776,1.642,1.973,1.024.2,1.021.227,1.98.386,1.028.177,1.237-1,2.186-.842,1.019.174,1.212-1.01,2.153-.85,1.013.157,1.191-1.042,2.128-.909,1,.138.9.931,1.842,1.06,1.009.136.717,2.531,1.681,2.627,1.031.108,1.074-.289,2.033-.189,1.028.107,1.1-.69,2.058-.591,1.024.087,1.058-.32,2.011-.249,1.02.074.881,2.069,1.849,2.138,1.036.073,1.058-.316,2.023-.281,1.035.042,1.053-.358,2.016-.319,1.032.041,1.045-.359,2.005-.321,1.03.02,1.023.411,1.988.421l2,.015c1.034.007,1.03-.384,1.993-.412,1.034-.025,1-1.625,1.951-1.649,1.018-.026,1.088,1.973,2.055,1.948,1.035-.054,1.016-.458,1.979-.513,1.03-.061,1.13,1.536,2.106,1.478,1.045-.058.953-1.257,1.918-1.349l2-.188c1.036-.1.993-.49,1.956-.592,1.028-.134,1.27,1.851,2.25,1.723,1.048-.137.885-1.326,1.851-1.453,1.038-.13,1.037-.162,2-.316,1.035-.176,1.238,1.006,2.216.839,1.05-.185.458-3.307,1.4-3.513,1.012-.215,1.5,2.135,2.472,1.928,1.036-.223,1.213.564,2.189.346,1.048-.27.183-3.765,1.116-4.007,1-.259,1.833,2.831,2.806,2.577,1.039-.284.7-1.461,1.652-1.748,1.022-.317.78-1.079,1.722-1.373,1.013-.308.879-.715,1.811-1.049.994-.366,1.551,1.134,2.5.782,1.022-.372.13-2.6,1.033-3,.969-.42,1.766,1.415,2.7,1.006,1-.44.094-2.2,1.043-2.694s2.04,1.654,2.969,1.178c.99-.509.8-.845,1.7-1.39.969-.581-.064-2.294.8-2.814.926-.551,1.8.784,2.667.164.92-.654,1.855.646,2.747.006.955-.671.689-1.033,1.539-1.734.83-.7,1.784.058-.315-3.409a29.379,29.379,0,0,0-7.162-8.079c-3.09-2.626-.085,1.116-.727,1.664-.659.559-1.378-.37-2.029.077-.685.484.71,2.438.019,2.931-.737.538-2.71-2.492-3.377-2.1-.72.431-.309,1.118-1,1.533-.721.45.219,2.179-.536,2.571-.811.414-1.353-.657-2.088-.28-.78.412-.121,1.838-.911,2.187-.847.367-.688.734-1.484,1.081-.854.379-1.748-1.862-2.536-1.574-.851.313-1.128-.438-1.909-.149-.834.307.074,2.971-.769,3.226-.9.277-1.136-.486-1.962-.229-.894.268-1.549-2.009-2.365-1.8l-1.7.439c-.874.228-.206,2.947-1.057,3.168-.925.2-1.541-2.534-2.374-2.357-.9.19-.976-.2-1.808-.023-.886.2-.455,2.524-1.319,2.681-.927.158-1.128-1.025-1.981-.88-.915.151-.668,1.754-1.547,1.862-.94.123-1.156-1.462-2.017-1.35-.924.122-.877.519-1.743.633-.933.093-.85.884-1.729.968-.943.088-1.05-1.107-1.919-1.025-.933.093-1.024-1.111-1.889-1.061-.928.054-.9.453-1.773.505-.929.052-.834,2.058-1.719,2.1-.948.023-.921.823-1.812.845-.954.024-.946.424-1.839.447-.959.029-.976-2.388-1.853-2.391-.943-.008-.935-1.208-1.806-1.214l-1.8-.021c-.932-.037-.971,1.162-1.851,1.127-.94-.038-.994,1.161-1.881,1.126-.951-.032-.926-.451-1.809-.51-.947-.068-.834-1.664-1.7-1.727-.934-.07-.9-.457-1.77-.535-.927-.1-1.12,1.893-2,1.8-.941-.1-1.072,1.1-1.96,1-.955-.093-.561-3.291-1.421-3.4-.922-.127-1.193,1.854-2.07,1.734-.936-.133-1.116,1.069-2,.927-.942-.161-.618-2.135-1.481-2.283l-1.79-.306c-.927-.154-1,.212-1.857.042-.922-.19-.679-1.365-1.529-1.541-.91-.2-.832-.56-1.668-.771-.9-.219-1.359,1.727-2.214,1.518-.917-.224-.228-2.938-1.058-3.14-.883-.235-1.192.912-2.024.679-.887-.252-1.22.9-2.06.663-.9-.25-1.014.126-1.842-.147-.89-.292-.023-2.955-.824-3.217-.857-.288-1.261.869-2.061.572-.85-.32-1.677,1.933-2.5,1.625-.879-.33-.009-2.567-.8-2.863-.835-.351-.679-.726-1.45-1.055l-1.6-.683c-.828-.354-.469-1.108-1.211-1.459-.784-.385-1.85,1.766-2.616,1.393-.823-.392-.434-1.121-1.158-1.52-.771-.432-1.555.964-2.3.549-.8-.438-.539-.755-1.287-1.239s.325-2.167-.348-2.6c-.731-.456-.952-.13-1.586-.606-.681-.5-1.158.139-1.809-.339-.7-.5-1.185.108-1.8-.418-.656-.566.131-1.471-.461-1.975-.649-.532-1.145.015-1.708-.532C9.82.951,12.092-1.3,8.78,1.043c-3.636,2.582-4.613,3.292-7.333,6.8C-.956,11.1.12,10.487,1.206,11.012Z" fill="#000000"/>
</g></g></g><!--ITEM 9--><g><defs><clipPath id="clip-path-id-crop-item-9"><rect transform="scale(1.3262183406113537 1.3273632653061225)" x="65.97040039559954" y="2.061575012362487" width="162.0" height="244.0"/></clipPath><clipPath id="clip-path-id-viewbox-item-9"><rect x="0.0" y="0.0" width="303.704" height="325.204"/></clipPath></defs><g clip-path="url(#clip-path-id-crop-item-9)" transform="translate(446.0 495.0) rotate(-53.2070205738583 114.5 122.5) scale(0.7540236546110687 0.7533732672414853)"><g clip-path="url(#clip-path-id-viewbox-item-9)" transform="translate(-0.0 -0.0)"><path d="M172.478,325.2l-2.725-8.447,44.652-14.4,43.019-17.706,36.247-20.071L287.6,249.658,222.915,260.3a4.408,4.408,0,0,1-1.925-.108l-26.42-7.449a4.438,4.438,0,0,1-2.3-6.989l31.181-40.25,28.693-40.426,25.586-39.1-3.716-11.984-34.888,34.162c-.058.057-.117.112-.178.165l-42,36.865a4.439,4.439,0,0,1-4.767.7L176.4,178.7a4.436,4.436,0,0,1-2.018-6.232l19.852-34.908c.037-.065.076-.129.116-.192l21.759-34.127c.053-.084.11-.165.168-.245L236.932,74.92,218.807,60.5l-31.738,40.314-31.631,44.57a4.439,4.439,0,0,1-6.261,1l-17.411-12.9a4.433,4.433,0,0,1-1.725-4.359L140.062,73.92c.023-.13.052-.258.087-.386L153.938,23.47,127.584,10.859l-7.818,35.8a4.317,4.317,0,0,1-.14.5L106.046,86.61l-9.47,39.621a4.435,4.435,0,0,1-3.334,3.3L75.078,133.65a4.437,4.437,0,0,1-5.3-3.293L59.759,88.575,53.783,63.3,16.526,66.4l9,32.782a4.411,4.411,0,0,1,.153.941l2.485,47.25a4.423,4.423,0,0,1,0,.54L24.9,195.031a4.433,4.433,0,0,1-.082.587L8.693,274.033,0,272.246l16.061-78.124,3.224-46.552-2.445-46.5L6.553,63.6A4.437,4.437,0,0,1,10.464,58l46.39-3.861a4.449,4.449,0,0,1,4.688,3.4l6.852,28.98,8.995,37.5,11.2-2.541,8.878-37.145a4.237,4.237,0,0,1,.12-.413L111.149,44.51l8.959-41.02A4.437,4.437,0,0,1,126.36.435l34.759,16.631a4.436,4.436,0,0,1,2.362,5.182L148.759,75.7,139.267,128l11.553,8.559L179.9,95.59c.043-.061.086-.119.131-.177l34.566-43.906a4.438,4.438,0,0,1,6.25-.728L245.8,70.635a4.437,4.437,0,0,1,.811,6.1l-23.1,31.395-21.62,33.908-17.4,30.591,8.753,3.988L233,141.73l39.993-39.163a4.439,4.439,0,0,1,7.345,1.857l6.486,20.92a4.439,4.439,0,0,1-.525,3.744l-26.776,40.918c-.031.047-.062.094-.094.139l-28.8,40.57c-.036.051-.073.1-.111.149l-27.208,35.12,19.135,5.4,67.206-11.055a4.431,4.431,0,0,1,4.832,2.706l8.891,21.854a4.439,4.439,0,0,1-1.961,5.555l-39.916,22.1a4.641,4.641,0,0,1-.461.221l-43.416,17.87c-.107.044-.217.084-.327.119Z" style="         fill: #fff;       "/>
</g></g></g><!--ITEM 10--><g><defs><clipPath id="clip-path-id-crop-item-10"><rect transform="scale(1.2051746031746031 1.2000147601476014)" x="0.0" y="28.862050173074785" width="71.0" height="179.0"/></clipPath><clipPath id="clip-path-id-viewbox-item-10"><rect x="0.0" y="0.0" width="303.704" height="325.204"/></clipPath></defs><g clip-path="url(#clip-path-id-crop-item-10)" transform="translate(441.0 467.0) rotate(-56.29596335667219 126.0 135.5) scale(0.8297552880436214 0.8333230833569083)"><g clip-path="url(#clip-path-id-viewbox-item-10)" transform="translate(-0.0 -0.0)"><path d="M172.478,325.2l-2.725-8.447,44.652-14.4,43.019-17.706,36.247-20.071L287.6,249.658,222.915,260.3a4.408,4.408,0,0,1-1.925-.108l-26.42-7.449a4.438,4.438,0,0,1-2.3-6.989l31.181-40.25,28.693-40.426,25.586-39.1-3.716-11.984-34.888,34.162c-.058.057-.117.112-.178.165l-42,36.865a4.439,4.439,0,0,1-4.767.7L176.4,178.7a4.436,4.436,0,0,1-2.018-6.232l19.852-34.908c.037-.065.076-.129.116-.192l21.759-34.127c.053-.084.11-.165.168-.245L236.932,74.92,218.807,60.5l-31.738,40.314-31.631,44.57a4.439,4.439,0,0,1-6.261,1l-17.411-12.9a4.433,4.433,0,0,1-1.725-4.359L140.062,73.92c.023-.13.052-.258.087-.386L153.938,23.47,127.584,10.859l-7.818,35.8a4.317,4.317,0,0,1-.14.5L106.046,86.61l-9.47,39.621a4.435,4.435,0,0,1-3.334,3.3L75.078,133.65a4.437,4.437,0,0,1-5.3-3.293L59.759,88.575,53.783,63.3,16.526,66.4l9,32.782a4.411,4.411,0,0,1,.153.941l2.485,47.25a4.423,4.423,0,0,1,0,.54L24.9,195.031a4.433,4.433,0,0,1-.082.587L8.693,274.033,0,272.246l16.061-78.124,3.224-46.552-2.445-46.5L6.553,63.6A4.437,4.437,0,0,1,10.464,58l46.39-3.861a4.449,4.449,0,0,1,4.688,3.4l6.852,28.98,8.995,37.5,11.2-2.541,8.878-37.145a4.237,4.237,0,0,1,.12-.413L111.149,44.51l8.959-41.02A4.437,4.437,0,0,1,126.36.435l34.759,16.631a4.436,4.436,0,0,1,2.362,5.182L148.759,75.7,139.267,128l11.553,8.559L179.9,95.59c.043-.061.086-.119.131-.177l34.566-43.906a4.438,4.438,0,0,1,6.25-.728L245.8,70.635a4.437,4.437,0,0,1,.811,6.1l-23.1,31.395-21.62,33.908-17.4,30.591,8.753,3.988L233,141.73l39.993-39.163a4.439,4.439,0,0,1,7.345,1.857l6.486,20.92a4.439,4.439,0,0,1-.525,3.744l-26.776,40.918c-.031.047-.062.094-.094.139l-28.8,40.57c-.036.051-.073.1-.111.149l-27.208,35.12,19.135,5.4,67.206-11.055a4.431,4.431,0,0,1,4.832,2.706l8.891,21.854a4.439,4.439,0,0,1-1.961,5.555l-39.916,22.1a4.641,4.641,0,0,1-.461.221l-43.416,17.87c-.107.044-.217.084-.327.119Z" style="         fill: #fff;       "/>
</g></g></g><!--ITEM 11--><g><defs><clipPath id="clip-path-id-viewbox-item-11"><rect x="0.0" y="0.0" width="268.18" height="266.935"/></clipPath></defs><g transform="translate(133.0 231.0) rotate(0.0 145.0 144.0) scale(1.0813632634797523 1.0789143424429168)"><g clip-path="url(#clip-path-id-viewbox-item-11)" transform="translate(-0.0 -0.0)"><path d="M107.853,266.935a3.993,3.993,0,0,1-2.451-.839L91.934,255.648l-14.354-4.71a4.023,4.023,0,0,1-.5-.2L56.34,240.65a4,4,0,0,1-2.25-3.7l.537-21.759c0-.076.006-.152.013-.228l1.574-19.221L40.4,192.841a4.063,4.063,0,0,1-.634-.171L20.689,185.8A4,4,0,0,1,18.2,183.15l-6.889-23.664L5.1,145.7a3.844,3.844,0,0,1-.157-.407L.2,130.71a4,4,0,0,1,1.484-4.5l13.406-9.539a3.993,3.993,0,0,1,.924-.49l15.1-5.623,8.385-6.168-6.037-8.956a3.987,3.987,0,0,1-.311-.552L26.464,80.477a3.9,3.9,0,0,1-.218-.584L21.938,64.817a4,4,0,0,1,.787-3.677L34.6,47.052,45.657,31.936a4,4,0,0,1,4.114-1.54l17.007,3.861,16.591,4a3.963,3.963,0,0,1,1.1.444L96.7,45.927l6.658-18.2L112.437,3.17A4,4,0,0,1,116.055.559L132.656,0a4.1,4.1,0,0,1,1.389.2l15.36,5.08,14.25.768a4,4,0,0,1,3.381,2.243L173.4,21.369a4.121,4.121,0,0,1,.239.617l4.466,15.1,4.772,12.571,17.65-7.7a3.987,3.987,0,0,1,.895-.271l20.993-3.75a4,4,0,0,1,3.518,1.095l12.319,12.2a4.037,4.037,0,0,1,.636.818l9,15.337,8.671,15.569a4,4,0,0,1,0,3.895l-9.8,17.563a4.264,4.264,0,0,1-.275.428l-9.936,13.448,12.414,9.491,15.852,9.517a4,4,0,0,1,1.93,3.125l1.43,18.761a4.01,4.01,0,0,1-.135,1.379L263.1,178.257l-3.228,19.014a4,4,0,0,1-3.625,3.318l-22.028,1.755-17.584,3.128-1.4,12.295,4.056,17.5a4,4,0,0,1-2.5,4.652L197.4,247.144l-17.813,7.1-16.892,9.5a4,4,0,0,1-4.759-.627L145.33,250.776l-9.7-8.716-9.986,10.321c-.068.069-.137.136-.209.2L110.52,265.917A3.991,3.991,0,0,1,107.853,266.935ZM80.332,243.422l14.754,4.841a3.992,3.992,0,0,1,1.2.64l11.381,8.829L120,246.714l12.568-12.988a4,4,0,0,1,5.549-.193l12.63,11.35c.042.038.083.077.124.116l10.524,10.3,14.511-8.163a3.844,3.844,0,0,1,.48-.23l18.145-7.227,16.173-6.027L207.28,218.9a4,4,0,0,1-.079-1.357L209.02,201.6a4,4,0,0,1,3.273-3.485L233,194.433a3.8,3.8,0,0,1,.384-.049l19.115-1.522,2.741-16.15c.024-.136.054-.272.091-.406l4.8-17.212-1.22-16-14.271-8.569a3.713,3.713,0,0,1-.371-.251l-15.718-12.018a4,4,0,0,1-.788-5.555L239.891,100.3,248.484,84.9,240.943,71.36l-8.687-14.808L221.783,46.181l-18.487,3.3L182.23,58.671a4,4,0,0,1-5.338-2.247l-6.316-16.638c-.036-.093-.068-.189-.1-.285l-4.414-14.928L160.873,13.91l-12.432-.67a4.008,4.008,0,0,1-1.041-.2L132.21,8.021l-13.2.443-8.141,22.028-8.3,22.7a4,4,0,0,1-5.791,2.07l-15.86-9.367L64.954,42.046,50.563,38.78,40.977,51.887c-.054.074-.111.146-.17.216L30.215,64.667l3.637,12.727L40.273,91.23l8.006,11.875a4,4,0,0,1-.947,5.458L35.4,117.338a4.011,4.011,0,0,1-.975.526L19.3,123.5,8.713,131.029l3.769,11.584,6.241,13.84a4,4,0,0,1,.194.526l6.4,21.98,16.849,6.073,19.053,3.5a4,4,0,0,1,3.264,4.261l-1.861,22.714-.47,19.073Zm61.353-33.72c-.122,0-.245-.006-.367-.017l-18.207-1.676a4.149,4.149,0,0,1-.532-.085l-18.086-4.169a4.005,4.005,0,0,1-1.667-.829L88.6,191.032a4.04,4.04,0,0,1-.44-.428l-12.056-13.72a4,4,0,0,1-.806-1.424L69.761,158.1a3.99,3.99,0,0,1-.18-.938l-1.234-17.69-2.633-16.522a4,4,0,0,1,.26-2.172l6.415-15.338,5.993-16A4.009,4.009,0,0,1,79.935,87.5l14.476-9.49a4.019,4.019,0,0,1,1.261-.545l16.449-3.943c.061-.015.122-.028.183-.04l16.651-3.18a4.048,4.048,0,0,1,1.223-.043l17.428,2.074a4,4,0,0,1,1.686.605l14.664,9.4,14.619,7.9a4.022,4.022,0,0,1,1.413,1.281l9.261,13.719,10.739,13.637a4,4,0,0,1,.838,2.868l-1.707,17.262-.466,19.288a4,4,0,0,1-.2,1.167l-6.141,18.445a4.03,4.03,0,0,1-.422.887l-10.517,16.5a4.007,4.007,0,0,1-1.31,1.277l-16.876,10.153a3.994,3.994,0,0,1-1.571.542l-19.436,2.4A4.032,4.032,0,0,1,141.685,209.7Zm-17.571-9.635,17.508,1.612,18.164-2.246,15.343-9.231,9.745-15.287,5.8-17.407.456-18.839c0-.1.009-.2.019-.3l1.562-15.806-9.833-12.487c-.06-.076-.118-.155-.172-.236l-8.794-13.027-13.886-7.507c-.088-.047-.173-.1-.257-.151L145.747,80.17l-15.9-1.892L113.9,81.325,98.215,85.084l-12.8,8.391-5.561,14.844c-.018.047-.036.094-.056.14l-6,14.358,2.482,15.573c.018.117.032.234.04.352l1.214,17.386,5.139,16.1,11.3,12.861,13.253,11.083Z" style="         fill: #fff;       "/>
</g></g></g><!--ITEM 12--><g><defs><clipPath id="clip-path-id-viewbox-item-12"><rect x="0.0" y="0.0" width="748.699" height="675.807"/></clipPath></defs><g transform="translate(30.0 33.0) rotate(0.0 375.0 338.5) scale(1.001737680963912 1.001765296896895)"><g clip-path="url(#clip-path-id-viewbox-item-12)" transform="translate(-0.0 -0.0)"><g>
    <path d="M748.69,491.887c-.07,1.52-1.26,1.45-1.38,3.06-.12,1.51-1.29,1.41-1.45,3.01-.15,1.49.65,1.57.48,3.18-.19,1.5.2,1.55-.01,3.16-.2,1.51-1.82,1.26-2.07,2.85-.24,1.48,1.33,1.77,1.01,3.38-.31,1.5-1.45,1.26-1.83,2.84-.37,1.47,2,2.05,1.56,3.68-.42,1.51-.79,1.4-1.26,3.01-.48,1.51-3.15.65-3.65,2.19-.52,1.43,2.1,2.4,1.51,4-.6,1.48-.62,1.48-1.29,3.06-.66,1.48-2.86.44-3.58,1.94-.71,1.4-1.45,1-2.25,2.46-.78,1.33,1.56,2.79.62,4.3-.94,1.38-1.62.9-2.65,2.32-1.05,1.31-2.92-.24-3.99,1.05-1.11,1.14-.8,1.43-2.04,2.64-1.22,1.05-.13,2.31-1.57,3.44a2.561,2.561,0,0,1-1.73.53,3.3,3.3,0,0,0-1.8.49c-1.41.85-.38,2.65-2.1,3.48a3.968,3.968,0,0,0-1.43,1.15,3.972,3.972,0,0,1-1.62,1.07c-1.71.67-2.84-2.8-4.48-2.33-.77.23-1.02.91-1.33,1.57-.29.66-.63,1.34-1.54,1.51a2.269,2.269,0,0,1-1.78-.35,2.813,2.813,0,0,0-1.83-.42c-.82.09-1.31,1.27-1.82,1.98s-1,.92-1.58-1.08c-1.13-4.39-.62-6.79.29-10.8.44-2.01.65-2.71.93-2.91.27-.22.61.13,1.16.05,1.09-.14,1.07-.46,2.18-.66.52-.1.85.25,1.22.59s.75.68,1.32.5c1.06-.33,1.58,1.28,2.77.79,1.12-.43.34-2.24,1.37-2.78.99-.46.78-.84,1.76-1.45.93-.52,2.26,1.36,3.33.61,1.04-.8-.36-2.33.56-3.1.82-.78,2.22.6,3.17-.35.81-.97-1.02-2.51-.23-3.46.68-.97,2-.01,2.77-1.11.67-1.08.35-1.27,1.04-2.42.61-1.12-.07-1.49.55-2.68.54-1.14-.52-1.65.04-2.85.48-1.15,3.44.1,3.98-1.22.47-1.27-2.9-2.52-2.44-3.78.4-1.21,1.15-.96,1.58-2.28.37-1.24,2.66-.6,3.06-1.99.36-1.3-2.78-2.09-2.45-3.44.31-1.27,1.46-1.02,1.75-2.42.26-1.31.27-1.31.5-2.73.21-1.32-.94-1.5-.75-2.91.17-1.32,2.16-1.06,2.35-2.51.14-1.35-.26-1.4-.11-2.84.14-1.36.11-1.36.22-2.82.11-1.36-1.09-1.43-1.02-2.88.05-1.35,1.68-1.28,1.71-2.76.03-1.37-.37-1.38-.34-2.85,0-1.37,1.99-1.37,1.99-2.86,0-1.4-1.62-1.37-1.66-2.84-.05-1.38-.42-1.37-.51-2.84-.07-1.37-.07-1.37-.15-2.85-.1-1.37.29-1.4.18-2.88-.1-1.38-.52-1.34-.66-2.81-.14-1.37-.52-1.33-.7-2.8-.17-1.37-.57-1.32-.75-2.78-.2-1.35,1.78-1.64,1.57-3.11-.2-1.38-.62-1.31-.86-2.78-.24-1.37-1-1.23-1.28-2.68-.26-1.36-.66-1.28-.94-2.73-.29-1.34,2.06-1.84,1.74-3.31-.28-1.36.47-1.54.13-3-.34-1.36-1.48-1.08-1.87-2.52-.35-1.34-1.51-1.03-1.89-2.46-.39-1.32-1.54-.99-1.95-2.4-.38-1.31-.4-1.3-.84-2.7-.42-1.29,1.12-1.8.63-3.2-.46-1.3-1.58-.9-2.08-2.27-.48-1.28,1.02-1.84.5-3.22-.5-1.29-2.38-.53-2.92-1.87-.51-1.26.59-1.72-.01-3.06-.56-1.24-1.26-.92-1.89-2.22-.59-1.2-.93-1.04-1.58-2.32-.61-1.18.8-1.92.13-3.21-.65-1.18.39-1.76-.33-3.03-.68-1.2-3.11.27-3.84-.93-.68-1.12,1.66-2.62.85-3.84-.75-1.12-.09-1.58-.96-2.75-.81-1.09-1.1-.88-2.01-1.99-.86-1.03-2.05-.06-2.98-1.08-.87-.95-1.73-.19-2.67-1.14-.88-.87.56-2.34-.47-3.28-.96-.85-2.26.6-3.26-.21-.95-.73.56-2.69-.57-3.48-1.05-.7-1.47-.11-2.59-.78a23.929,23.929,0,0,0-2.2-1.24c-1.08-.53-1.24-.22-2.41-.68-1.07-.44-.52-1.96-1.79-2.35-1.19-.39-1.6,1.19-2.79.93-1.12-.28-1.16-.21-2.36.42a2.087,2.087,0,0,0-.48.14c-.09,1.21-.18,2.29-.27,3.39-.13,1.55-.26,3.12-.38,5.11s-.28,4.39-.39,7.6a53.874,53.874,0,0,1-1.64,11.99,57.059,57.059,0,0,0-1.82,12.57c-.57,11.91,2.55,12.13,1.84,24.89-.72,11.87-1.92,11.77-2.71,24.46-.73,11.83-.73,11.83-1.51,24.5-.72,11.82.52,11.91-.16,24.54a65.737,65.737,0,0,1-1.54,11.81,62.174,62.174,0,0,0-1.48,12.46c-.29,11.76-.03,11.79-.08,24.35-.03,2.93-.04,5.13-.06,6.98-.02,1.97-.04,3.57-.06,5.19a101.071,101.071,0,0,1-1.24,13.82c-1.07,6.51-1.84,9.8-2.58,13.24a51.765,51.765,0,0,1-1.67,5.58q-.3.795-.63,1.68c-.26.57-.53,1.18-.82,1.82s-.6,1.33-.98,2.03-.79,1.43-1.22,2.21c-.83,1.46-1.68,2.62-2.4,3.69-.77,1.02-1.49,1.87-2.15,2.64a35.358,35.358,0,0,1-3.78,3.61c-.62.51-1.23,1.04-1.9,1.57s-1.39,1.08-2.17,1.72c-.78.62-1.65,1.3-2.63,2.07-.99.74-2.1,1.58-3.36,2.53-2.37,1.73-4.19,2.9-5.72,3.87-1.53.95-2.77,1.71-4.06,2.42a65.634,65.634,0,0,1-10.72,4.91,31.5,31.5,0,0,1-10.62,2.02,65.7,65.7,0,0,0-11.07,1.18,72.217,72.217,0,0,0-10.25,2.47,45.874,45.874,0,0,1-10.85,1.99c-5.13.39-7.68.6-10.33.85-2.64.22-5.38.46-10.84.57-10.18.15-10.19.13-21.03.11-10.09-.04-10.1-.55-20.84-.52-5,.03-7.49.2-10.06.38s-5.22.36-10.48.67a87.9,87.9,0,0,0-9.79,1.09c-2.61.4-5.31.81-10.73,1.4-10.11,1.12-10.08,1.5-20.93,2.46a35.324,35.324,0,0,1-10.28-.36,42.232,42.232,0,0,0-10.81-.45c-5.06.36-7.59.57-10.2.82s-5.33.5-10.75.77c-10.12.43-10.1,1.3-20.95,1.67-10.13.21-10.12.67-20.98.85-10.13.03-10.14-2.76-20.97-2.78-10.11-.1-10.1-.98-20.93-1.16-10.1-.22-10.12,1.27-20.95.95-10.1-.31-10.13,1.16-20.96.74-10.1-.38-10.14,1.06-20.96.58-10.1-.44-10.1-.44-20.91-.97-10.09-.49-10.02-2.39-20.82-2.96-10.09-.53-10.14.87-20.94.27-10.08-.56-10-2.44-20.79-3.05-1.26-.07-2.37-.1-3.35-.09-.94.03-1.77.09-2.52.17a30.264,30.264,0,0,0-3.98.77,52.529,52.529,0,0,1-10.26,1.62,78.637,78.637,0,0,1-9.97.22,63.86,63.86,0,0,0-10.67.52c-5.04.58-7.57,1.1-10.2,1.59a74.769,74.769,0,0,1-10.95,1.32c-5.23.26-7.9.32-10.66.39a65.947,65.947,0,0,1-11.49-.73,31.111,31.111,0,0,1-3.62-.7,22.431,22.431,0,0,1-2.83-.83,33.187,33.187,0,0,1-4.36-1.87c-.67-.33-1.35-.67-2.07-1.02-.72-.39-1.48-.8-2.34-1.23-.42-.21-.88-.43-1.35-.66-.48-.26-.98-.53-1.51-.81-1.07-.56-2.28-1.14-3.63-1.94a38.168,38.168,0,0,1-5.79-3.91c-1.41-1.27-2.55-2.29-3.61-3.45-.53-.59-1.06-1.18-1.63-1.81-.58-.61-1.18-1.27-1.82-2.06-.65-.76-1.37-1.6-2.21-2.53-.78-.99-1.66-2.08-2.68-3.32-1.83-2.39-3.28-4.1-4.5-5.55-1.31-1.42-2.36-2.56-3.43-3.73a32.347,32.347,0,0,1-6.92-11.39,35.377,35.377,0,0,1-1.34-4.06,26.721,26.721,0,0,1-.74-3.32,39.508,39.508,0,0,1-.52-5.4c-.04-.85-.07-1.7-.14-2.6-.03-.9-.08-1.85-.18-2.9s-.24-2.19-.4-3.48-.42-2.72-.66-4.35a88.586,88.586,0,0,1-1.21-12.35c-.07-3.18-.2-6.45-.49-12.93-.26-6.04-.38-9.05-.51-12.18s-.24-6.35-.16-12.77c.21-10.92-1.07-11.93-1.02-21.71-.06-.02-.12-.04-.19-.06-1.77-.61-1.22-2.11-3.03-2.79-1.68-.65-1.08-2.14-2.82-2.86-1.62-.69-2.42,1.14-4.17.35-1.62-.76-1.79-.4-3.52-1.24-1.61-.81-.52-2.94-2.18-3.82-1.66-.91-2.52.91-4.21-.07-1.56-.93-.53-2.62-2.14-3.65-1.51-.97-2.84,1.03-4.51-.14a2.583,2.583,0,0,1-1.06-1.78,3.029,3.029,0,0,0-1.1-1.88c-1.47-1.25-1.74-.93-3.31-2.46-1.44-1.55-2.06-.94-3.61-3.08a10.641,10.641,0,0,0-1.94-2.1,6.777,6.777,0,0,1-.92-1.11,5.542,5.542,0,0,1-.79-1.92,4.13,4.13,0,0,1-.11-.86,1.486,1.486,0,0,1,.54-1.04,12.071,12.071,0,0,1,.93-.79c.64-.53,1.21-1.09,1.08-1.91-.27-1.7-3.83-1.16-4.13-3.02-.22-1.73.57-1.84.33-3.69-.22-1.73,2.16-2.02,1.93-3.85-.17-1.71-3.35-1.37-3.54-3.23-.17-1.73,1.02-1.84.84-3.69-.12-1.72-.12-1.72-.26-3.57-.13-1.72-1.33-1.64-1.46-3.5-.09-1.73,1.91-1.84,1.82-3.68-.09-1.72-.49-1.7-.58-3.55-.05-1.71-.05-1.71-.11-3.56-.05-1.71-1.24-1.68-1.3-3.53-.02-1.72,1.58-1.75,1.57-3.58-.02-1.72-.42-1.72-.44-3.55.01-1.72,2.02-1.71,2.03-3.54.01-1.7-1.59-1.72-1.57-3.55.03-1.71-.36-1.72-.32-3.55.04-1.71.04-1.71.08-3.55.05-1.71.47-1.69.53-3.52.07-1.7-.33-1.72-.26-3.55.07-1.7-.31-1.72-.22-3.55.09-1.7-.31-1.72-.22-3.55.09-1.71,2.1-1.59,2.22-3.41.1-1.69-.29-1.72-.18-3.54.11-1.7-.68-1.75-.54-3.57.12-1.7-.27-1.73-.14-3.55.13-1.7,2.53-1.5,2.68-3.31.14-1.69.94-1.62,1.09-3.43.14-1.69-1.05-1.79-.88-3.6.15-1.69-1.04-1.8-.87-3.61.15-1.69-1.03-1.81-.86-3.62.17-1.69.17-1.69.35-3.5.17-1.69,1.76-1.5,1.93-3.29.17-1.67-1.02-1.78-.85-3.57.15-1.66,1.75-1.51,1.91-3.3.15-1.68-1.84-1.86-1.67-3.65.15-1.68,1.34-1.57,1.51-3.37.15-1.69-.65-1.77-.48-3.58.17-1.7-.23-1.75-.05-3.58.19-1.73,1.78-1.55,1.99-3.41.24-1.76,1.39-1.57,1.69-3.47.26-1.74-2.48-2.23-2.1-4.26.2-.97,1.02-1.32,1.81-1.63a2.724,2.724,0,0,0,1.92-1.66,4.123,4.123,0,0,1,1.06-1.81,5.512,5.512,0,0,0,.57-.71,6.838,6.838,0,0,0,.71-1.16c.45-.96.77-1.48.98-2.03a7.531,7.531,0,0,1,1.41-2.07c1.72-1.61.79-2.95,3.16-4.35a5.629,5.629,0,0,0,1.24-.84,7.7,7.7,0,0,0,.76-.74,4.149,4.149,0,0,1,2.16-1.36,2.542,2.542,0,0,1,1.36-.04,3.661,3.661,0,0,1,.99.49,3.091,3.091,0,0,0,2.26.61c1.87-.27,1.65-2.26,3.66-2.44,1.86-.15,2,2.26,3.88,2.15,1.74-.06,1.73-.89,3.58-.92,1.72-.04,1.72-.04,3.56-.07,1.71-.02,1.71-.42,3.53-.43,1.69-.01,1.7,1.59,3.51,1.58,1.68-.01,1.68-1.6,3.48-1.61a5.254,5.254,0,0,0,3.36-.82c1.79-.41,2.14-1.62,3.37,2.38a18.27,18.27,0,0,1,.95,5.23c-.78,2.47-1.5,4.27-2.26,6.66-.42-.31-.91-1.07-1.74-1.07-1.7.01-1.69.81-3.5.81-1.69.01-1.69-1.19-3.5-1.18-1.68,0-1.68.81-3.47.82-1.67.01-1.67.8-3.44.83-1.66.02-1.65.42-3.39.46-1.63.03-1.67-1.95-3.41-1.89-1.71.09-1.62-.32-3.3-.19-1.54.15-1.39,1.72-2.87,1.93a2.491,2.491,0,0,1-1.4-.15,1.955,1.955,0,0,0-1.4-.08c-.61.14-.65.82-.66,1.47a6.027,6.027,0,0,1-.05.89c-.03.25-.04.46-.19.52a.653.653,0,0,1-.2.05.3.3,0,0,1-.13-.01,1.237,1.237,0,0,1-.3-.13.56.56,0,0,0-.62-.01,5.022,5.022,0,0,0-.7,1.03,4.162,4.162,0,0,1-.56.76,4.329,4.329,0,0,0-.3.37,2.177,2.177,0,0,0-.15.27c-.05.12-.09.25-.14.41-.36,1.15-2.67.62-3.04,2.17-.27,1.53,2.06,1.9,1.82,3.54-.24,1.51.97,1.71.75,3.37-.19,1.58-2.96,1.28-3.16,3.03-.16,1.65.23,1.68.06,3.46-.15,1.66,1.04,1.77.88,3.56-.15,1.67,1.04,1.78.88,3.57-.15,1.69-2.94,1.44-3.11,3.24-.15,1.68,1.84,1.87,1.67,3.68-.16,1.69-.56,1.65-.74,3.47-.17,1.68-1.36,1.58-1.54,3.37-.17,1.67.23,1.71.05,3.49-.16,1.67-.16,1.67-.33,3.45-.16,1.67-2.15,1.48-2.31,3.27-.15,1.67,1.03,1.78.88,3.57-.14,1.66,1.85,1.83,1.7,3.62-.13,1.66-3.34,1.4-3.47,3.19-.12,1.67,1.07,1.76.94,3.55-.12,1.66,1.86,1.81,1.75,3.58-.11,1.67-.51,1.64-.62,3.42-.11,1.66-1.72,1.57-1.81,3.35-.09,1.67-.49,1.65-.58,3.43-.09,1.67,1.1,1.73,1.02,3.51-.06,1.66,1.14,1.71,1.07,3.49-.06,1.65-.06,1.65-.13,3.43-.04,1.66-1.24,1.62-1.28,3.4-.04,1.66-2.45,1.62-2.48,3.41-.02,1.66.38,1.67.37,3.45-.01,1.67.78,1.68.77,3.46.02,1.66,2.02,1.65,2.03,3.42.02,1.65.42,1.65.44,3.41.04,1.65-1.16,1.68-1.11,3.45.05,1.65-1.15,1.69-1.1,3.47.08,1.65.89,1.62.97,3.39.09,1.65.49,1.62.57,3.39.12,1.64-1.47,1.75-1.34,3.52.12,1.65,1.71,1.52,1.84,3.28.15,1.64-1.03,1.74-.86,3.51.16,1.64,2.55,1.39,2.72,3.13.2,1.61-.19,1.66.03,3.39.21,1.62-2.56,2-2.34,3.75.26,1.64,3.03,1.22,3.3,2.93l.47,2.91c0,.01.01.03.01.04.02.11-.51.35-1.02.72a2.182,2.182,0,0,0-.61.6.585.585,0,0,0,0,.71,2.641,2.641,0,0,1,.41,1.2,2.177,2.177,0,0,0,.66,1.34c1.06,1.02,2.93-1.05,4.05-.11,1.09.89.62,1.53,1.92,2.48,1.22.87-.11,2.85,1.33,3.8,1.35.86,1.57.51,3.04,1.39,1.4.81,2.19-.59,3.68.23,1.4.74.85,1.81,2.4,2.59,1.46.71,2.32-1.09,3.86-.37,1.45.65,1.77-.07,3.32.59,1.23.51.41,3.05,1.19,4.15-.05-.64-.1-1.25-.15-1.87-.14-1.52-.25-3.06-.36-4.99-.1-1.91-.17-4.3-.16-7.52.08-11.98,2.08-11.95,2.36-24.75a71.14,71.14,0,0,0-.6-12.12,63.59,63.59,0,0,1-.43-12.8c.71-12,3.07-11.78,4.09-24.55,1.05-11.92.24-12.03,1.68-24.78,1.43-11.88,1.44-11.89,3.27-24.56.9-5.9,1.27-8.87,1.69-11.94.2-1.54.4-3.09.7-5.08.32-2.02.74-4.45,1.38-7.59a75.721,75.721,0,0,1,2.08-8.2c.44.32.8.14,1.4-1.89a19.98,19.98,0,0,0,.86-4.77,83.5,83.5,0,0,0,2.11-8.59,65.852,65.852,0,0,0,1.35-11.75,109.949,109.949,0,0,1,1.07-12.27c.72-5.67.96-8.49,1.07-11.31a85.432,85.432,0,0,0-.33-11.05,94.59,94.59,0,0,0-1.59-11.4,19.485,19.485,0,0,1-.26-3.76c.04-.7.06-1.38.11-2.17.04-.41.07-.83.11-1.27.02-.45.04-.91.06-1.4a23.761,23.761,0,0,0,.09-2.84c.02-.9-.03-1.63-.04-2.29a5.177,5.177,0,0,1,.53-2.97c.45-.63,1.23-.9,2.54-.73a7.018,7.018,0,0,1,2.3.69,14.685,14.685,0,0,1,2.96,1.72c.52.4,1,.81,1.45,1.23a14.6,14.6,0,0,1,1.13,1.28,12.21,12.21,0,0,1,1.66,2.56,15.433,15.433,0,0,1,1.01,2.54,25.99,25.99,0,0,1,.52,2.6c.44,3.57.31,7.58.55,14.04.12,3.24.12,5.62.14,7.62s.02,3.6.03,5.24a96.835,96.835,0,0,1-.88,13.17,80.707,80.707,0,0,1-2.41,12.04c-.82,3.01-1.65,6.12-2.87,12.4-2.31,11.67-1.62,11.92-4.14,24.18a97.4,97.4,0,0,0-1.7,11.51c-.3,3.02-.62,6.15-1.56,12.33-1.68,11.55-1.31,11.62-2.82,24.03-1.32,11.59-3.3,11.31-4.43,23.84-.53,6.26-.83,9.18-1.13,12.1-.32,2.92-.59,5.85-.96,12.14a70.773,70.773,0,0,0,.25,11.91,93.676,93.676,0,0,1,.38,12.52c-.28,11.75-1.09,11.74-1.18,24.37a58.139,58.139,0,0,0,1.13,12.07,54.623,54.623,0,0,1,.93,12.81c-.32,11.9-1.18,11.87-1.43,24.44-.09,5.84-.08,8.74-.07,11.74.03,2.99.04,6.1.27,12.22.26,5.7.39,8.53.55,11.45a107.5,107.5,0,0,0,1.26,11.81,73.206,73.206,0,0,1,1.02,11.21,36.034,36.034,0,0,0,.45,4.81,35.468,35.468,0,0,0,1.83,6.72,26.008,26.008,0,0,0,5.43,9.05,84.04,84.04,0,0,1,6.72,8.11,32,32,0,0,0,3.83,4.16c.55.48,1.06.91,1.54,1.31.5.34.99.67,1.47,1s.97.66,1.49,1.02c.54.31,1.11.66,1.72,1.06.31.21.63.42.98.65.35.21.72.43,1.12.66.78.48,1.64,1.07,2.68,1.61a52.668,52.668,0,0,1,4.53,2.84c1.22.77,2.15,1.65,3.18,2.39a19.882,19.882,0,0,0,3.53,2.21,20.1,20.1,0,0,0,5.74,1.71,55.561,55.561,0,0,0,9.56.67c2.49-.05,5.05-.08,10.27-.32a47.8,47.8,0,0,0,9.86-1.43,80.047,80.047,0,0,1,10.48-1.83,70.216,70.216,0,0,0,10.11-1.88,59.677,59.677,0,0,1,10.86-1.76,26.485,26.485,0,0,1,10.63,1.13,44.849,44.849,0,0,0,4.51,1.13,46.9,46.9,0,0,0,6.58.81c10.07.56,10.16-1.78,20.95-1.18,10.07.55,10.05,1.04,20.83,1.61,10.07.52,10.02,1.96,20.8,2.48,10.06.49,10.08.04,20.85.5,10.06.45,10.06.45,20.84.84,10.06.39,10,2.7,20.78,3.03,10.07.31,10.09-1.18,20.86-.95,10.06.19,10.08-2.24,20.84-2.12,10.04.03,10.04,3.75,20.82,3.72,10.06-.14,10.04-1.57,20.8-1.76,10.04-.35,9.99-2.65,20.72-3.07,5.01-.25,7.52-.25,10.11-.26,2.6-.04,5.29.03,10.65-.36a47.685,47.685,0,0,1,10.15.26,44.912,44.912,0,0,0,10.68.11c10-.91,10.05-.29,20.75-1.49a64.987,64.987,0,0,0,10.02-1.79c1.25-.31,2.62-.64,4.34-.96a62.994,62.994,0,0,1,6.57-.75,87.577,87.577,0,0,0,10.36-1.17,61.688,61.688,0,0,1,10.84-.88c10.16-.04,10.16,0,20.96.04,10.05.02,10.05,1.46,20.76,1.32a35.015,35.015,0,0,1,10.09,1.12,30.958,30.958,0,0,0,10.62.82c4.97-.37,7.43-.75,9.98-1.16,2.53-.42,5.15-.85,10.39-1.72a54.529,54.529,0,0,0,9.66-2.48c2.41-.83,4.9-1.69,9.87-3.4a26.488,26.488,0,0,0,8.66-4.86c1.99-1.69,4.08-3.32,8.17-6.2a38.439,38.439,0,0,0,6.97-6.31c.39-.47.79-.93,1.21-1.43s.82-1.08,1.3-1.68c.95-1.23,2.01-2.77,3.35-4.89,2.36-4.06,3.49-6.18,4.65-8.45a33.537,33.537,0,0,0,3.3-10.27c.2-1.3.37-2.44.56-3.46.15-1.03.27-1.94.41-2.78.3-1.66.46-3.04.71-4.44.2-1.41.35-2.84.5-4.71.12-2,.22-4.4.24-7.61.06-11.99-.67-12-.33-24.83.15-5.99.25-8.96.26-12.06.04-3.09.04-6.3.36-12.69.65-11.89,2.19-11.79,2.96-24.5.71-11.87-.88-12-.08-24.69.74-11.85,1.93-11.73,2.71-24.41.65-11.82-1.67-12.02-1.05-24.65.58-11.78,1.02-11.76,1.46-24.38a48.935,48.935,0,0,1,1.77-11.82,48.545,48.545,0,0,0,1.65-12.49,42.407,42.407,0,0,0-1.35-11.89c-.35-1.52-.7-3.07-.96-5.02s-.42-4.3-.52-7.43c-.34-11.69-.13-11.72-.86-24.19-.56-11.64,1.63-11.85.57-24.35-.21-2.92-.5-5.08-.65-6.92s-.25-3.31-.34-4.83-.19-3.06-.36-5c-.09-.97-.19-2.04-.33-3.25s-.37-2.52-.62-4.04a31.079,31.079,0,0,0-3.65-10.79c-.32-.65-.66-1.29-1.01-1.99-.37-.68-.73-1.4-1.1-2.23-.71-1.67-1.56-3.62-2.46-6.33-.95-2.43-1.57-4.32-2.21-5.8-.29-.76-.55-1.45-.8-2.11-.27-.64-.53-1.24-.79-1.85s-.51-1.24-.82-1.88c-.33-.62-.68-1.28-1.07-2.02a21.992,21.992,0,0,0-1.44-2.35c-.28-.43-.59-.88-.91-1.36-.34-.46-.73-.92-1.13-1.42-.37-.47-.72-.91-1.05-1.33-.34-.39-.66-.77-.95-1.14-.59-.73-1.08-1.42-1.57-2-.48-.6-.89-1.18-1.28-1.75-.42-.54-.81-1.06-1.21-1.58a19.391,19.391,0,0,0-8.13-6.47,40.244,40.244,0,0,0-5.36-1.99c-1.44-.47-2.65-.67-3.86-.95-2.45-.48-4.98-.97-10.16-1.59a33.2,33.2,0,0,0-9.89.21,67.815,67.815,0,0,1-10.48.86,74.637,74.637,0,0,1-10.05-.38,68.781,68.781,0,0,0-10.71-.17,44.267,44.267,0,0,0-6.11.59c-1.61.26-2.91.53-4.24.83s-2.69.59-4.4.81a48.4,48.4,0,0,1-6.53.19c-10.24-.45-10.29.46-21.18-.39-10.14-.88-9.84-5.15-20.61-6.17-10.03-.94-10.22,1.83-20.9,1.02-2.48-.17-4.35-.39-5.91-.62-1.55-.21-2.81-.44-4.09-.68s-2.59-.49-4.23-.68c-1.65-.16-3.64-.29-6.3-.34a23,23,0,0,0-6.38.84c-1.82.48-3.39,1.06-4.85,1.57a10.122,10.122,0,0,1-9.13-.67,14.462,14.462,0,0,1-4.33-3.55c-.67.54-1.01,1.61-2.13,1.56-1.42-.06-1.44.34-2.96.28-1.42-.07-1.32-2.46-2.84-2.53s-1.51,1.94-3.03,1.87c-1.42-.06-1.34-2.06-2.86-2.12-1.42-.06-1.53,2.34-3.05,2.27-1.42-.06-1.35-1.66-2.87-1.72-1.43-.06-1.44.34-2.97.27-1.42-.06-1.45.74-2.97.67-1.43-.06-1.48,1.14-3,1.08-1.42-.06-1.28-3.26-2.81-3.33-1.42-.06-1.57,3.54-3.1,3.47-1.42-.06-1.38-.86-2.91-.92-1.42-.06-1.31-2.46-2.84-2.52-1.42-.07-1.55,3.13-3.08,3.07-1.42-.06-1.37-1.26-2.89-1.33-1.42-.06-1.42-.06-2.95-.12-1.42-.07-1.47,1.13-2.99,1.07-1.42-.06-1.34-2.06-2.86-2.13-1.42-.06-1.44.34-2.96.28-1.42-.06-1.42-.06-2.94-.13-1.43-.06-1.48,1.14-3,1.07-1.42-.06-1.35-1.66-2.88-1.72a4.479,4.479,0,0,0-1.44.14,4.962,4.962,0,0,1-.66.11c-.43.02-.95.02-1.64-.01-2.63-.11-1.99-2.09-4.35-2.19-2.2-.09-3.26,1.46-6,1.35a18.421,18.421,0,0,0-2.63.07,13.274,13.274,0,0,1-.21-2.63v-5.35c0-2.59.4-2.7.4-5.38a12.974,12.974,0,0,0-.06-1.45c-.04-.22-.09-.4-.14-.58a5.025,5.025,0,0,1-.2-1.52c0-1.42-.4-1.42-.4-2.94,0-1.43-.4-1.43-.4-2.95,0-1.42,2-1.42,2-2.95,0-1.42-.4-1.42-.4-2.94,0-1.43-.8-1.43-.8-2.95,0-1.42-.4-1.42-.4-2.95,0-1.42,2.4-1.42,2.4-2.94,0-1.43.8-1.43.8-2.95,0-1.42-1.2-1.42-1.2-2.95,0-1.42-1.2-1.42-1.2-2.95,0-1.42-1.2-1.42-1.2-2.94V163.5c0-1.42,1.6-1.42,1.6-2.95,0-1.42-1.2-1.42-1.2-2.94,0-1.43,1.6-1.43,1.6-2.95,0-1.42-2-1.42-2-2.95,0-1.42,1.2-1.42,1.2-2.94,0-1.43-.8-1.43-.8-2.95,0-1.42-.4-1.42-.4-2.95,0-1.42,1.6-1.42,1.6-2.94,0-1.43,1.2-1.43,1.2-2.95,0-1.42-2.8-1.42-2.8-2.95,0-1.42,2.8-1.42,2.8-2.95,0-1.42.8-1.42.8-2.94,0-1.42-.4-1.42-.4-2.95,0-1.42-1.6-1.42-1.6-2.95,0-1.42-1.2-1.42-1.2-2.94,0-1.43,2-1.43,2-2.95,0-1.42-2-1.42-2-2.95,0-1.42,2.4-1.42,2.4-2.94,0-1.43-.8-1.43-.8-2.95v-2.95c0-1.42-.4-1.42-.4-2.94,0-1.43,1.6-1.43,1.6-2.95,0-1.32-1.39-1.41-1.58-2.66a2.851,2.851,0,0,1-.94.25c-1.96.24-1.73,2.27-3.95,2.49-2.04.06-2.05-.34-4.22-.29-2-.05-1.91-1.7-3.96-1.82-1.93-.12-1.86-.6-3.86-.88a3.283,3.283,0,0,0-1.99.31,2.924,2.924,0,0,1-2.09.19c-1.85-.43-2.13.73-4.16.25-1.88-.53-1.88-.57-3.89-1.21a3.165,3.165,0,0,1-1.67-1.19,3.729,3.729,0,0,0-1.71-1.37,2.387,2.387,0,0,1-1.31-1.87,2.779,2.779,0,0,0-1.3-1.96c-1.65-.91-1.86-.53-3.63-1.56-1.59-1.07-2.04-.41-3.78-1.6-1.53-1.21-2.78.31-4.49-1.12a18.724,18.724,0,0,0-1.65-1.31,11.012,11.012,0,0,1-1.69-1.47,3.115,3.115,0,0,1-.91-2,4.142,4.142,0,0,0-.88-2.1,2.965,2.965,0,0,1-.69-2.03,3.752,3.752,0,0,0-.61-2.13,7.346,7.346,0,0,0-1.34-1.58,5.126,5.126,0,0,1-1.3-1.76c-.46-.91-.71-1.35-.98-1.81a9.888,9.888,0,0,1-.94-1.97,2.593,2.593,0,0,1,.16-2.19,3.079,3.079,0,0,0,.25-2.24,3.391,3.391,0,0,0-1.18-1.79,2.97,2.97,0,0,1-1.12-1.98,2.94,2.94,0,0,1,.38-2.08,3.683,3.683,0,0,0,.46-2.13,2.771,2.771,0,0,0-1.23-1.98,2.621,2.621,0,0,1-1.15-2.19,6.5,6.5,0,0,1,.35-2.04,10.557,10.557,0,0,0,.43-2.12c.26-2.02,3.1-1.52,3.46-3.52a2.65,2.65,0,0,0-.91-2.21,2.532,2.532,0,0,1-.79-2.41c.26-.97.46-1.43.63-1.92s.36-.99.72-2c.33-.95,1.11-1.16,1.87-1.39a2.564,2.564,0,0,0,1.94-1.37,3.563,3.563,0,0,1,1.21-1.54,4.432,4.432,0,0,0,1.32-1.56,2.654,2.654,0,0,0-.22-2.37,2.456,2.456,0,0,1-.03-2.5c1.08-1.67,1.8-1.14,3.06-2.81,1.19-1.56,3.07.04,4.4-1.43,1.25-1.39.99-1.64,2.47-3.03a2.834,2.834,0,0,0,.88-1.89,2.789,2.789,0,0,1,1.11-1.89c1.53-1.21,2.22-.27,3.93-1.37,1.6-1.02.51-2.8,2.41-3.8a4.826,4.826,0,0,0,1.58-1.3,6.465,6.465,0,0,1,.64-.65,5.823,5.823,0,0,1,1.12-.62c.94-.4,1.75.23,2.55.87s1.57,1.24,2.54.95c1.77-.56,1.04-2.9,3.08-3.48,1.93-.44,2.19.73,4.19.28.94-.15,1.4-1.4,1.91-2.18s1.04-1.05,1.94.86c1.81,4.2,1.54,6.64.88,10.77-.61,4.12-.89,2.94-2.34,3.12-1.39.33-1.3.72-2.77,1.04-1.35.37-1.8-1.11-3.31-.64a2.23,2.23,0,0,1-1.68-.23,2.059,2.059,0,0,0-1.79-.1c-1.43.58-.5,2.46-1.87,3.17-1.29.66-1.07,1.04-2.36,1.88-.6.4-1.24.1-1.91-.18a1.859,1.859,0,0,0-1.99.03c-1.3,1.03.05,2.45-1.07,3.53-1.05,1-2.52-.48-3.62.77-.52.57-.33,1.25-.14,1.93a2.16,2.16,0,0,1-.07,1.98,1.993,1.993,0,0,1-1.55.68,1.82,1.82,0,0,0-1.57.84,5.049,5.049,0,0,0-.67,1.38,9.991,9.991,0,0,1-.66,1.47c-.7,1.33-.07,1.67-.73,3.1-.58,1.35.44,1.8-.1,3.22-.45,1.33-3.54.26-4.03,1.85-.39,1.51,3.03,2.42,2.71,3.85-.23,1.37-1.08,1.22-1.29,2.73-.13,1.39-2.59,1.16-2.67,2.78-.01,1.52,3.12,1.56,3.17,2.99.12,1.33-1.16,1.44-.96,2.93.25,1.37.16,1.39.5,2.83a1.865,1.865,0,0,0,.93,1.18,2.366,2.366,0,0,1,.97,1.18c.23.61-.13,1.09-.47,1.6s-.72,1.07-.37,1.74a4.6,4.6,0,0,0,.8,1.17,12.622,12.622,0,0,1,.87,1.2c.36.58.55.87.73,1.18a8.913,8.913,0,0,0,.83,1.2,1.922,1.922,0,0,0,1.32.72,2.369,2.369,0,0,1,1.37.7c.94.93-.25,2.1.86,3.15,1.1.91,1.35.61,2.51,1.57,1.18.79.04,2.44,1.39,3.36,1.31.79,2.14-.65,3.5.12a3.225,3.225,0,0,0,1.42.48,5.408,5.408,0,0,1,1.53.43,20.243,20.243,0,0,0,2.89,1.11c1.44.45,1.3.86,2.87,1.33,1.51.35,1.61-.04,3.21.33,1.49.38,1.57-.09,3.17.17a5.318,5.318,0,0,0,1.53.03c.2-.02.4-.03.65-.04a5.827,5.827,0,0,1,.94,0c1.44.08,1.34,2.11,2.98,2.19,1.49-.05,1.48-.45,3.06-.48,1.46-.13,1.36-.98,2.85-1.15a2.715,2.715,0,0,0,1.33-.45,4.341,4.341,0,0,1,1.35-.53,1.162,1.162,0,0,1,.89.17,6.4,6.4,0,0,1,.78.59c.52.44,1.08.87,1.81.6a3.989,3.989,0,0,1,1.52-.19,2.9,2.9,0,0,0,1.57-.36c1.35-.64.64-1.79,1.91-2.6,1.2-.76.38-1.81,1.48-2.72,1.06-.86.13-1.81,1.1-2.82a15.22,15.22,0,0,0,1.72-2.17c.82-1.06,2.13-.22,2.93-1.58a2.023,2.023,0,0,0,.22-1.56,2.435,2.435,0,0,1,.13-1.67,1.973,1.973,0,0,1,1.36-1.01,1.792,1.792,0,0,0,1.35-1.18c.52-1.47-1.31-2.11-.82-3.63.41-1.45,1.57-1.11,2.03-2.71.38-1.51-.43-1.71-.07-3.33.34-1.5-.06-1.6.24-3.33.29-1.61,1.84-1.35,2.12-3.09.19-1.59,1.41-1.45,1.59-3.18.14-1.6-2.62-1.84-2.55-3.43.09-1.49,2.84-1.41,2.85-3.1a3.31,3.31,0,0,1,.33-1.57,2.661,2.661,0,0,0,.27-1.65,5.323,5.323,0,0,0-.39-1.5,6.1,6.1,0,0,1-.49-1.52c-.13-.73-.65-.98-1.13-1.22a1.945,1.945,0,0,1-1.18-1.17c-.51-1.23-1.54-.82-2.15-1.98-.51-1.1,1.12-2.06.36-3.34-.4-.57-1.04-.53-1.63-.49a1.875,1.875,0,0,1-1.65-.41c-.88-.91.85-2.66-.36-3.69-1.13-.99-1.53-.3-2.78-1.17-1.22-.81-1.23-.81-2.64-1.63-1.34-.74-1.53-.39-2.98-1.11-1.36-.62-.72-2.1-2.25-2.7-1.39-.5-1.94.99-3.15.69a3.23,3.23,0,0,0-.59-.1.5.5,0,0,0-.32.05c-.1.03-.14.11-.18.22-.04.05-.03.12.02.2a.238.238,0,0,1,.06.26c-.15.23-.07.66-.15.57-.08-.06-.37-.67-1.12-1.83-.42-.63-.71-1.05-.99-1.44-.15-.21-.28-.39-.39-.55-.07-.1-.13-.2-.19-.29l-.3-.48A28.809,28.809,0,0,1,360,6.587c-.74-2.49-.26-2.93.37-3a12.082,12.082,0,0,0,3.13-.03c.38-.06.65-.14,1-.19s.66-.11.95-.16c.52-.08.92-.16,1.33-.24a6.461,6.461,0,0,1,2.85.02,3.609,3.609,0,0,1,2.07,1.16,4.555,4.555,0,0,0,1.89,1.28c1.86.72,2.16-.01,4.09.87,1.75.86,2.12.14,3.98,1.16,1.72,1,1.92.63,3.78,1.85,1.73,1.22.66,2.88,2.26,4.28,1.65,1.43,1.25,1.64,2.75,3.24a3.863,3.863,0,0,0,1.98,1.07,3.4,3.4,0,0,1,2.03,1.33,5.579,5.579,0,0,1,.84,2.08,5.56,5.56,0,0,0,.25.92,6.807,6.807,0,0,0,.5,1.27c.96,1.89,3.12.95,4.01,3.25a4.953,4.953,0,0,1,.29,2.27,7.859,7.859,0,0,0,.18,2.35,34.486,34.486,0,0,1,.7,4.34,6.6,6.6,0,0,1-.02,2.09,11.389,11.389,0,0,0-.09,2.16c-.02,1.99-2.35,1.99-2.46,3.97-.09,1.87,2.3,2.04,2.11,4.08-.18,1.88.97,2,.73,4.02-.29,1.83-3.04,1.42-3.36,3.31-.33,1.77.12,1.8-.32,3.78-.41,1.82.79,2.09.31,4.08-.53,1.85.62,2.18.03,4.21-.59,1.89-3.3.96-3.99,2.87-.65,1.78,1.12,2.55.21,4.52a8.857,8.857,0,0,1-1.05,1.75,11.542,11.542,0,0,0-1.26,1.78c-1.05,1.75-1.98,1.14-3.27,2.88a9.172,9.172,0,0,0-1.05,1.77,6.019,6.019,0,0,1-1.26,1.79c-.7.77-1.05,1.15-1.41,1.55-.18.2-.37.39-.6.65-.27.23-.58.51-1,.88a2.727,2.727,0,0,1-2.23.61,4.877,4.877,0,0,0-1.08.02,2.652,2.652,0,0,0-1.24.48,3.487,3.487,0,0,0-1.23,1.39c2.2.76-.31,1.06-.31,2.32,0,1.43.8,1.43.8,2.95,0,1.42-1.2,1.42-1.2,2.95,0,1.42.8,1.42.8,2.94,0,1.43.8,1.43.8,2.95,0,1.42.4,1.42.4,2.95,0,1.42-2,1.42-2,2.94s-.4,1.43-.4,2.95c0,1.42,1.6,1.42,1.6,2.95,0,1.42-.8,1.42-.8,2.95,0,1.42,2.4,1.42,2.4,2.94,0,1.43-.8,1.43-.8,2.95v2.95c0,1.42-.4,1.42-.4,2.94,0,1.43-2.4,1.43-2.4,2.95,0,1.42,2.4,1.42,2.4,2.95,0,1.42,1.2,1.42,1.2,2.94,0,1.43-2.8,1.43-2.8,2.95,0,1.42.4,1.42.4,2.95,0,1.42,1.2,1.42,1.2,2.94,0,1.43,1.2,1.43,1.2,2.95,0,1.42-2.8,1.42-2.8,2.95,0,1.42,2,1.42,2,2.95,0,1.42-.4,1.42-.4,2.94,0,1.42-1.2,1.42-1.2,2.95,0,1.42.4,1.42.4,2.95v2.94c0,1.43-2,1.43-2,2.95,0,1.42,1.2,1.42,1.2,2.95,0,1.42,2,1.42,2,2.94,0,1.43-3.2,1.43-3.2,2.95,0,1.42,1.2,1.42,1.2,2.95,0,1.42,2,1.42,2,2.94,0,1.43-.4,1.43-.4,2.95,0,1.42-1.6,1.42-1.6,2.95,0,1.42-.4,1.42-.4,2.95,0,1.42,1.2,1.42,1.2,2.94a2.049,2.049,0,0,0,.6,1.44c.3.3.6,1.02.6.89v.28c0,.1-1.2.8-1.2,1.19a18.113,18.113,0,0,1-1.54,1.86c-.35.45-.52.84-.2.85.73.03,1.01-.35,1.71-.32.68.03.95-.76,1.5-.74.31.01.31-.49.81-.97a1.852,1.852,0,0,1,1.55-.93c1.42.06,1.44-.34,2.96-.27,1.42.06,1.37,1.26,2.9,1.32,1.42.06,1.37,1.26,2.89,1.33,1.42.06,1.45-.74,2.98-.68,1.42.06,1.44-.34,2.96-.27,1.42.06,1.35,1.66,2.87,1.72,1.43.06,1.49-1.53,3.02-1.47,1.42.06,1.37,1.26,2.89,1.33,1.42.06,1.52-2.34,3.05-2.28,1.42.06,1.4.46,2.92.53,1.42.06,1.3,2.86,2.83,2.92,1.42.06,1.54-2.73,3.06-2.67,1.42.06,1.42.06,2.95.13,1.42.06,1.31,2.46,2.84,2.52,1.42.06,1.38.86,2.91.93,1.42.06,1.54-2.74,3.06-2.68,1.42.07,1.39.86,2.91.93,1.42.06,1.32,2.46,2.84,2.52,1.42.06,1.44-.33,2.96-.27,1.43.06,1.49-1.54,3.02-1.47,1.42.06,1.37,1.26,2.89,1.32,1.42.06,1.51-1.93,3.03-1.87,1.42.06,1.46-.74,2.98-.67,1.42.06,1.27,3.65,2.79,3.72a1.1,1.1,0,0,0,.7-.21c.03-.02.07-.05.11-.08a23.265,23.265,0,0,1,2.76-1.89,18.374,18.374,0,0,1,1.78-.94,13.328,13.328,0,0,1,3.82-1.11,24.573,24.573,0,0,1,4.42-.16c1.71.05,3.76.08,6.34.09,5.17.11,7.76.01,10.42.05,2.66.01,5.43-.02,10.9.38,10.2.76,10.07,2.68,20.88,3.68,10.05.96,9.92,2.88,20.65,3.82,9.99.8,10.12-1.52,20.72-1.01,4.94.15,7.42.11,9.96-.04,2.54-.11,5.16-.22,10.41-.45a43.226,43.226,0,0,1,5.96.16,36.881,36.881,0,0,1,4.24.76A39.374,39.374,0,0,0,597.08,213a50.816,50.816,0,0,0,10.68-1.13,30.677,30.677,0,0,1,4.31-.62,35.088,35.088,0,0,1,6.62.17c1.32.16,2.48.35,3.52.54,1.04.24,1.94.48,2.77.73a34.554,34.554,0,0,1,4.29,1.7c2.64,1.3,5.36,2.43,10.88,4.77,5.13,2.27,7.8,3.42,10.67,4.55.7.33,1.41.67,2.16,1.06.37.21.76.42,1.16.63.39.25.78.53,1.2.83a29.262,29.262,0,0,1,5.81,5.43,41.876,41.876,0,0,1,4.36,6.32c.92,1.84,1.64,3.34,2.25,4.92.3.79.6,1.58.93,2.43s.69,1.73,1.03,2.73c.37,1,.79,2.09,1.28,3.31.45,1.24.95,2.62,1.55,4.19,2.1,5.88,2.95,8.86,3.88,11.93.42,1.55.86,3.12,1.36,5.12.42,2,1.01,4.43,1.55,7.69.51,3.03.95,5.31,1.23,7.16.32,1.87.61,3.38.91,4.92s.6,3.09.93,5.08c.16.99.34,2.09.52,3.34s.38,2.65.5,4.27a111.458,111.458,0,0,0,1.67,12.08c.28,1.55.6,3.12.84,5.12.22,2,.43,4.42.6,7.66a38.766,38.766,0,0,1-1,12.26,44.81,44.81,0,0,0-1.28,12.82,50.663,50.663,0,0,0,.66,7.12,46.6,46.6,0,0,0,1.24,4.96,39.661,39.661,0,0,1,1.5,7.04c.41.36.83,1.06,1.63,1.18a3.757,3.757,0,0,0,1.79-.17,3.205,3.205,0,0,1,1.9-.06c1.73.4,1.45,1.5,3.17,2.06,1.62.5,1.89-.27,3.6.44,1.59.64,1.91-.07,3.58.77,1.55.77,1.71.46,3.31,1.4,1.49.89.33,2.61,1.77,3.59,1.44,1,1.05,1.3,2.4,2.36,1.25,1,2.25-.16,3.57,1.01,1.22,1.09.6,1.7,1.82,2.9,1.12,1.13,2.84-.46,4.02.84,1.1,1.23.45,1.76,1.53,3.09,1.01,1.24.99,1.25,2,2.62.94,1.28.63,1.5,1.55,2.9.87,1.31-1.1,2.6-.26,3.98.78,1.29,2.87.04,3.7,1.48.76,1.34,1.81.75,2.63,2.21.72,1.38-1.75,2.69-1.01,4.12.69,1.35,1.03,1.18,1.74,2.64.66,1.36,1.73.87,2.4,2.36.62,1.39,1.74.91,2.36,2.43.58,1.43-2,2.47-1.41,3.96.52,1.4,2.39.69,2.97,2.22.52,1.42.13,1.56.67,3.09.5,1.42-.65,1.81-.16,3.33.44,1.43.85,1.3,1.3,2.84.42,1.44.42,1.44.87,2.98.39,1.45-1.54,1.97-1.13,3.5.38,1.42,1.53,1.14,1.9,2.69.34,1.44,2.32.98,2.66,2.56.31,1.47-2.81,2.14-2.48,3.68.28,1.45,1.46,1.22,1.76,2.79.28,1.45,2.24,1.1,2.51,2.69.24,1.48-.13,1.54.1,3.13.22,1.48-1.37,1.71-1.14,3.29.19,1.47-.21,1.52-.02,3.1.19,1.46,1.37,1.34,1.53,2.93.14,1.48,1.36,1.37,1.48,2.98.12,1.5.12,1.5.24,3.1.09,1.51-1.11,1.58-1.03,3.17.08,1.5-2.33,1.59-2.28,3.17.03,1.48.47,1.46.47,3.05,0,1.48.8,1.48.81,3.07-.03,1.49,1.97,1.53,1.93,3.15C748.39,490.247,748.76,490.267,748.69,491.887Z" fill="#000000"/>
    <path d="M61.2,337.907a19.98,19.98,0,0,1-.86,4.77c-.6,2.03-.96,2.21-1.4,1.89C59.7,342.177,60.42,340.377,61.2,337.907Z" fill="#000000"/>
    <path d="M455.7,206.747a23.265,23.265,0,0,0-2.76,1.89c-.04.03-.08.06-.11.08.81-.57,1.12-2.12,2.35-2.06A1.938,1.938,0,0,1,455.7,206.747Z" fill="#000000"/>
    <path d="M61.2,337.907a19.98,19.98,0,0,1-.86,4.77c-.6,2.03-.96,2.21-1.4,1.89C59.7,342.177,60.42,340.377,61.2,337.907Z" fill="#000000"/>
  </g>
</g></g></g></svg>