<svg id="katman_1" data-name="katman 1" xmlns="http://www.w3.org/2000/svg" viewBox="0 0 424.46 418.88"><defs><style>.cls-1{fill:#cf4327;}.cls-2{fill:#e5a024;}.cls-3{fill:#3b301b;}.cls-4{fill:#eae2c2;}.cls-5{fill:#574730;}.cls-6{fill:#f3bc63;}.cls-7{fill:#db6653;}</style></defs><g id="Layer_2" data-name="Layer 2"><g id="Layer_1-2" data-name="Layer 1-2"><path class="cls-1" d="M241.08,366.58a148,148,0,0,0,69.61,52c4.38,1.61,9.82-3.47,8-8a143.58,143.58,0,0,0-49.88-63.69c-5.82-4.18-11.4,3.42-8.75,8.76l-7.7,4.4V360C247.44,353.28,236.11,359.8,241.08,366.58Z" transform="translate(0.01 0)"/><path class="cls-1" d="M267.28,331.52a285.53,285.53,0,0,0,150.65,38.14c5.49-.14,8.83-7.14,4.61-11.14a237.89,237.89,0,0,0-124.42-61.71c-6.71-1.17-10.28,7-6.88,10.83l-15.51,13.69-1.88-1.07C266.57,316,260,327.3,267.28,331.52Z" transform="translate(0.01 0)"/><path class="cls-1" d="M269,295.5c.62-.58,1.26-1.14,1.89-1.71L290,302.35c-1.86,4.77,1.49,11.16,7.28,8.77,32-13.19,60.14-33.58,81.14-61.3,3-3.93-1-10.09-5.63-9.82-41.55,2.41-82.31,17.85-113.07,46.26C253.57,292,262.82,301.18,269,295.5Z" transform="translate(0.01 0)"/><path class="cls-2" d="M240.59,344.68A207.18,207.18,0,0,0,375.05,391c7-.16,8.23-8.43,3.29-12.16a420.19,420.19,0,0,0-86.58-50.28c39.44-2.7,79.09-10.56,108.29-39.18,4.39-4.31.68-10.51-4.61-11.14a319.77,319.77,0,0,0-93.77,2.89,245.69,245.69,0,0,0,54.6-60.83c3-4.8-2-11.19-7.37-9.58a183.62,183.62,0,0,0-96.83,69.77c-3,4.3.24,8.45,4.3,9.3L246.56,334C240.77,333.07,235.12,340.25,240.59,344.68Z" transform="translate(0.01 0)"/><path class="cls-3" d="M216.22,290.3c5.46-4.51,4.62-13.83,0-18.45-5.31-5.31-13-4.49-18.45,0-10.21,8.46-23.21,13.93-36.15,16.46-13.61,2.67-27.31-1.11-39.1-7.88s-18.15-16.42-22.4-29.18a469.32,469.32,0,0,1-13-48.65c-1.5-6.91-9.53-10.9-16.05-9.11-7.06,1.94-10.6,9.17-9.11,16,4.08,18.75,8.5,38.14,15.78,56,7.18,17.52,18.18,30.56,35.18,39.29,17.58,9,36.23,12.41,55.69,8.6,17.51-3.43,34-11.85,47.67-23.17Z" transform="translate(0.01 0)"/><path class="cls-3" d="M176.17,329.93c.47,9,1.06,19.92,4.79,28.27,3.4,7.61,10.78,9.05,18.46,9.9,9.43,1,19-.23,28.15-2.55,8.3-2.11,19-4.65,25.89-9.92,3.13-2.38,5.24-5.78,8-8.54a91.58,91.58,0,0,1,8.18-6.93c5.51-4.33,11.64-8.74,15.27-14.9,8.32-14.1.61-32.09-8.68-43.52-5.82-7.16-13.15-12.28-20.28-18-8.07-6.47-16.47-15.52-13.77-26.74a2.83,2.83,0,0,0,.1-.71,2.93,2.93,0,0,0-2.9-3H224.21a2.8,2.8,0,0,0-.7.09,2.93,2.93,0,0,0-2.1,3.58c4.92,20.48-22.57,30.17-32.57,43.55C178.3,294.62,175.6,312.79,176.17,329.93Z" transform="translate(0.01 0)"/><path class="cls-1" d="M150.44,189c8,21.75,24.53,39.19,46.35,47.42,22.8,7.92,50,6.05,72.69-1.7,20.86-7.13,36.24-25.42,43.71-45.7.77-2.11-1.57-4.15-3.57-3.57q-5.3,1.55-10.47,3.42A116.58,116.58,0,0,0,317.63,112c-.31-2.3-3.13-4-5-2a99.28,99.28,0,0,0-6.52,7.94C304,95.3,290.44,75.68,276.69,58.06c-1.37-1.72-4.37-.66-4.85,1.28L268,74.86a118.08,118.08,0,0,0-15.08-21,110.87,110.87,0,0,0-12-11.44c-2.47-2-5.79-5.83-9.1-5.83-3.48,0-7.25,4.28-9.81,6.41a111.32,111.32,0,0,0-11.85,11.54,118.06,118.06,0,0,0-14.46,20.28L191.8,59.33c-.49-1.94-3.48-3-4.85-1.28-13.71,17.63-27.27,37.25-29.42,59.78a97.17,97.17,0,0,0-6.52-7.94c-1.91-2-4.75-.24-5,2a116.64,116.64,0,0,0,18.48,76.92Q159.33,187,154,185.44C152,184.86,149.68,186.9,150.44,189Z" transform="translate(0.01 0)"/><path class="cls-3" d="M211.71,180.89c-2.72,11-4.93,22.53-1.12,33.53,2.84,8.17,8.77,16.25,17.93,17.44,10,1.3,19.72-6.17,23.49-15.11,2.29-5.44,2.08-12,2.08-17.77a118,118,0,0,0-1.47-17.4c9.52-1,17.8-6.2,24.8-12.73,7.33-6.9,11-15,11.68-25,1.32-19.17-9.43-37.56-25.58-47.42A66.21,66.21,0,0,0,213.11,90c-14,3.78-28.35,10.9-35.17,24.31C163.7,142.35,180.68,176.94,211.71,180.89Z" transform="translate(0.01 0)"/><path class="cls-4" d="M241.13,153.77c.07.06.15.1.22.15a3.57,3.57,0,0,0,.37.31c8.54,5.81,21.14,4.45,27.54-4,6.9-9.11,1.57-21.62-6.81-27.78-8.64-6.35-21.06-5.1-26.38,4.75C231.44,135.8,233.52,147.58,241.13,153.77Z" transform="translate(0.01 0)"/><path class="cls-4" d="M203.91,158.23c9.26,1.28,17.76-4,21.56-12.28a4.22,4.22,0,0,0,.52-1.44c2.82-10.14-2.78-22.07-12.89-25.71-11.93-4.29-22.23,6.11-23.56,17.43C188.35,146.33,193,156.71,203.91,158.23Z" transform="translate(0.01 0)"/><path class="cls-3" d="M205.6,150.6c6.56.66,12.75-3.69,13-10.6a10.9,10.9,0,0,0-9.51-11.2c-6.12-1.54-12.05,3.58-13.34,9.46C194.32,144.74,199.38,149.94,205.6,150.6Z" transform="translate(0.01 0)"/><path class="cls-3" d="M241.63,139.73c.68,8.93,11.16,11.26,17.81,6.93A9.89,9.89,0,0,0,264,136.3a11.47,11.47,0,0,0-9.58-9.12C246.89,125.23,241.08,132.5,241.63,139.73Z" transform="translate(0.01 0)"/><path class="cls-3" d="M117.83,162.58c5.57,14.75,19.48,25.34,35,27.41,5.81.78,12.71.5,17.12-3.92,5.13-5.14,4.32-13.24,2.61-19.65-4.19-15.75-14.62-28.41-30.62-32.85-8-1.84-16.45-1.49-21.91,5.43C114.7,145.75,115,154.88,117.83,162.58Z" transform="translate(0.01 0)"/><path class="cls-3" d="M290.65,167.25c-1.54,6.22-2.11,13.9,2.81,18.83,4.42,4.42,11.32,4.7,17.13,3.92,15.85-2.12,30.08-13.16,35.29-28.4,2.57-7.46,2.54-16.18-2.53-22.6-5.46-6.92-13.91-7.27-21.91-5.43C305.24,138.08,294.62,151.16,290.65,167.25Z" transform="translate(0.01 0)"/><path class="cls-1" d="M147.64,156.55a2.33,2.33,0,0,0,1.81,2.75,2.9,2.9,0,0,0,1.92.26,23.65,23.65,0,0,0,8.3-3.26,35.43,35.43,0,0,1-6.33,19.41c-1.46,2.15.95,4.9,3.27,4.26,8.85-2.44,22.88-4.92,21.45-17.09-.49-4.19-2.74-8-4.74-11.67-2.75-5-3.91-9.18-5.39-14.58-1.43-5.21-9.18-13.11-15.18-11.11-3.72,1.25-3.6,5.44-3.19,8.67.44,3.45,1.46,6.7,1.23,10.21a34.81,34.81,0,0,1-2.55,10.49,2.47,2.47,0,0,0-.48,1.25A2.77,2.77,0,0,0,147.64,156.55Z" transform="translate(0.01 0)"/><path class="cls-1" d="M285.14,163.45c-.9,11.81,12.86,14.13,21.51,16.52,2.32.64,4.72-2.11,3.27-4.26a35.59,35.59,0,0,1-6.33-19.41,23.8,23.8,0,0,0,8.3,3.26,2.86,2.86,0,0,0,1.93-.26,2,2,0,0,0,.42-.13,2.32,2.32,0,0,0,1.26-3,2.4,2.4,0,0,0-.48-1.23,34.35,34.35,0,0,1-2.63-11.48c-.07-3.14.92-6.14,1.31-9.23.43-3.34.5-7.68-3.5-8.79-5.94-1.66-13.49,6.11-14.87,11.23-.79,2.93-.9,5.79-2.18,8.6-1,2.27-2.35,4.41-3.55,6.59C287.62,155.4,285.44,159.29,285.14,163.45Z" transform="translate(0.01 0)"/><path class="cls-1" d="M219.18,171.05c2.95,2.78,8.06,1.86,11.78,1.86,4.16,0,9,.92,12.16-2.28a9.68,9.68,0,0,0,2.32-10.21,7.59,7.59,0,0,0-9-4.42,9.68,9.68,0,0,0-5.54,3.76,9.57,9.57,0,0,0-6-3.87,7.57,7.57,0,0,0-8.46,4.54A9.72,9.72,0,0,0,219.18,171.05Z" transform="translate(0.01 0)"/><path class="cls-1" d="M228.82,117.12q-9.84-7.08-20-13.76c-3.13-2.07-6,3-2.93,5q10.14,6.67,20,13.76C228.93,124.31,231.82,119.28,228.82,117.12Z" transform="translate(0.01 0)"/><path class="cls-1" d="M238,205.27c-.64,3.65,4.95,5.21,5.59,1.54,1.51-8.76,1.15-21.88-9.23-24.76-4.44-1.18-11.3-1.65-14,2.82-3.22,5.31-2,14.54-1.79,20.39.14,3.73,5.94,3.73,5.8,0a113.71,113.71,0,0,1,.13-12.79c.24-3,.68-4.81,4.18-5.28a10.36,10.36,0,0,1,5.64,1c5.1,2.92,4.5,12.14,3.65,17.07Z" transform="translate(0.01 0)"/><path class="cls-1" d="M246.44,109.11a3,3,0,0,0-4.1,0l-7.5,6c-1.23,1-1,3.1,0,4.1a3,3,0,0,0,4.1,0l7.5-6C247.67,112.23,247.44,110.11,246.44,109.11Z" transform="translate(0.01 0)"/><rect class="cls-4" x="6.52" y="148.76" width="115.06" height="160.69"/><path class="cls-2" d="M0,148.76V309.45A6.54,6.54,0,0,0,6.51,316H121.57a6.61,6.61,0,0,0,6.52-6.52V148.76a6.61,6.61,0,0,0-6.52-6.52H6.51A6.62,6.62,0,0,0,0,148.76ZM13,302.93V155.29H115V302.93H13Z" transform="translate(0.01 0)"/><path class="cls-3" d="M54.94,147.68a4.9,4.9,0,0,0,.07.67,50.76,50.76,0,0,0,.32,8.54c.25,2,1.5,3.7,3.7,3.7,1.82,0,3.95-1.7,3.7-3.7-.07-.57-.14-1.15-.19-1.72.43.12.87.22,1.32.31.1,1.19.2,2.37.33,3.56a3.78,3.78,0,0,0,3.7,3.7c1.85,0,3.91-1.7,3.7-3.7-.1-1-.19-2-.28-3h1c0,1.27.13,2.55.24,3.83a3.78,3.78,0,0,0,3.7,3.7,3.72,3.72,0,0,0,3.7-3.7c-.11-1.3-.19-2.65-.25-4l1.32.06c.06,1.11.06,2.23.06,3.35,0,4.77,7.4,4.76,7.4,0,0-2.56-.09-5.11-.25-7.66a18.2,18.2,0,0,0-.21-7.35c-2.14-8.2-15.58-9.41-22.39-8.67C58.15,136.41,54,140.33,54.94,147.68Z" transform="translate(0.01 0)"/><path class="cls-3" d="M243.21,250.52c-2.93-6.44-12.24-8-17.85-4.68-6.51,3.85-7.6,11.44-4.68,17.85,4.14,9.12,11.76,15.75,20,21.12,6.19,4,14.13,7.18,18.9,12.18,8.3,8.77,7.36,25.07,1.41,35.92-8.08,14.75,14.46,27.9,22.54,13.17,9.66-17.61,11.53-41.2,1.08-58.91-5.47-9.27-13.83-14.95-22.94-20.21-7.69-4.44-14.77-8.36-18.45-16.44Z" transform="translate(0.01 0)"/><path class="cls-1" d="M190.75,311a2.93,2.93,0,0,0-.05,4.14c6.68,7.35,11.3,16.5,11.68,26.5.29,8.38,2.78,17.82,9.78,23.1,7.45,5.6,16.51,3.47,24.36-.09,8.85-4,15.69-9.24,17.23-19.24.9-5.9.9-11.53,3.29-17.11,1-2.35,4.55-11.27,7.33-12.41a2.9,2.9,0,0,0-1.54-5.59,36.72,36.72,0,0,0-14.58,6.11,38.31,38.31,0,0,1,6.56-15.57c1.52-2.16-1-4.85-3.27-4.26a34.54,34.54,0,0,0-13.73,7,34.44,34.44,0,0,0-2-10.91c-1.14-3.12-3.47-10.32-7.58-10.32-4.3,0-6.76,7.91-7.88,11.2a34.4,34.4,0,0,0-1.76,10,34.37,34.37,0,0,0-13.72-7c-2.27-.59-4.78,2.1-3.27,4.26a38.18,38.18,0,0,1,6.56,15.57,36.6,36.6,0,0,0-14.58-6.11A2.93,2.93,0,0,0,190.75,311Z" transform="translate(0.01 0)"/><path class="cls-3" d="M211.23,330.29c3.66,3.95,3.06,9.8,6.66,13.86,2.61,2.93,6,3.83,9.92,3.62s8.08-1.18,10.76-4.26c3.35-3.84,3.51-9.63,6.51-13.84,1.34-1.89-.5-4.28-2.5-4.36a19.15,19.15,0,0,0-7.12,1,22.62,22.62,0,0,0-4.6-12.11,3,3,0,0,0-.31-.31,3.61,3.61,0,0,0-5.11.31,22.81,22.81,0,0,0-4.52,11.6,22.77,22.77,0,0,0-8.39-.36C210.24,325.77,209.91,328.86,211.23,330.29Z" transform="translate(0.01 0)"/><path class="cls-3" d="M75.46,301.61l.39.12.35.18a1.36,1.36,0,0,1,.5.31c.22.23.45.44.66.67a12.48,12.48,0,0,0,.4,6.69,97,97,0,0,0,30.48,45.08C136.44,378,172.81,384.79,208.69,383c27.28-1.26,60-12.66,74.86-37,8.8-14.38-13.79-27.47-22.54-13.17-2.8,4.5-7.55,8.7-13,12a78.14,78.14,0,0,1-20,8.56c-15.29,4.44-29.92,4.3-47,2.88-27.54-2.29-56-14.87-70.92-38.35,2.21-4.67,4.3-9.94,1.88-15-2.3-4.8-6.7-5.65-11.45-4.95,2.18-10.71.54-21.53-7.13-30-2.51-2.77-6.6,1.34-4.1,4.1,5.78,6.35,7.14,14.3,6,22.3a13.6,13.6,0,0,0-2.45-.65,14.21,14.21,0,0,0-2.52-5.83,3,3,0,0,0-4-1,2.92,2.92,0,0,0-1,4,9.82,9.82,0,0,1,1.6,3.14l-.72.19a11.75,11.75,0,0,0-2.86-3.3,3,3,0,0,0-4.1,0,2.93,2.93,0,0,0,0,4.1,9.64,9.64,0,0,1,1.2,1,3.1,3.1,0,0,1,.51.68l.14.23c-.28.24-.56.49-.82.76A10,10,0,0,0,77,296a3,3,0,0,0-3.57,2A2.94,2.94,0,0,0,75.46,301.61Zm27.79,2c4.38.09,4.36,4.12,3.24,7.9a66.74,66.74,0,0,1-3.24-7.94Zm-26.54-1.36c.25.16.15.16,0,0h0Z" transform="translate(0.01 0)"/><path class="cls-2" d="M95.74,50.59q12.09,14.5,24.37,28.83c5.49,6.38,14.68-2.89,9.23-9.23q-8.49-9.88-16.9-19.88c4.1-.89,8.1-1.91,12.1-3.09,3.73-1.1,6.42-6,3.9-9.58L109.06,10.43C104.22,3.65,92.9,10.17,97.79,17l14.29,20c-4.46,1.06-8.93,2-13.46,2.67C93.3,40.52,93,47.27,95.74,50.59Z" transform="translate(0.01 0)"/><path class="cls-1" d="M106.44,46.64q12.06,14.51,24.39,28.75c7.3,8.51,19.57-3.85,12.3-12.3q-7.29-8.46-14.5-17c2.93-.7,5.84-1.45,8.74-2.31,5-1.47,8.56-8.06,5.2-12.78L123.12,3.82c-6.43-9-21.51-.35-15,8.78l12.52,17.5q-5.16,1.2-10.39,2C103.15,33.2,102.72,42.21,106.44,46.64Z" transform="translate(0.01 0)"/><path class="cls-1" d="M35.65,70.08l22.9,9.68q-4.78,4.77-9.93,9.18c-4,3.39-1.41,9.47,2.88,10.91q17.91,6,35.9,11.78c8,2.57,11.47-10,3.47-12.58q-12.51-4-25-8.15,4.41-4.25,8.5-8.8c2.48-2.76,2.79-8.51-1.32-10.25l-30.81-13C34.59,55.61,27.94,66.86,35.65,70.08Z" transform="translate(0.01 0)"/><path class="cls-3" d="M46.17,65.44l21.22,9,1.32,1.07c-3.08,3-6.26,6-9.57,8.81-4,3.39-1.41,9.47,2.88,10.91q17.91,6,35.9,11.78c8,2.57,11.47-10,3.47-12.58q-7.86-2.52-15.7-5.08L78.88,83.8c2-2.06,4.05-4.15,6-6.32,2.48-2.76,2.79-8.51-1.32-10.25l-30.81-13C45.09,51,38.44,62.24,46.17,65.44Z" transform="translate(0.01 0)"/><path class="cls-2" d="M221.8,57.36c-5.61,0-5.6,8.7,0,8.7S227.41,57.36,221.8,57.36Z" transform="translate(0.01 0)"/><path class="cls-2" d="M214.69,72.78c-5.61,0-5.6,8.7,0,8.7S220.3,72.78,214.69,72.78Z" transform="translate(0.01 0)"/><path class="cls-2" d="M238.44,50.25c-5.61,0-5.6,8.7,0,8.7S244.05,50.25,238.44,50.25Z" transform="translate(0.01 0)"/><path class="cls-2" d="M268.66,86.42c-5.61,0-5.6,8.7,0,8.7S274.27,86.42,268.66,86.42Z" transform="translate(0.01 0)"/><path class="cls-2" d="M283.44,77.53c-5.61,0-5.6,8.7,0,8.7S289.05,77.53,283.44,77.53Z" transform="translate(0.01 0)"/><path class="cls-2" d="M297.72,135.65c-5.61,0-5.6,8.7,0,8.7S303.33,135.65,297.72,135.65Z" transform="translate(0.01 0)"/><path class="cls-2" d="M279.33,179c-5.61,0-5.6,8.7,0,8.7S284.94,179,279.33,179Z" transform="translate(0.01 0)"/><path class="cls-2" d="M294.75,196.15c-5.61,0-5.6,8.7,0,8.7S300.36,196.15,294.75,196.15Z" transform="translate(0.01 0)"/><path class="cls-2" d="M266.44,187.63c-5.61,0-5.6,8.7,0,8.7S272.05,187.63,266.44,187.63Z" transform="translate(0.01 0)"/><path class="cls-2" d="M268.66,202c-5.61,0-5.6,8.7,0,8.7S274.27,202,268.66,202Z" transform="translate(0.01 0)"/><path class="cls-2" d="M200.44,202.67c-5.61,0-5.6,8.7,0,8.7S206.05,202.67,200.44,202.67Z" transform="translate(0.01 0)"/><path class="cls-2" d="M205.79,223.43c-5.61,0-5.6,8.7,0,8.7S211.4,223.43,205.79,223.43Z" transform="translate(0.01 0)"/><path class="cls-2" d="M186.81,215.13c-5.61,0-5.6,8.7,0,8.7S192.42,215.13,186.81,215.13Z" transform="translate(0.01 0)"/><path class="cls-2" d="M188.59,183.1c-5.61,0-5.6,8.7,0,8.7S194.2,183.1,188.59,183.1Z" transform="translate(0.01 0)"/><path class="cls-2" d="M171.39,195.56c-5.61,0-5.6,8.7,0,8.7S177,195.56,171.39,195.56Z" transform="translate(0.01 0)"/><path class="cls-2" d="M172,161.16c-5.61,0-5.6,8.7,0,8.7S177.59,161.16,172,161.16Z" transform="translate(0.01 0)"/><path class="cls-2" d="M161.9,138.62c-5.61,0-5.6,8.7,0,8.7S167.51,138.62,161.9,138.62Z" transform="translate(0.01 0)"/><path class="cls-2" d="M169,113.71c-5.61,0-5.6,8.7,0,8.7S174.63,113.71,169,113.71Z" transform="translate(0.01 0)"/><path class="cls-2" d="M175,90c-5.61,0-5.6,8.7,0,8.7S180.56,90,175,90Z" transform="translate(0.01 0)"/><path class="cls-2" d="M196.89,83.46c-5.61,0-5.6,8.7,0,8.7S202.5,83.46,196.89,83.46Z" transform="translate(0.01 0)"/><path class="cls-2" d="M186.81,69.82c-5.61,0-5.6,8.7,0,8.7S192.42,69.82,186.81,69.82Z" transform="translate(0.01 0)"/><path class="cls-2" d="M307.8,127.3c-5.61,0-5.6,8.7,0,8.7S313.41,127.3,307.8,127.3Z" transform="translate(0.01 0)"/><path class="cls-2" d="M229.51,69.82c-5.61,0-5.6,8.7,0,8.7S235.12,69.82,229.51,69.82Z" transform="translate(0.01 0)"/><path class="cls-5" d="M250.87,263.94c-4.33-3.47-10.52,2.65-6.15,6.15,9,7.19,20,12.53,26.36,22.43a41.78,41.78,0,0,1,5.82,31.26c-1.14,5.47,7.24,7.79,8.39,2.31a50.93,50.93,0,0,0-4.9-34.93c-6.78-12.56-18.78-18.63-29.51-27.22Z" transform="translate(0.01 0)"/><path class="cls-5" d="M183.55,370c5.48.81,7.83-7.57,2.31-8.39-26.43-3.93-55.92-10.18-72.29-33.47-3.2-4.55-10.74-.2-7.51,4.39C123.93,358,154.44,365.68,183.55,370Z" transform="translate(0.01 0)"/><path class="cls-5" d="M149.82,301.49c5.6.3,5.57-8.39,0-8.7a49.72,49.72,0,0,1-10.27-1.69c-5.42-1.47-7.71,6.92-2.31,8.39a60.4,60.4,0,0,0,12.59,2Z" transform="translate(0.01 0)"/><path class="cls-5" d="M272.75,124.59a26.67,26.67,0,0,1,1.12,29.07c-2.85,4.84,4.67,9.21,7.51,4.39a35.3,35.3,0,0,0-1.12-37.85C277.12,115.59,269.58,120,272.75,124.59Z" transform="translate(0.01 0)"/><path class="cls-5" d="M139.41,147.76c2.06,1.38,4.8.3,6-1.56a4.48,4.48,0,0,0-1.56-6,20.58,20.58,0,0,0-7.4-3.14,4.47,4.47,0,0,0-5.35,3,4.39,4.39,0,0,0,3,5.35c.57.12,1.13.25,1.69.42l1.11.38a8.29,8.29,0,0,0,1,.54c.47.28,1,.59,1.47.92Z" transform="translate(0.01 0)"/><path class="cls-5" d="M331.33,138.48c-5.48-.84-7.83,7.54-2.31,8.39,9.69,1.48,2.69,15.11-.31,19.34-3.27,4.57,4.28,8.9,7.51,4.39,4.07-5.7,7.07-12.21,6.07-19.36-.88-6-4.7-11.77-11-12.77Z" transform="translate(0.01 0)"/><path class="cls-6" d="M378.15,295c8.35,1,8.26-12.11,0-13-25.4-2.75-50.71.84-75.83,4.46-8.29,1.19-4.74,13.76,3.47,12.58,24-3.46,48.12-6.62,72.36-4Z" transform="translate(0.01 0)"/><path class="cls-6" d="M339,230.27c7.52-3.76.9-15-6.59-11.27a143.22,143.22,0,0,0-45.59,35.86c-5.38,6.39,3.81,15.66,9.23,9.23A133.91,133.91,0,0,1,339,230.29Z" transform="translate(0.01 0)"/><path class="cls-6" d="M358.71,373.64a179.78,179.78,0,0,0-58.46-28.78c-8.11-2.31-11.53,10.29-3.47,12.58a169.67,169.67,0,0,1,55.34,27.47C358.86,389.94,365.36,378.64,358.71,373.64Z" transform="translate(0.01 0)"/><path class="cls-7" d="M394.64,361c7.09,4.56,13.59-6.74,6.59-11.27a198.26,198.26,0,0,0-53.11-24c-8.11-2.31-11.53,10.29-3.47,12.58a185.7,185.7,0,0,1,50,22.64Z" transform="translate(0.01 0)"/><path class="cls-7" d="M361.07,255.82c8-2.58,4.53-15.14-3.47-12.58A198.18,198.18,0,0,0,333,253c-7.54,3.6-1,14.85,6.59,11.27a173.18,173.18,0,0,1,21.51-8.44Z" transform="translate(0.01 0)"/><path class="cls-7" d="M300.51,409.53c4.07,7.35,15.34.76,11.27-6.59a65.85,65.85,0,0,0-23.89-24.67c-7.23-4.33-13.78,7-6.59,11.27a52.63,52.63,0,0,1,19.21,20Z" transform="translate(0.01 0)"/><path class="cls-7" d="M247.17,76.4c4,7.41,15.22.82,11.27-6.59A84.15,84.15,0,0,0,235,42.57c-2.79-2.15-7.36-.42-8.93,2.34-1.9,3.35-.47,6.76,2.34,8.93A69.36,69.36,0,0,1,247.15,76.4Z" transform="translate(0.01 0)"/><path class="cls-7" d="M286.45,106.92c1.88,8.19,14.45,4.7,12.58-3.47a79.17,79.17,0,0,0-12.71-28.37c-4.84-6.78-16.15-.26-11.27,6.59a69.3,69.3,0,0,1,11.39,25.25Z" transform="translate(0.01 0)"/><path class="cls-7" d="M191.68,72.73c.21-2.35-2.16-4.35-4.35-4.35A4.47,4.47,0,0,0,183,72.73L181.89,85c-.21,2.35,2.16,4.35,4.35,4.35A4.46,4.46,0,0,0,190.59,85l1.09-12.22Z" transform="translate(0.01 0)"/><path class="cls-7" d="M300.87,204.11c4.22-7.29-7.06-13.86-11.27-6.59a54.38,54.38,0,0,1-26.36,23.06c-7.71,3.27-1.05,14.53,6.59,11.27a65.7,65.7,0,0,0,31-27.75Z" transform="translate(0.01 0)"/><path class="cls-7" d="M231.58,289.16h0a2.19,2.19,0,0,0-3-.78,2.25,2.25,0,0,0-.78,3,14.56,14.56,0,0,1,1.29,5.62c.09,2.8,4.44,2.8,4.35,0a19.89,19.89,0,0,0-1.85-7.84Z" transform="translate(0.01 0)"/><path class="cls-7" d="M214.42,309.55h0a2.18,2.18,0,0,0,3,.78,2.23,2.23,0,0,0,.78-3,13.36,13.36,0,0,0-7.25-6.5,2.19,2.19,0,0,0-2.68,1.52,2.25,2.25,0,0,0,1.52,2.68,8.94,8.94,0,0,1,4.65,4.51Z" transform="translate(0.01 0)"/><path class="cls-7" d="M250.62,304.46c1.83-2.08-1.23-5.19-3.08-3.08a13.6,13.6,0,0,0-3.32,6.9,2.23,2.23,0,0,0,1.52,2.68,2.19,2.19,0,0,0,2.68-1.52,9.57,9.57,0,0,1,2.2-5Z" transform="translate(0.01 0)"/><path class="cls-7" d="M260.1,318.63c2.08-1.89-1-4.95-3.08-3.08a17.72,17.72,0,0,0-4.31,6,2.24,2.24,0,0,0,.78,3h0a2.19,2.19,0,0,0,3-.78,14.61,14.61,0,0,1,3.63-5.09Z" transform="translate(0.01 0)"/><path class="cls-2" d="M250.27,258.08c-8.41,0-8.4,13,0,13S258.68,258.08,250.27,258.08Z" transform="translate(0.01 0)"/><path class="cls-2" d="M235.44,264.6c-8.41,0-8.4,13,0,13S243.85,264.6,235.44,264.6Z" transform="translate(0.01 0)"/><path class="cls-2" d="M220.62,262.23c-8.41,0-8.4,13,0,13S229,262.23,220.62,262.23Z" transform="translate(0.01 0)"/><path class="cls-2" d="M209.94,253.33c-8.41,0-8.4,13,0,13S218.35,253.33,209.94,253.33Z" transform="translate(0.01 0)"/><path class="cls-1" d="M62.92,191v14.83c0,3.74,5.8,3.73,5.8,0V191C68.72,187.26,62.92,187.27,62.92,191Z" transform="translate(0.01 0)"/><path class="cls-1" d="M46.54,215.06l-11.9-9.45c-2.89-2.3-7,1.78-4.1,4.1l11.9,9.45C45.33,221.46,49.46,217.38,46.54,215.06Z" transform="translate(0.01 0)"/><path class="cls-1" d="M87.54,219.16l11.9-9.45c2.9-2.32-1.21-6.4-4.1-4.1l-11.9,9.45C80.54,217.38,84.65,221.46,87.54,219.16Z" transform="translate(0.01 0)"/><path class="cls-1" d="M67,265V250.13c0-3.74-5.8-3.73-5.8,0V265C61.19,268.74,67,268.73,67,265Z" transform="translate(0.01 0)"/><path class="cls-1" d="M87.54,236.8c-2.89-2.3-7,1.78-4.1,4.1l11.9,9.45c2.89,2.3,7-1.78,4.1-4.1L87.5,236.81Z" transform="translate(0.01 0)"/><path class="cls-1" d="M46.54,240.91c2.9-2.32-1.21-6.4-4.1-4.1l-11.93,9.45c-2.9,2.32,1.21,6.4,4.1,4.1l11.9-9.45Z" transform="translate(0.01 0)"/></g></g></svg>