<svg id="katman_1" data-name="katman 1" xmlns="http://www.w3.org/2000/svg" viewBox="0 0 50.19 49.94"><defs><style>.cls-1{fill:#fff;}</style></defs><path class="cls-1" d="M49.92,7A5.58,5.58,0,0,0,46,8.68L23.73,31a1.1,1.1,0,0,0-.32.55L20.47,42.12A1.25,1.25,0,0,0,22,43.66L32.6,40.72a1.27,1.27,0,0,0,.55-.32l22.3-22.3a5.63,5.63,0,0,0,0-8L54,8.68A5.61,5.61,0,0,0,49.92,7Zm.13,2.5a3.09,3.09,0,0,1,2.16.92l1.47,1.46a3.13,3.13,0,0,1,0,4.42l-1.32,1.33-5.89-5.89,1.32-1.32A3.15,3.15,0,0,1,50.05,9.53ZM13.15,11.9A6.25,6.25,0,0,0,6.9,18.15V50.72A6.26,6.26,0,0,0,13.15,57H48.23a6.26,6.26,0,0,0,6.25-6.25V39.62a1.25,1.25,0,0,0-2.5,0v11.1a3.76,3.76,0,0,1-3.75,3.75H13.15A3.76,3.76,0,0,1,9.4,50.72V18.15a3.75,3.75,0,0,1,3.75-3.75h11.1a1.25,1.25,0,0,0,0-2.5ZM44.7,13.54l5.89,5.89L32.34,37.68l-5.89-5.89ZM25.27,34.15,30,38.85l-6.51,1.81Z" transform="translate(-6.9 -7.03)"/></svg>