<?xml version="1.0" encoding="UTF-8"?><svg version="1.1" xmlns="http://www.w3.org/2000/svg" xmlns:xlink="http://www.w3.org/1999/xlink" viewBox="0 0 800 800" width="800" height="800" x="0px" y="0px">
    
    
    <!-- ITEM 0 -->
    <g>
        <defs>
            <clipPath id="clip-path-id-viewbox-item-0">
                <rect x="0.0" y="0.0" width="470.825" height="442.786"/>
            </clipPath>
        </defs>
        <g transform="translate(144.0 383.0) rotate(0.0 235.0 221.0) scale(0.9982477565974619 0.9982248761252615)">
            <g clip-path="url(#clip-path-id-viewbox-item-0)" transform="translate(-0.0 -0.0)">
                
  
  <g>
    <path d="M468.005,333.929c-1.66-.11-2.8-.24-3.55-.37-3.02,1.09-11.38,3.2-31.45,7.01,18.2,1.71-29.5,15.87-94.63,21.01-39.38,3.11-83.22-3.6-128.12.23-61.46,5.25-119.31,11-149.46,16.74-11.25-21.88,8.53-29.15-5.94-34.02,1.45-.03-6.67-25.63-14.67-51.44q-1.215-3.9-2.4-7.77c-2.81-9.11-5.47-17.93-7.56-25.32-.81-2.87-1.54-5.53-2.15-7.9-2.6-10.07-3.17-14.99.29-9.59-7.57-11.84-6.68-24.38-19.72-29.19-8.78-63.89,33.37-35.52-5.88-72.05-35.61-234.86,282.27-106.96,402.19-102.78,2.51,11.58,8.57,27.34,7.49,27.66,39.47-11.74,45,269.44,57.64,266.53.35-.09.59-.15.74-.18C470.005,332.749,466.575,333.759,468.005,333.929Z" style="         fill: #6a00f4;       "/>
    <path d="M174.8,268.059a4.071,4.071,0,0,1-.83,2.51l-38.93,50.59c-.05.06-.1.13-.15.19l-14.9,17.17a4.022,4.022,0,0,1-3.03,1.37,4.1,4.1,0,0,1-1.29-.21,4.007,4.007,0,0,1-2.7-3.57l-1.39-26.06v-.21l-.03-20.81-55.19,2.13-16.17,1.93q-1.215-3.9-2.4-7.77l17.78-2.12a3.163,3.163,0,0,1,.32-.03l59.5-2.3a3.982,3.982,0,0,1,4.15,3.99l.04,24.87.85,16.07,8.34-9.61,38-49.39-.18-10.42-13.36-11.7a3.426,3.426,0,0,1-.33-.33l-12.77-14.18-14.45-12.4a1.538,1.538,0,0,1-.13-.12l-6.76-6.33-.68,16.16,2.53,25.76a4.01,4.01,0,0,1-3.85,4.39l-23.09.75-22.95,1.4h-.36l-22.94-.66-17.22.88c-.81-2.87-1.54-5.53-2.15-7.9l19.12-.98a1.709,1.709,0,0,1,.32,0l22.92.66,22.83-1.39h.12l18.87-.62-2.14-21.79a3.5,3.5,0,0,1-.02-.56l1.07-25.16a3.978,3.978,0,0,1,2.48-3.53,4.022,4.022,0,0,1,4.25.78l13.05,12.24,14.59,12.51c.13.12.25.24.37.36l12.77,14.2,14.52,12.71a3.986,3.986,0,0,1,1.36,2.94Z" style="         fill: #fff;       "/>
    <polygon points="266.564 442.786 262.524 399.324 262.529 399.097 263.4 355.854 265.13 312.743 262.276 269.489 264.204 226.078 264.922 183.022 262.34 134.326 310.65 133.545 352.866 138.331 394.835 133.114 395.821 141.052 352.909 146.387 310.264 141.553 270.767 142.191 272.926 182.878 272.923 183.017 272.198 226.378 270.288 269.403 273.139 312.639 273.132 312.851 271.396 356.095 270.532 399.033 274.529 442.046 266.564 442.786" style="         fill: #fff;       "/>
  </g>

            </g>
        </g>
    </g>
    
    <!-- ITEM 1 -->
    <g>
        <defs>
            <clipPath id="clip-path-id-viewbox-item-1">
                <rect x="0.0" y="0.0" width="294.862" height="461.61"/>
            </clipPath>
        </defs>
        <g transform="translate(153.0 29.0) rotate(0.0 147.0 230.5) scale(0.9970765985444038 0.9986785381599185)">
            <g clip-path="url(#clip-path-id-viewbox-item-1)" transform="translate(-0.0 -0.0)">
                
  
  <path d="M282.894,19.991c-.038.138.068.357,0,0C282.882,20.035,282.908,20.06,282.894,19.991ZM20.169,461.61l2.588-.771A2.458,2.458,0,0,0,20.169,461.61ZM157.724,2.8c-6.265,3.605-8.8,8.849-17.447,22.314-19.052-31.252-20.189-13.2-43.219-8.355-3.438-7.539-9.773,9.926-15.31,7.772-4.027,5.309-35.343,16.016-35.6,15.259C13,60.368,10.888,95.038,5,82.7c1.851,55.191-18.561,278.5,11.858,367.432-12.877,16.291,229.3-9.664,265.655-18.825-6.033-21.949-2.769-65.771,1.213-66.667C295.989,422.7,302.567,51.737,279.4,15.348,286.536-10.95,158.85,5.014,157.724,2.8Z" style="         fill: #2d00f7;       "/>

            </g>
        </g>
    </g>
    
    <!-- ITEM 2 -->
    <g>
        <defs>
            <clipPath id="clip-path-id-viewbox-item-2">
                <rect x="0.0" y="0.0" width="289.43" height="445.571"/>
            </clipPath>
        </defs>
        <g transform="translate(410.0 81.0) rotate(0.0 144.5 222.5) scale(0.9985143212521163 0.9987184982864683)">
            <g clip-path="url(#clip-path-id-viewbox-item-2)" transform="translate(-0.0 -0.0)">
                
  
  <path d="M2.105,441.251a.452.452,0,0,1-.33-.42A.73.73,0,0,0,2.105,441.251Z" style="         fill: #ff0378;       "/>
  <path d="M289.345,173.151q-.06,5.385-.19,10.83c-.25,11.36-.67,22.93-1.24,34.55q-.27,5.445-.58,10.9c-1.04,18.6-2.45,37.24-4.12,55.37q-.42,4.47-.85,8.88c-1.39,14.23-2.94,28.08-4.61,41.27q-.555,4.455-1.14,8.81c-6.77,50.89-15.15,90.55-22.39,101.81-2.96-2.35-175.76-5.4-226.67-5.4-7.87-10.02-25.78-1.71-25.78.65-2.38-6.92,30.78-88.07,10.02-91.31,21.71-107.49-33.94-244.87-1.21-346.47,15.76-2.16,27.5-6.56,50.91,2.16,18.1,6.73,46.21,10.31,64.71,12.89,3.76.52,6.5-5.4,6.5-5.4s6.73,3.9,12.01,4.24c40.07,2.58,71.39,3.19,71.39,3.19s39.03.5,34.24-.3C280.925,13.051,290.455,85.761,289.345,173.151Z" style="         fill: #ff0378;       "/>
  <g>
    <path d="M126.715,150.931l-28.23,42.99a4.433,4.433,0,0,1-7.74-.59l-11.9-25.91a4.585,4.585,0,0,1-.39-1.59l-4.25-71.09-13.07-2.42-9.79,43.21-6.36,49.84-3.16,50.67-8.86-.56,3.17-50.8a1.428,1.428,0,0,1,.03-.29l6.4-50.19a3.1,3.1,0,0,1,.08-.42L53.425,86.2a4.432,4.432,0,0,1,5.13-3.39l20.68,3.83a4.437,4.437,0,0,1,3.62,4.1l4.41,73.73,8.2,17.87,23.88-36.36a.71.71,0,0,1,.1-.14l29-40.56a1.463,1.463,0,0,0,.09-.13l29.72-38.51a4.424,4.424,0,0,1,3.86-1.72l19.38,1.54a4.431,4.431,0,0,1,3.63,6.37l-25.47,52-22.09,51.24,5,7.82,22.01-25.18,24.75-31.32,22.27-32.25a4.432,4.432,0,0,1,3.2-1.89,4.386,4.386,0,0,1,3.51,1.2l22.29,21.24a4.435,4.435,0,0,1,.66,5.62l-30.68,47.47c-.03.05-.07.11-.11.17l-29.76,41.61,9.78,10.01,42.37-22.82,36.49-24.6q-.06,5.385-.19,10.83l-31.52,21.26a2.884,2.884,0,0,1-.38.22l-45.5,24.51a4.434,4.434,0,0,1-5.28-.81l-14.72-15.05a4.44,4.44,0,0,1-.43-5.69l31.86-44.55,28.62-44.29-15.86-15.12-19.4,28.09c-.06.08-.11.16-.17.23l-24.9,31.52c-.05.06-.1.12-.14.17l-25.97,29.72a4.444,4.444,0,0,1-7.08-.53l-9.47-14.79a4.46,4.46,0,0,1-.34-4.15l23.07-53.5c.03-.07.06-.14.09-.2l22.65-46.23-10.47-.83-28.2,36.55Z" style="         fill: #fff;       "/>
    <path d="M258.975,333.221l18.78,1.73q-.555,4.455-1.14,8.81l-17.75-1.64-40.23,9.11-39.58,15.21-65.74,27.36-3.41-8.2,65.8-27.38c.03-.01.07-.03.11-.04l39.93-15.35a4.31,4.31,0,0,1,.61-.19l41.24-9.33A4.007,4.007,0,0,1,258.975,333.221Z" style="         fill: #fff;       "/>
    <path d="M257.145,252.891l-30.23,18.77.14,13.26,33.69-.02,22.47-.1q-.42,4.47-.85,8.88l-21.6.1-38.1.02a4.422,4.422,0,0,1-4.44-4.39l-.21-20.15a4.425,4.425,0,0,1,2.1-3.82l32.15-19.97,31.16-24.24a4.867,4.867,0,0,1,.47-.32l4.02-2.38q-.27,5.445-.58,10.9l-29.81,23.19A3.282,3.282,0,0,1,257.145,252.891Z" style="         fill: #fff;       "/>
  </g>

            </g>
        </g>
    </g>
    
    <!-- ITEM 3 -->
    <g>
        <defs>
            <clipPath id="clip-path-id-viewbox-item-3">
                <rect x="0.0" y="0.0" width="159.151" height="100.195"/>
            </clipPath>
        </defs>
        <g transform="translate(247.0 211.0) rotate(0.0 77.0 48.0) scale(0.9676345106219879 0.9581316432955737)">
            <g clip-path="url(#clip-path-id-viewbox-item-3)" transform="translate(-0.0 -0.0)">
                
  
  <path d="M6.574,39.177C-1.56,38.352,1.818,41.137,0,47.53c28.862,57.246,138.507,82.009,158.062.232C173.208-15.581,25.742-13.312,6.574,39.177ZM96.407,68.052c-58.2,17.183-47-89.215,11.357-62.068l-6.948,10.429C118.553,26.635,136.329,56.27,96.407,68.052Z" style="         fill: #fff;       "/>

            </g>
        </g>
    </g>
    
    <!-- ITEM 4 -->
    <g>
        <defs>
            <clipPath id="clip-path-id-viewbox-item-4">
                <rect x="0.0" y="0.0" width="133.55" height="228.13"/>
            </clipPath>
        </defs>
        <g transform="translate(406.0 515.0) rotate(0.0 66.5 114.0) scale(0.9958816922500935 0.9994301494761759)">
            <g clip-path="url(#clip-path-id-viewbox-item-4)" transform="translate(-0.0 -0.0)">
                
  
  <path d="M133.55,7.94,90.63,13.28,47.99,8.44l-39.5.64,2.16,40.69v.14L9.92,93.27,8.01,136.29l2.85,43.24v.21L9.12,222.99l-.1,5.14q-3.975-.15-8-.27l.1-5.12,1.73-43.11L0,136.38,1.93,92.97l.72-43.06L.06,1.22,48.37.44,90.59,5.22,132.56,0Z" style="         fill: #fff;       "/>

            </g>
        </g>
    </g>
    
    <!-- ITEM 5 -->
    <g>
        <defs>
            <clipPath id="clip-path-id-viewbox-item-5">
                <rect x="0.0" y="0.0" width="292.198" height="686.814"/>
            </clipPath>
        </defs>
        <g transform="translate(173.0 21.0) rotate(0.0 146.0 343.5) scale(0.9993223772921103 1.0002708156793543)">
            <g clip-path="url(#clip-path-id-viewbox-item-5)" transform="translate(-0.0 -0.0)">
                
  <path d="M264.1,1.2c-3.459.822-5.179,1.233-6.913,1.544-1.728.347-3.464.626-6.941,1.156a26.846,26.846,0,0,0-7.207,2.091c-.855.362-1.692.721-2.746,1.068a30.536,30.536,0,0,1-4.014,1.126,34.447,34.447,0,0,1-4.394.7c-1.163.133-2.1.163-3.032.187a25.7,25.7,0,0,0-7.058.976c-3.624,1.021-5.409,1.624-7.128,2.217-1.706.641-3.35,1.262-6.7,2.315-3.58,1.145-5.333,1.828-7.056,2.4l-2.744.956-3.9,1.491c-1.756.672-3.054,1.223-4.115,1.71-1.053.509-1.864.966-2.664,1.406a64.817,64.817,0,0,1-6.348,3.128,20.708,20.708,0,0,1-7.282,2,19,19,0,0,0-6.906,2.067,21.682,21.682,0,0,0-3.84,2.337,26.559,26.559,0,0,0-2.334,2.029,27.291,27.291,0,0,1-5.706,4.329,28.847,28.847,0,0,1-6.938,2.952,22.158,22.158,0,0,0-6.567,2.95,39.991,39.991,0,0,0-5.9,4.7,41.879,41.879,0,0,1-5.428,4.657c-.763.558-1.42,1.06-1.985,1.534-.554.49-1.026.94-1.442,1.361-.831.843-1.438,1.573-2.031,2.293a36.22,36.22,0,0,1-4.991,5.1,64.273,64.273,0,0,0-5.5,5.034c-1.266,1.309-2.512,2.542-5.064,4.944a59.471,59.471,0,0,1-5.575,4.973,47.56,47.56,0,0,0-5.138,4.916,28.647,28.647,0,0,1-3.3,3.062,21.109,21.109,0,0,1-2.694,1.681,21.808,21.808,0,0,0-2.649,1.632,16.588,16.588,0,0,0-2.969,3.073,20.57,20.57,0,0,0-2.437,3.853,17.956,17.956,0,0,0-1,3.047,18.477,18.477,0,0,1-2.934,6.668,40.681,40.681,0,0,1-4.555,6.02,37.151,37.151,0,0,0-4.088,5.922c-.977,1.639-1.658,2.9-2.345,3.88-.671.988-1.277,1.737-1.876,2.474s-1.2,1.46-1.833,2.409a31.72,31.72,0,0,0-1.974,3.8c-.784,1.762-1.357,3.089-1.8,4.2-.4,1.131-.693,2.033-.983,2.92s-.585,1.753-.944,2.827c-.376,1.047-.824,2.294-1.421,3.958-2.476,6.912-1.728,7.182-4.066,13.631-2.516,6.906-3.647,6.492-6.014,12.932-2.544,6.9-.672,7.593-3.061,14.034-2.564,6.9-4.066,6.342-6.465,12.783-2.572,6.9-1.449,7.322-3.847,13.769-2.569,6.908-4.069,6.352-6.459,12.81l-4.924,13.394a37.55,37.55,0,0,0-1.942,7.087,33.318,33.318,0,0,1-1.785,6.61,42.9,42.9,0,0,0-2.1,6.8,31.531,31.531,0,0,1-2.168,6.515c-2.967,6.708-1.914,7.19-4.668,13.566-1.457,3.444-2.341,5.124-3.184,6.767a37.552,37.552,0,0,0-2.772,6.7,36.031,36.031,0,0,1-3.137,7.373,16.308,16.308,0,0,0-1.343,3.065,16.754,16.754,0,0,0-.775,4.816,28.16,28.16,0,0,0,1.132,9.139c.172.555.342,1.105.522,1.685s.458,1.17.716,1.831a18.648,18.648,0,0,0,.972,2.163,25.394,25.394,0,0,0,1.435,2.625,23.127,23.127,0,0,0,6.2,6.835l1.333.96c.454.339.932.681,1.473,1.011,1.071.694,2.315,1.568,4,2.552l1.272.77,1.368.7a24.572,24.572,0,0,0,2.318.94,26.33,26.33,0,0,0,3.524.935,68.3,68.3,0,0,0,7.85.977,31.1,31.1,0,0,1,7.654,1.28,23.1,23.1,0,0,0,6.807,1.093c3.461.1,5.011.165,6.519.244a17.88,17.88,0,0,1,5.177.967,19.086,19.086,0,0,1,2.447,1.123c.259.18.518.313.737.459.188.147.451.315.577.405.237.161.919.6,1.744,3.023.431,1.319.723,2.449.958,3.4s.423,1.735.59,2.522a42.652,42.652,0,0,1,.915,6.37,65.658,65.658,0,0,1,.2,7.038c-.033,1.744-.079,3.42.007,6.849.093,3.682.148,5.574.229,7.424.05.941.1,1.865.162,3.009.087,1.166.176,2.591.465,4.606,1.029,7.238,1.422,7.184,2.328,13.968.956,7.275,2.536,7.074,3.4,13.887.924,7.306-1.064,7.557-.193,14.39.945,7.327,1.337,7.277,2.263,14.124,1.012,7.338-.568,7.565.45,14.436,1.147,7.364,2.325,7.173,3.5,14.031.638,3.675.989,5.511,1.326,7.286.171.889.339,1.763.546,2.843.24,1.095.525,2.4.9,4.139.409,1.863.74,3.255,1.031,4.4s.629,2.042.908,2.926c.6,1.762,1.116,3.469,2.133,6.909a26.313,26.313,0,0,1,1.5,7.615,24.055,24.055,0,0,0,1.874,7.268,38.314,38.314,0,0,0,4,6.881,51.467,51.467,0,0,1,4.378,6.235l2.795,3.931,1.007,1.4.988,1.172,2.066,2.414c.4.454.815.967,1.326,1.518l1.839,1.793c2.9,2.951,4.465,4.339,5.841,5.875.353.372.695.755,1.081,1.129.4.351.829.715,1.314,1.1a35.613,35.613,0,0,0,3.84,2.7,20.909,20.909,0,0,0,4.617,1.913,15.548,15.548,0,0,0,3.456.354,24.826,24.826,0,0,1,3.293.217,17.779,17.779,0,0,1,4.336.967c.933.342,1.75.6,2.473.858s1.347.529,1.91.8c1.124.525,1.992,1.107,2.859,1.566a25.221,25.221,0,0,0,2.82,1.421,18.065,18.065,0,0,0,1.858.653c.7.173,1.484.331,2.391.469,3.892.636,5.786.953,7.641,1.371a44,44,0,0,0,7.223.975c7.652.36,7.735-3.264,14.686-3.161a16.131,16.131,0,0,1,7.363,1.622,14.57,14.57,0,0,0,6.964,1.575c7.348-.026,7.34-1.242,14.142-1.2,7.258.094,7.272-.7,14.015-.45,7.185.4,7.213.007,13.879.63a23.727,23.727,0,0,1,6.918,1.668c.818.33,1.619.657,2.621.965.5.153,1.053.3,1.682.444.334.074.607.132,1.049.214.463.082.967.175,1.486.24a18.42,18.42,0,0,0,5.082.009,18.625,18.625,0,0,0,3.186-.783c.933-.306,1.835-.617,2.927-.864.272-.062.557-.119.858-.171l.462-.074.239-.033a.7.7,0,0,0,.128-.028,3.912,3.912,0,0,1,.957-.12,2.671,2.671,0,0,1,1.58.337,5.467,5.467,0,0,1-.294,1.542c-.146.4-.3.867-.407,1.229-.026.1-.048.189-.065.283l-.022.14-.008.071.024.233c.068.63.174,1.327.33,2.117a24.054,24.054,0,0,0,2.067,6.513,17.831,17.831,0,0,1,1.767,6.733c.6,7.184-1.824,7.326-1.511,14.047.264,7.246.638,7.244.8,14.084.156,7.36,2.137,7.326,2.329,14.241a31.954,31.954,0,0,1-.526,7.415,25.657,25.657,0,0,0-.408,7.11,35.176,35.176,0,0,1-.163,7.58,27.226,27.226,0,0,0-.218,3.012,24.665,24.665,0,0,0,.31,4.3c.254,1.923.559,3.372.8,4.563s.485,2.135.726,3.059c.474,1.848.954,3.632,1.932,7.235.507,1.8.851,3.237,1.226,4.439a15.928,15.928,0,0,0,1.1,3.032,8.5,8.5,0,0,0,1.754,2.342,16.385,16.385,0,0,0,3.338,2.224c2.972,1.522,5.118,2.013,6.648,1.419,1.549-.595,2.549-2.348,3.475-5.286a5.731,5.731,0,0,0,.163-3.361,6.288,6.288,0,0,0-1.451-2.359c-1.327-1.5-3.171-3.185-4.045-6.322a32.548,32.548,0,0,1-.818-4.057c-.109-1.092-.135-1.967-.158-2.824s-.013-1.708-.08-2.741-.2-2.255-.417-3.89a25.2,25.2,0,0,0-.9-4.121,28.426,28.426,0,0,0-1.118-2.75,16.451,16.451,0,0,1-1.75-6.68c-.433-7.272,3.2-7.419,2.97-14.191-.2-7.295-.977-7.281-1.123-14.162-.169-7.4-2.156-7.355-2.415-14.288-.359-7.451.861-7.525.252-14.569a25.866,25.866,0,0,0-1.67-7.4c-.314-.883-.644-1.749-.982-2.83s-.626-2.378-.991-4.127c-.094-.469-.183-.908-.266-1.321s-.149-.757-.3-1.315c-.262-.993-.493-1.865-.7-2.655-.4-1.563-.81-2.8-1.217-4.009-.2-.6-.392-1.192-.6-1.818-.1-.312-.2-.632-.311-.965a8.385,8.385,0,0,0-1.114-.039c-1.585,0-3.407-.052-5.878-.043l-1.868,0-.854-.016c-.285-.006-.4-.019-.605-.031a16.91,16.91,0,0,1-1.908-.235,16.728,16.728,0,0,1-2.846-.8,24.49,24.49,0,0,0-6.047-1.566c-.631-.1-1.584-.257-2.286-.389-.732-.136-1.372-.267-1.952-.395-1.159-.256-2.071-.5-2.97-.739a51.212,51.212,0,0,0-7.078-1.255,17.641,17.641,0,0,0-7.6.752,17.176,17.176,0,0,1-7.131,1c-7.453-.273-7.437-1.055-14.383-1.144-7.419-.044-7.429-2.414-14.316-2.393-7.35.024-7.352.05-14.13,0-7.218-.113-7.295,2.695-14.031,2.352a18.269,18.269,0,0,1-4.207-.739,15.552,15.552,0,0,1-2.724-1.243,19.546,19.546,0,0,0-2.592-1.245,16.5,16.5,0,0,0-3.739-.994,35.239,35.239,0,0,1-3.976-.789c-1.026-.249-1.835-.462-2.626-.677-.769-.261-1.522-.517-2.459-.807s-2.082-.572-3.51-1.112a25.444,25.444,0,0,0-3.8-.96,18.247,18.247,0,0,0-2.728-.284,10.147,10.147,0,0,1-2.67-.362,15.963,15.963,0,0,1-3.447-1.431,38.95,38.95,0,0,1-3.195-2.333l-.565-.476-.463-.5-.827-.949c-.529-.617-1.043-1.22-1.722-1.9s-1.4-1.6-2.508-2.647c-1.215-1.094-2.057-2.006-2.84-2.689a25.828,25.828,0,0,0-2.156-1.666,15.687,15.687,0,0,1-1.984-1.781,21.071,21.071,0,0,1-2.388-2.965c-3.561-5.941-2.078-6.728-4.792-12.515-.652-1.605-1.166-2.8-1.607-3.781s-.83-1.745-1.124-2.544c-.63-1.573-1.244-3.1-2.29-6.2-1.843-6.834-2.758-6.587-4.143-13.139a36.181,36.181,0,0,1-.715-4.193c-.1-1.132-.118-2.039-.133-2.93a38.13,38.13,0,0,0-.629-6.849c-1.224-7.181-.027-7.374-1.066-14.094-1.07-7.217-1.46-7.163-2.392-13.931-.978-7.258-2.954-7-3.831-13.808-.929-7.3-1.719-7.2-2.582-14.022-.931-7.315-1.322-7.266-2.222-14.1a20.252,20.252,0,0,1,.208-7.428,22.437,22.437,0,0,0,.419-2.95,17.324,17.324,0,0,0,.013-1.838c-.015-.34-.04-.7-.077-1.08-.041-.36-.085-.742-.132-1.15a22,22,0,0,1-.155-3.859c.05-1.075.163-1.948.28-2.813a36.246,36.246,0,0,0,.4-6.856c-.095-3.7-.161-5.6-.236-7.428s-.149-3.607-.435-7.239a30.957,30.957,0,0,0-1.541-7.8L80,349.383c-.391-1.194-.8-2.626-1.524-4.663a19.456,19.456,0,0,0-2.792-5.285,15.009,15.009,0,0,0-1.725-1.859c-.3-.267-.614-.549-.893-.76l-.779-.526a15.583,15.583,0,0,0-1.588-.962l-.85-.476-.927-.453a38.951,38.951,0,0,0-4.805-1.987,40.639,40.639,0,0,0-5-1.344c-1.289-.279-2.288-.451-3.264-.612a49.262,49.262,0,0,0-7.407-.649,29.057,29.057,0,0,1-7.342-.9,33.513,33.513,0,0,0-6.411-1.069A20.634,20.634,0,0,1,28.92,326.7a17.578,17.578,0,0,1-1.764-.747,10.253,10.253,0,0,1-.956-.5l-.268-.142-.381-.244-.841-.524c-.321-.2-.627-.373-.92-.533l-.766-.479a14.684,14.684,0,0,0-1.362-.708,19.9,19.9,0,0,0-2.145-.972,7.867,7.867,0,0,1-3.989-3.434c-1.35-2.367-1.842-3.67-2.51-4.949A12.224,12.224,0,0,1,12,307.8a16.156,16.156,0,0,1,.3-2.122,11.721,11.721,0,0,1,.591-1.642,11.879,11.879,0,0,1,1.545-2.366,18.317,18.317,0,0,0,1.652-2.208,14.254,14.254,0,0,0,1.527-3.406,26.03,26.03,0,0,0,1.354-6.776,18.7,18.7,0,0,1,1.639-6.6c2.884-6.659,1.84-7.148,4.626-13.458a25.633,25.633,0,0,1,3.849-6.4,20.782,20.782,0,0,0,3.579-6.264C35.2,249.6,35.2,249.6,37.573,243.107c2.53-6.9,2.154-7.042,4.533-13.483,2.554-6.9,3.68-6.483,6.074-12.922,2.568-6.9,2.944-6.76,5.345-13.2,2.571-6.905.7-7.6,3.095-14.051,2.563-6.913,5.191-5.94,7.574-12.4,2.547-6.93,1.422-7.343,3.781-13.818,2.517-6.945,1.389-7.352,3.713-13.842,1.263-3.393,1.82-5.017,2.341-6.675a46.964,46.964,0,0,1,2.445-6.227,15.317,15.317,0,0,1,2.14-3.645,18.2,18.2,0,0,1,2.144-2.089,19.637,19.637,0,0,0,2.088-1.982,13.182,13.182,0,0,0,1.057-1.382c.366-.528.774-1.12,1.176-1.83a41.671,41.671,0,0,0,2.975-6.317,32.775,32.775,0,0,1,3.065-5.916c4.058-5.765,2.022-7.25,6.166-12.524a16.049,16.049,0,0,1,5.418-4.729,20.486,20.486,0,0,0,5.32-4.238c4.792-5.235,5.176-4.865,9.848-9.547,5.243-4.787,5.177-4.858,10.264-9.12a37.6,37.6,0,0,1,5.731-4.121c1.486-.887,2.86-1.811,5.563-3.73,5.71-4.2,4.419-6.08,9.968-9.853,6.1-3.8,6.47-3.193,12.274-6.516a33.609,33.609,0,0,0,5.84-4.149,22.123,22.123,0,0,1,5.649-3.844c6.461-3.226,6.225-2.6,12.781-5.6,6.659-2.791,7.379-1.027,13.624-3.389,3.334-1.308,5-1.958,6.606-2.624l2.572-1.041c.981-.388,2.159-.824,3.76-1.311a62.256,62.256,0,0,0,6.68-2.5,50.442,50.442,0,0,1,6.409-2.219,60.477,60.477,0,0,0,6.822-2.137,38.69,38.69,0,0,1,6.53-1.889,29.319,29.319,0,0,1,7.121-.817c.882-.011,1.748-.019,2.805-.1s2.305-.235,3.962-.474c7.084-1.118,6.989-1.828,13.654-2.651,6.714-.6,7.833,2.464,12.37-1.766,4.568-4.665,4.678-5.872-.545-9.986C273.066-1.282,271.564.066,264.1,1.2Z"/>

            </g>
        </g>
    </g>
    
    <!-- ITEM 6 -->
    <g>
        <defs>
            <clipPath id="clip-path-id-viewbox-item-6">
                <rect x="0.0" y="0.0" width="36.375" height="90.467"/>
            </clipPath>
        </defs>
        <g transform="translate(504.0 598.0) rotate(0.0 18.0 45.0) scale(0.9896907216494846 0.9948378966916113)">
            <g clip-path="url(#clip-path-id-viewbox-item-6)" transform="translate(-0.0 -0.0)">
                
  
  <g>
    <path d="M36.362,17.725c.283,10.037-3.965,18.639-20.935,18.639C5.386,36.364,0,27.766,0,17.725S10.235,0,20.276,0,36.034,6.061,36.362,17.725Z" style="         fill: #fff;       "/>
    <path d="M36.362,72.268c.234,10.038-8.146,17.843-18.181,18.181C4.518,90.91,0,82.309,0,72.268S5.386,54.546,15.427,54.546,36.034,58.182,36.362,72.268Z" style="         fill: #fff;       "/>
  </g>

            </g>
        </g>
    </g>
    
</svg>